<svg id="Camada_1" data-name="Camada 1" xmlns="http://www.w3.org/2000/svg" viewBox="0 0 126.7 97.5"><defs><style>.cls-1,.cls-10,.cls-11,.cls-12,.cls-13,.cls-14,.cls-15,.cls-16,.cls-17,.cls-18,.cls-19,.cls-2,.cls-20,.cls-21,.cls-22,.cls-23,.cls-24,.cls-25,.cls-26,.cls-27,.cls-28,.cls-29,.cls-3,.cls-30,.cls-31,.cls-32,.cls-33,.cls-34,.cls-35,.cls-36,.cls-37,.cls-38,.cls-39,.cls-4,.cls-40,.cls-41,.cls-42,.cls-43,.cls-44,.cls-45,.cls-46,.cls-47,.cls-48,.cls-49,.cls-5,.cls-50,.cls-51,.cls-52,.cls-53,.cls-54,.cls-55,.cls-56,.cls-57,.cls-58,.cls-59,.cls-6,.cls-60,.cls-61,.cls-62,.cls-63,.cls-64,.cls-65,.cls-66,.cls-67,.cls-68,.cls-69,.cls-7,.cls-70,.cls-71,.cls-72,.cls-73,.cls-74,.cls-8,.cls-9{fill:none;stroke-width:0.3px;}.cls-1,.cls-3{stroke:#000;}.cls-1{stroke-opacity:0;}.cls-2{stroke:#fdfdfd;}.cls-4{stroke:#f9f9f9;}.cls-5{stroke:#f8f8f8;}.cls-6{stroke:#f3f3f3;}.cls-7{stroke:#f7f7f7;}.cls-8{stroke:#f6f6f6;}.cls-9{stroke:#f1f1f1;}.cls-10{stroke:#fafafa;}.cls-11{stroke:#efefef;}.cls-12{stroke:#bfbfbf;}.cls-13{stroke:#727272;}.cls-14{stroke:#707070;}.cls-15{stroke:#646464;}.cls-16{stroke:#f0f0f0;}.cls-17{stroke:#f4f4f4;}.cls-18{stroke:#f5f5f5;}.cls-19{stroke:#717171;}.cls-20{stroke:#7f7f7f;}.cls-21{stroke:#787878;}.cls-22{stroke:#6f6f6f;}.cls-23{stroke:#929292;}.cls-24{stroke:#8d8d8d;}.cls-25{stroke:#6a6a6a;}.cls-26{stroke:#838383;}.cls-27{stroke:#757575;}.cls-28{stroke:#767676;}.cls-29{stroke:#606060;}.cls-30{stroke:gray;}.cls-31{stroke:#c1c1c1;}.cls-32{stroke:#868686;}.cls-33{stroke:#959595;}.cls-34{stroke:#8b8b8b;}.cls-35{stroke:#c4c4c4;}.cls-36{stroke:#8a0302;}.cls-37{stroke:#020202;}.cls-38{stroke:#bc6f6e;}.cls-39{stroke:#656565;}.cls-40{stroke:#848484;}.cls-41{stroke:#8c0805;}.cls-42{stroke:#010101;}.cls-43{stroke:#ae504f;}.cls-44{stroke:#faf4f4;}.cls-45{stroke:#fbf6f6;}.cls-46{stroke:#c88887;}.cls-47{stroke:#c07675;}.cls-48{stroke:#b66261;}.cls-49{stroke:#c17777;}.cls-50{stroke:#f7eeee;}.cls-51{stroke:#ebebeb;}.cls-52{stroke:#e5e5e5;}.cls-53{stroke:#7e7e7e;}.cls-54{stroke:#e4e4e4;}.cls-55{stroke:#f2f2f2;}.cls-56{stroke:#828282;}.cls-57{stroke:#777;}.cls-58{stroke:#8b0503;}.cls-59{stroke:#3c3c3c;}.cls-60{stroke:#919191;}.cls-61{stroke:#f6ebeb;}.cls-62{stroke:#747474;}.cls-63{stroke:#8a8a8a;}.cls-64{stroke:#6c6c6c;}.cls-65{stroke:#6b6b6b;}.cls-66{stroke:#8e8e8e;}.cls-67{stroke:#fefefe;}.cls-68{stroke:#fff;}.cls-69{stroke:#8b0504;}.cls-70{stroke:#f8f0f0;}.cls-71{stroke:#474747;}.cls-72{stroke:#c5c5c5;}.cls-73{stroke:#909090;}.cls-74{stroke:#b4b4b4;}.cls-75{fill-opacity:0;}.cls-76{fill:#fdfdfd;}.cls-77{fill:#f9f9f9;}.cls-78{fill:#f8f8f8;}.cls-79{fill:#f3f3f3;}.cls-80{fill:#f7f7f7;}.cls-81{fill:#f6f6f6;}.cls-82{fill:#f1f1f1;}.cls-83{fill:#fafafa;}.cls-84{fill:#efefef;}.cls-85{fill:#bfbfbf;}.cls-86{fill:#727272;}.cls-87{fill:#707070;}.cls-88{fill:#646464;}.cls-89{fill:#f0f0f0;}.cls-90{fill:#f4f4f4;}.cls-91{fill:#f5f5f5;}.cls-92{fill:#717171;}.cls-93{fill:#7f7f7f;}.cls-94{fill:#787878;}.cls-95{fill:#6f6f6f;}.cls-96{fill:#929292;}.cls-97{fill:#8d8d8d;}.cls-98{fill:#6a6a6a;}.cls-99{fill:#838383;}.cls-100{fill:#757575;}.cls-101{fill:#767676;}.cls-102{fill:#606060;}.cls-103{fill:gray;}.cls-104{fill:#c1c1c1;}.cls-105{fill:#868686;}.cls-106{fill:#959595;}.cls-107{fill:#8b8b8b;}.cls-108{fill:#c4c4c4;}.cls-109{fill:#8a0302;}.cls-110{fill:#020202;}.cls-111{fill:#bc6f6e;}.cls-112{fill:#656565;}.cls-113{fill:#848484;}.cls-114{fill:#8c0805;}.cls-115{fill:#010101;}.cls-116{fill:#ae504f;}.cls-117{fill:#faf4f4;}.cls-118{fill:#fbf6f6;}.cls-119{fill:#c88887;}.cls-120{fill:#c07675;}.cls-121{fill:#b66261;}.cls-122{fill:#c17777;}.cls-123{fill:#f7eeee;}.cls-124{fill:#ebebeb;}.cls-125{fill:#e5e5e5;}.cls-126{fill:#7e7e7e;}.cls-127{fill:#e4e4e4;}.cls-128{fill:#f2f2f2;}.cls-129{fill:#828282;}.cls-130{fill:#777;}.cls-131{fill:#8b0503;}.cls-132{fill:#3c3c3c;}.cls-133{fill:#919191;}.cls-134{fill:#f6ebeb;}.cls-135{fill:#747474;}.cls-136{fill:#8a8a8a;}.cls-137{fill:#6c6c6c;}.cls-138{fill:#6b6b6b;}.cls-139{fill:#8e8e8e;}.cls-140{fill:#fefefe;}.cls-141{fill:#fff;}.cls-142{fill:#8b0504;}.cls-143{fill:#f8f0f0;}.cls-144{fill:#474747;}.cls-145{fill:#c5c5c5;}.cls-146{fill:#909090;}.cls-147{fill:#b4b4b4;}</style></defs><path class="cls-1" d="M-11.4,84.7H115V-12.5H-11.4V84.7M75.9,35.9c1.1,0,2,.6,3,.3a5,5,0,0,1,3.2-.2c2-3.8,8.9-4.2,10.3.1,1.8-.2,4.3-.3,5.8.4a4.1,4.1,0,0,1,2.6,3.8,13,13,0,0,1-1.4,4.9c-.7,1.6-.5,3.5-1.2,5.1s-2.4,2-4.1,2.3-3.7-1.1-5.4-.2c.4.9-.2,1.7.1,2.6s0,2.1,0,3-.9,1.4-.5,2.2a6.2,6.2,0,0,1,.5,2.7c.1.9-.3,1.9-.1,2.8a7.5,7.5,0,0,1,.2,3A4.6,4.6,0,0,1,88,71a4,4,0,0,1-2.1,1.2,15.1,15.1,0,0,1-3,.1c-1,.1-2.1-.1-3,0a14.6,14.6,0,0,1-3-.2c-.9-.1-1.9.5-2.8.2s-2.1.2-3.1,0a5.7,5.7,0,0,0-2.6,0,7,7,0,0,1-2.9-.2c-.9-.1-1.8.2-2.8.2s-1.9-.3-2.8-.2a7.5,7.5,0,0,1-3,.2,4.6,4.6,0,0,0-2.6,0,7.5,7.5,0,0,1-3-.2,9,9,0,0,0-2.8.2c-.9.2-2-.4-2.9-.3a9.2,9.2,0,0,1-2.9.3,9,9,0,0,1-2.8-.4c-.8-.4-1.6.1-2.4.3a10.8,10.8,0,0,1-3.1.1,11,11,0,0,1-2.6-.6A6.2,6.2,0,0,1,30,70.3a6.1,6.1,0,0,1-1.1-2.1c-1.1.1-2.3.5-3.4,0s-2.2.6-3.3.1-2.2,0-3.2-.1A5,5,0,0,1,16.2,67c-.9-.6-1-1.6-1.3-2.6s0-2.2.3-3.2a7.1,7.1,0,0,1,1.3-2.6,6.9,6.9,0,0,1,1.9-1.9c.9-.5.6-1.9,1.2-2.7a7.6,7.6,0,0,1,2.1-1.9c-1.6,0-3.3.9-4.9.1-1.5,1-3.7.2-5.4.5A11,11,0,0,1,6,52.6a4.6,4.6,0,0,1-3-3.2,8.9,8.9,0,0,1,.4-5.1c.6-1.6,1-3.1,1.7-4.6s1.5-3,1.3-4.6a4.1,4.1,0,0,1,2.5-3.8,12.6,12.6,0,0,1,5.5-.3,6.7,6.7,0,0,1,7.2-1.8,5.3,5.3,0,0,1,2.8,6.6,9.7,9.7,0,0,1,3.4.6A26.3,26.3,0,0,1,51.4-.2,26.3,26.3,0,0,1,72.9,10.6C78,17.5,79.5,27.8,75.9,35.9Z" transform="translate(11.5 12.7)"/><path class="cls-2" d="M75.9,35.9c3.6-8.1,2.1-18.4-3-25.3a26,26,0,0,0-42.5.5,26.5,26.5,0,0,0-2.6,25.3,9.7,9.7,0,0,0-3.4-.6,5.3,5.3,0,0,0-2.8-6.6A6.7,6.7,0,0,0,14.4,31a12.6,12.6,0,0,0-5.5.3,4.1,4.1,0,0,0-2.5,3.8c.2,1.6-.6,3.1-1.3,4.6s-1.1,3-1.7,4.6A8.9,8.9,0,0,0,3,49.4a4.6,4.6,0,0,0,3,3.2,11,11,0,0,0,5.4.1c1.7-.3,3.9.5,5.4-.5,1.6.8,3.3-.1,4.9-.1A7.6,7.6,0,0,0,19.6,54c-.6.8-.3,2.2-1.2,2.7a6.9,6.9,0,0,0-1.9,1.9,7.1,7.1,0,0,0-1.3,2.6c-.3,1-.7,2.3-.3,3.2s.4,2,1.3,2.6A5,5,0,0,0,19,68.2c1,.1,2.1-.3,3.2.1s2.3-.6,3.3-.1,2.3.1,3.4,0A6.1,6.1,0,0,0,30,70.3a6.2,6.2,0,0,0,1.8,1.4,11,11,0,0,0,2.6.6,10.8,10.8,0,0,0,3.1-.1c.8-.2,1.6-.7,2.4-.3a9,9,0,0,0,2.8.4,9.2,9.2,0,0,0,2.9-.3c.9-.1,2,.5,2.9.3a9,9,0,0,1,2.8-.2,7.5,7.5,0,0,0,3,.2,4.6,4.6,0,0,1,2.6,0,7.5,7.5,0,0,0,3-.2c.9-.1,1.8.2,2.8.2s1.9-.3,2.8-.2a7,7,0,0,0,2.9.2,5.7,5.7,0,0,1,2.6,0c1,.2,2.1-.2,3.1,0s1.9-.3,2.8-.2a14.6,14.6,0,0,0,3,.2c.9-.1,2,.1,3,0a15.1,15.1,0,0,0,3-.1A4,4,0,0,0,88,71a4.6,4.6,0,0,0,.9-2.3,7.5,7.5,0,0,0-.2-3c-.2-.9.2-1.9.1-2.8a6.2,6.2,0,0,0-.5-2.7c-.4-.8.5-1.3.5-2.2s.4-2.1,0-3,.3-1.7-.1-2.6c1.7-.9,3.8.5,5.4.2s3.5-.6,4.1-2.3.5-3.5,1.2-5.1a13,13,0,0,0,1.4-4.9,4.1,4.1,0,0,0-2.6-3.8c-1.5-.7-4-.6-5.8-.4-1.4-4.3-8.3-3.9-10.3-.1a5,5,0,0,0-3.2.2c-1,.3-1.9-.3-3-.3M74.2,25.1a5.4,5.4,0,0,1,0,1.8,14.5,14.5,0,0,1-.3,3,21.4,21.4,0,0,1-.6,2.7c-.3.9-.6,1.6-.9,2.4a22.6,22.6,0,0,0-1.1,2.2A2.3,2.3,0,0,1,69,38.3c6.2-8.5,4.7-20.9-3.1-28a21.2,21.2,0,0,0-28.1,0c-7.9,7-9.5,19.4-3.2,27.9-.8.1-1.7.2-2-.5s-.7-1.1-1-1.8-.6-1.3-.8-2-.5-1.4-.7-2.1a20.5,20.5,0,0,1-.5-2.4,11,11,0,0,1-.2-2.6,4.8,4.8,0,0,1,0-1.7c0-11.9,10.7-21.6,22.4-21.6s22.4,9.7,22.4,21.6M53.1,32.8a2.9,2.9,0,0,0-.1-1.6c-.3-.4-.8-.8-.4-1.3a.8.8,0,1,1,.9,1.3c0,.6.2,1.7-.4,2.1s-1.1.8-1,1.6L54,33.1c.7-.7.2-2.4.4-3.3a.8.8,0,1,1,.3,0c-.2.4.1,1.1,0,1.5s.2,1.1,0,1.5-1,.8-1.3,1.3-1.1.7-1.3,1.3a22.6,22.6,0,0,0,0,2.6l-.9.2V34.8c0-1.1.1-2.4,0-3.4s.2-2.4-.1-3.2-1.4-1-1.8-1.8-1.5-.9-1.5-1.8-.1-1.9-1-2.4S46,21,45.1,20.5s-.4-1.7-1.2-2.2-.2-1.8-1-2.4-1-1.1-1.7-1.7-1.9-.3-1.3-1.2,1.8.1,1.4,1,1,1.2,1.9,1.8.2,2,1.3,2.5V11.7a.9.9,0,0,1,0-1.7c1,0,1.2,1.5.3,1.7s-.1,2.9,0,4.2-.3,2.9.2,4.1a12.2,12.2,0,0,0,.1-2.7,1.9,1.9,0,0,1,1-1.9.8.8,0,0,1,1.2-1.1c.7.6-.2,1.7-1,1.2s-.8,2.9-.9,4.3,1.7,1.8,2.4,2.8a11.3,11.3,0,0,1,0-2.6c.1-.8-.9-.8-1.1-1.6A1.4,1.4,0,0,1,47.9,17c.6,0,1.4.8,1.2,1.4s-1,1-.8,1.8a22.5,22.5,0,0,1,0,2.6c.1.8-.2,1.7.4,2.2s.7.9,1.3,1.3V23.5c-1-.2-.7-1.8.3-1.7a.9.9,0,0,1,0,1.7c.3,1.3-.6,3.2.9,3.9,0-1.2,1.4-1.8,2.1-2.8a4.1,4.1,0,0,0,0-1.1c-.1-.4.1-.9,0-1.3s-1.3-1-1.8-1.8.1-2.5-.2-3.3-1.3-1-1.8-1.8-1.5-1-1.4-2,.2-2.3-.6-3,.4-2.1,1.3-1.5a1,1,0,0,1-.3,1.9c0,1.2-.3,2.9.6,3.6s1.2,1.4,2.2,2.1V13.3a1.5,1.5,0,0,1-1.2-1.7,1.5,1.5,0,0,1,1.8-1.1,1.5,1.5,0,0,1,1,1.7c-.3.8-1.3,1-1.1,1.9a28.1,28.1,0,0,1,0,2.9,28.1,28.1,0,0,1,0,2.9c.2.8,1.1.8,1.5,1.4s0-1.5,0-2.2a8.9,8.9,0,0,1,0-2.3c.2-.5,1-1.1,1.4-1.5s1.2-.9,1.2-1.8.1-1.8-.8-2.2-.7-1.5-.4-2.2a2,2,0,0,1,2.1-.8A1.8,1.8,0,0,1,58.1,10a1.8,1.8,0,0,1-1.3,1.7c-.1,1.1.2,2.5-.5,3.3s-1.3,1.1-1.9,1.9-.1,2.6-.2,3.7.1,2.6,0,3.7-.8,1.5-1.6,2.3-.5,2.1-.5,3.3v3.9c.4-.2.7-.7,1-1m3.4-9.9v1c.2.4.8.7,1.1,1.1l1.1,1c.2-.5-.2-1-.4-1.4s-1.1-1.1-.7-2,.7-.7,1-1l1-1.1a1.4,1.4,0,0,0,.7-1.3c-.1-.6.1-1.5,0-2s-.2-1.3.4-1.5a.9.9,0,0,1,1.2.9c0,.6-.7.6-1.2.7s.2,1.9-.1,2.6-1,.9-1.4,1.4-1,.8-1.4,1.4.3,1.6.9,1.9.6-1.5,1.2-2.1,1-1.1,1.7-1.7.7-1.9.6-2.8.9-1.4,1.4-2a1.4,1.4,0,0,1,2.5-1.1,1.5,1.5,0,0,1-2.3,1.7c-.5.5-1,.9-1,1.6s.2,2-.3,2.5L61.2,22l-1.4,1.4a2.5,2.5,0,0,0-.6,2.1,26.1,26.1,0,0,1,0,2.8c0,.8,1,.7,1.1,1.5a1.5,1.5,0,0,1-1.1,1.7,1.2,1.2,0,0,1-1.4,1.2c.2-.4,1.2-1,.7-1.3s-1-.7-.9-1.3a1.3,1.3,0,0,1,1.1-1.3c-.2-.7.3-2-.3-2.6s-.7-.9-1.4-1.4a2,2,0,0,1-.8-2c0-.9.2-2-.4-2.5a.8.8,0,1,1,.7.2v1a21.3,21.3,0,0,0,2.2-2.1,2.1,2.1,0,0,0-.5-3,.8.8,0,0,1-1.3-.9c.2-.8,1.5-.7,1.5,0a1.9,1.9,0,0,0,.9,1.6,3.4,3.4,0,0,1,0,2c-.3.7-1.1,1-1.5,1.6s-1.4,1-1.3,1.7a8.5,8.5,0,0,0,1.7-1.6c.6-.6,1.5-1,1.5-2V15.4c-1-.2-.7-1.7.2-1.7a.9.9,0,0,1,.1,1.7V19c0,1-1.1,1.3-1.6,2.1s-1.3,1.1-1.9,1.8M41.6,21.3c-.1-.3,0-.7-.1-.9s-.8-.4-.7-.9a.8.8,0,0,1,.8-.7.8.8,0,0,1,.9.7c.1.3-.2.9-.6.9s.8,1.3,1.2,2a10.6,10.6,0,0,1,1.5,1.5,5.2,5.2,0,0,1,1,1.1c.2.2.1.6.1.9s.8.1,1,.7a1.7,1.7,0,0,1,0,1.4c-.2.5-.7.4-1,.7s-.3,2.4,0,3.4,1.1,1,1.6,1.6a11.4,11.4,0,0,0,1.6,1.5V32.3a2.2,2.2,0,0,1-2.2-1.4A1.9,1.9,0,0,1,48,28.7a1.9,1.9,0,0,1,2.3,1.1c.4,1-.5,1.7-.6,2.7s.2,2.4,0,3.5.6,1.5,1.3,2.2-1.5,0-1.9-.7-.3-1.6-1.1-2.2a12.1,12.1,0,0,1-1.6-1.6c-.6-.6-1.2-.9-1.3-1.8s0-2.4,0-3.3-.7-1.2-1.2-1.6-.9-1.3-1.6-1.3-1.7.1-2.1-.6-1.1-.8-1.3-1.6.2-2-.1-2.7-1-.8-1.4-1.4c-1.3.9-2.9-1.1-1.7-2.2a1.5,1.5,0,0,1,2.2,1.9c.5.6,1.4,1,1.5,1.9s-.3,2.3.5,3,1.2,1.5,2.3,1.2,1.3,1,2.1,1.4.7-.7,1.1-.8-1.1-1.7-1.7-2.4-1.5-1.4-2.1-2.1m21.2,6.2c-.2.6.2,1.5,0,2.1s.2,1.5,0,2.1.4-.3.4-.4-.1-1.2,0-1.7-.1-1.2.1-1.7.8-.4.7-1,.2-1.2,0-1.8-1.9-1.5-.5-2.2c-.4-.8.3-1.3,1.1-1.2s.5,1.7-.2,1.6-1.6.2-.9.9a1.8,1.8,0,0,1,.8,1.9c0,.9.1,1.4-.7,2s.2,1.9,0,2.8L65,29.6c.2-.8-.2-1.9,0-2.7s-.3-1.8,0-2.6,1.5-1.2,2-1.9a1.4,1.4,0,0,1,2.2-1.6,1.4,1.4,0,0,1-2,1.9c-.5,1-1.8,1.1-1.8,2.4s0,3,0,4.3,1.6-.8,2.4-1.4,1.3-2.1,1.9-1-.8,2.2-1.8,1.4S67,30,66.2,29.9a2.5,2.5,0,0,0-2.1,1.2c-.4.7-1.4,1-1.3,1.9s1.7-.8,2.5-1.4,1.2,0,1.8-.1,0-.9.5-1,.9.1,1,.5.2.7-.3,1-.6,0-1.1-.2a7.4,7.4,0,0,0-1.5,0c-.6,0-1.1,1-1.6,1.3s-.8.1-1.3.2.9.4,1.3.3.6-.9,1.1-.9.7-.7,1.3-.7a.8.8,0,0,1,.7,1.1c-.1.5-.9.8-1.2.3s-.8-.6-1.2-.1-.7.8-1.3.7a1.5,1.5,0,0,0-1.4.5c0-.2-.1-.3-.2-.5l.3-.3a7.4,7.4,0,0,0,0-2.1,8.1,8.1,0,0,0,0-2.2c0-.5.3-1.6-.2-1.9s-1.2-.6-1.1-1.4.6-1.3,1.4-1.3V22.1c.1-.5,1-.8,1.3-1.3s1.1-.8,1.3-1.3,0-.9.5-1a1,1,0,0,1,1,.4.8.8,0,0,1-.2,1.1,1.3,1.3,0,0,1-1.2-.1c-.8.6-1,1.1-1.8,1.8s-.6,2.1-.6,3.1a1.4,1.4,0,0,1,.2,2.7m-25.3,1c.5.2,1.2-.2,1.7.1a5.2,5.2,0,0,1,1.1,1c.3.3.9.7,1.1,1.1s-.2,1.9.1,2.7a.2.2,0,0,0,.2.2c-.2-1,.3-2.5-.2-3.3s-1.2-.9-1.7-1.7-1.9-.4-2.5-1-1.7-1.2-.7-2,1.8,1.2.7,1.5c.4,1.1,2.1.3,2.6,1.2s1.4,1,1.9,1.9,0,2.6.2,3.7.2.1.3.2V29.9c-.3-.6-1.1-.9-1.4-1.4s-1.1-1-1.5-1.5-1.7-.7-1-1.3a.9.9,0,0,1,1.3,1.1,19.2,19.2,0,0,1,1.4,1.5c.4.5,1.3.9,1.5,1.5s-.2,1.7,0,2.4-.4,1.8.1,2.3.9.8.8,1.6a3,3,0,0,0,.3,2.1c-.2,0-.4-.1-.6,0s-.2-.7-.3-1.1.1-1.1,0-1.5a2.9,2.9,0,0,0-1.1-1.1c-.3-.3-.7-.9-1.1-1.1a28.1,28.1,0,0,0-2.9,0c-.8-.3-1.3-1.7-2.1-1.8s-1.8-.1-1.9-1.2A1.3,1.3,0,0,1,35.6,29a1.5,1.5,0,0,1,.7,2.2L38,32.8a7.5,7.5,0,0,0,1.5,0h1.7c0-.8.2-2.3-.7-2.7s-.9-1.6-1.9-1.5a2.3,2.3,0,0,1-2.3-1c-.5-.9-1.5-.9-1.4-2a1.2,1.2,0,0,1-1.2-1.3A1.4,1.4,0,0,1,35,23.2a1.5,1.5,0,0,1,1.4,1.1c.1.8-.5,1.2-1.1,1.5s.5,1.1.8,1.4l1.4,1.3m-22,11.1h.9c1,.1,1.3.7,1,1.6s-.6,1.1-1.5,1H14.4c-1,0-2.7-.1-3,1s-.7,1.8-1,2.8a19.5,19.5,0,0,1,2.5-.2,3.9,3.9,0,0,1,2.4.3c.8.4.6,1.3.3,2a1,1,0,0,1-1.5.8c-.8-.3-1.8.2-2.6.2a10.1,10.1,0,0,0-2.5.2,2.8,2.8,0,0,1-2.2-.4c-.6-.6-.4-1.6-.3-2.3l.6-2.1c.3-.7.6-1.4.8-2l.8-2a16.3,16.3,0,0,1,.9-1.9,17.2,17.2,0,0,1,.7-2.1c.4-.6-.6-1.5.1-1.9a7.5,7.5,0,0,1,2.6-.1l2.6.2c.7,0,2.1-.1,1.2-.8s3.4-2.3,4.1-.7-.7,3.2-2.1,4a9.1,9.1,0,0,1-5.4.7,15.9,15.9,0,0,0-.7,2,24,24,0,0,1,2.8-.3m47.6-5.2c.4-.2.9,0,1.4-.1s.2-.8.7-.8.8.3.9.7-.1.7-.5.9-.8-.1-1.1-.4-1-.1-1.3,0-.5.7-.8.7.4-.7.7-1m-4.6-.2c.8,0,2,.1,2.4,1a4,4,0,0,1-.5,2.6,25,25,0,0,0-.9,2.5,5.4,5.4,0,0,1,2.2-.9,2.1,2.1,0,0,1,2.1.9c.5.8,0,1.7-.2,2.5s-.6,1.4-.8,2.3-.7,1.5-.5,2.5-.7,1.3-1.7,1.2a1.7,1.7,0,0,1-1.8-1.1,3.1,3.1,0,0,1,.2-2.5,14.3,14.3,0,0,1,.8-2.2c.4-.6.9-2,0-1.6s-.8,1-1.3,1.7a15.5,15.5,0,0,0-.8,2.3,5.3,5.3,0,0,0-.4,2.5c.1.9-1.3,1-2.1.9s-1.6-.6-1.6-1.5v-.8a8.1,8.1,0,0,1,.7-2.2,17.2,17.2,0,0,1,.7-2.1,15.9,15.9,0,0,0,.7-2,11.9,11.9,0,0,1,.8-2,17.2,17.2,0,0,1,.7-2.1c.5-.7-.5-1.6.4-1.9a2.7,2.7,0,0,1,.9,0m-2.9.7c.3.4,0,.8-.4,1.1s-.2,1.8-.8,2.2a1.6,1.6,0,0,1-1.7-1.8,1.4,1.4,0,0,1,2.2-.8,1.6,1.6,0,0,1,.7-.7M41.1,38.2c-.6.2-.9-.5-1.4-.2s-1.1-.1-1.5-.5a1.4,1.4,0,0,1,.1-1.6,1.4,1.4,0,0,1,1.6-.4,1.2,1.2,0,0,1,.7,1.4c-.2.6,0,.9.5,1.3M88,36.6c1.6.2,1,1.6,0,2.1s-2.9.4-2.8-.8,2.1-1.4,2.8-1.3M47.1,37.9c.5-1-1.4-.9-.9.1s-.1-1.2.5-1.2,1.2,1,.4,1.1m-28,10.9a1.7,1.7,0,0,1-1,0,1.6,1.6,0,0,1-1.6-1.5,5.6,5.6,0,0,1,.5-2.5c.2-.9.7-1.5.8-2.3s1-1.5.5-2.3,1-.8,1.7-.7,1.8.3,1.9,1.2a4.5,4.5,0,0,1,1.9-1.1,3.1,3.1,0,0,1,2.5.2c.8.4.7,1.4.5,2.2s-.5,1.5-.8,2.2-.5,1.6-.7,2.4.2,2-.8,2.2a2.9,2.9,0,0,1-2.4-.5c-.8-.5-.5-1.5-.4-2.2a15.5,15.5,0,0,1,.7-2.3c.2-.7,1-1.7.7-2.3s-1.2.5-1.4,1.1a12.1,12.1,0,0,0-.9,2,10.5,10.5,0,0,0-.6,2.4c0,.8.1,2.1-1.1,1.8m27.7,0a1.4,1.4,0,0,1-.9,0,1.4,1.4,0,0,1-1.4-.8,3.1,3.1,0,0,1-.1-1.9,9.5,9.5,0,0,1,.6-1.8c.3-.6.3-1.2.6-1.7s.2-1.2.6-1.7-.9-1.5.2-1.5,3-.1,3.3,1.3a4.3,4.3,0,0,1,2.1-1.1c.9-.2,2.2-.3,2.7.5s.1,1.9-.2,2.7a18.3,18.3,0,0,1-.8,2.5,9,9,0,0,0-.4,2.8c-.1.9-1.8.8-2.5.6a1.8,1.8,0,0,1-1.2-2.1,13.8,13.8,0,0,1,.8-2.7,4.6,4.6,0,0,0,.7-2.6c-1.1.1-1.3,1.2-1.8,2.1a19.9,19.9,0,0,0-.9,2.9c-.4.9.3,2.9-1.4,2.5m39-9.4c.6.1,1.5.3,1.8.9a2.8,2.8,0,0,1-.3,2.2l-.8,2-.7,2.1c-.1.7.2,2-.7,2.1a3.5,3.5,0,0,1-2.3-.2c-.8-.5-.7-1.4-.6-2.2a8.6,8.6,0,0,1,.7-2.1c.1-.7.7-1.2.7-2s1-1.1.6-2,.7-.9,1.6-.8M78,40.7c1.1-1.6,5.1-1.8,5,.5s-3.4,3.4-4.8,1.9c.8-.1,1.1-2,.3-1.7s-.7,1.2-1.2,1.9a15.5,15.5,0,0,0-.7,2.3,5.7,5.7,0,0,0-.3,2.6c-.1.9-1.6.7-2.3.6s-1.6-.7-1.5-1.5a10.1,10.1,0,0,1,.5-2.5,21.8,21.8,0,0,0,.9-2.3c.1-.8,1-1.4.5-2.2s.9-.9,1.7-.7,1.7.2,1.9,1.1M35.5,46.3a3.4,3.4,0,0,1,0-1,4.9,4.9,0,0,1,.8-2.3,4.6,4.6,0,0,1,1.5-1.6,7.3,7.3,0,0,1,4.5-1.8,3,3,0,0,1,2.4.7,1.8,1.8,0,0,1,.3,2.3,3.3,3.3,0,0,1-1.5,1.6,5.1,5.1,0,0,1-2.4.7c-.8,0-2.4-.4-1.8.7s1.7.3,2.5.3,1.4-1.2,2-.8.2,1.7-.3,2.2a4.4,4.4,0,0,1-1.8,1.2,8.2,8.2,0,0,1-2.7.6,5.3,5.3,0,0,1-2.4-.8,2.3,2.3,0,0,1-1.1-2m32.4.2a5.2,5.2,0,0,1-1.8,1.8c-.7.5-2.1.8-2.7-.2a3.7,3.7,0,0,1,0-3.1,8.3,8.3,0,0,1,1.5-2.3,6.9,6.9,0,0,1,1.9-1.9,10.2,10.2,0,0,1,2.6-1.1,14.5,14.5,0,0,1,3.6,0c1.2.2.7,1.5.3,2.4a14.8,14.8,0,0,0-1,2.7,8.3,8.3,0,0,0-.7,3.2c.1,1.1-1.3,1.2-2.4,1a2.3,2.3,0,0,1-1.3-2.5m23.4-.1a5.2,5.2,0,0,1-1.7,1.9c-.8.5-2.2.8-2.8-.1a3.7,3.7,0,0,1,0-3.1,9.5,9.5,0,0,1,1.4-2.4,10.7,10.7,0,0,1,1.9-1.8,6.6,6.6,0,0,1,2.7-1.2,13.6,13.6,0,0,1,3.5,0c1.3.1.8,1.4.4,2.3a23.1,23.1,0,0,0-1,2.8,10.1,10.1,0,0,0-.7,3.1c.1,1.2-1.3,1.3-2.4,1a2,2,0,0,1-1.3-2.5M33.4,48.9c.7,0,1.1.4,1.8.4s1.3.5,2,.2,1.1.2.5.7l-1.5.8a4.5,4.5,0,0,1-2,0l-1.9-.4a3.8,3.8,0,0,1-1.8,1.3,4.4,4.4,0,0,1-2.8.1,1.2,1.2,0,0,1-.4-1.9,2.6,2.6,0,0,1,1.9-1.3c.9-.1.9-1.2,1.2-1.9A5.1,5.1,0,0,1,28,48.8,1.6,1.6,0,0,1,25.8,47a6.4,6.4,0,0,1,1-3.3,8.7,8.7,0,0,1,2-2.3A5,5,0,0,1,31.7,40a10.6,10.6,0,0,1,4-.2c1.2.3.3,1.9,0,2.8s-.9,2.1-1.3,3a18,18,0,0,0-1,3.3m29.4,3.9H78.3c.8-.1,1.8.1,2.6,0s1.8.2,2.6,0,.9-.9,1.4-.4a.8.8,0,0,1,0,1.4c-.5.6-1-.1-1.4-.3s-1.7.1-2.5,0a22.6,22.6,0,0,0-2.6,0,20.9,20.9,0,0,0-2.5,0,22.5,22.5,0,0,0-2.6,0H65.6a22.5,22.5,0,0,0-2.6,0c-.8,0-1.6.4-2.4.4s.6.3,1,.2H74.8a16.1,16.1,0,0,0,2.2,0c.8-.1,1.6.1,2.2,0s1.7.3,2.3,0,.6-.8,1-.4a.7.7,0,0,1,.1,1.1c-.4.5-.8-.1-1.1-.3s-1.5.1-2.2,0a16.2,16.2,0,0,0-2.2,0,17.6,17.6,0,0,0-2.3,0H61.5c-2.4.1-4.9.2-7.3.1v14H52v-14a28.9,28.9,0,0,1-5.9-.2c-1.9-.4-4-.1-6-.1H33.9a.8.8,0,0,1-1.6,0,.9.9,0,0,1,1.4-1c.7.6,1.7.3,2.7.3a28,28,0,0,0,2.9,0c.9.1,2,0,3,0h2.9c1,0,1.7-.4,2.6-.4a7.7,7.7,0,0,0-2.6-.3H42.3a26.2,26.2,0,0,1-2.8,0,26.1,26.1,0,0,1-2.8,0c-.9-.1-1.3,1-2,.2s1.1-1.5,1.2-.5c3,0,6.1.1,9.1,0s6-.3,9-.2,6-.2,8.8.4M26.2,56.1l1.8-.2c.5-.1,1.3.2,1.3.8s-1.1.1-1.6.3a9.7,9.7,0,0,1-1.8.3c-.8,2.4-2.1,4.6-2.1,7.2-1.1.6-2.6.1-2.4-1.3a2.7,2.7,0,0,1-1.5,1.3,1,1,0,0,1-1.5-1,4,4,0,0,1,.6-2.2,6.1,6.1,0,0,1,1.2-1.5,6.4,6.4,0,0,1,1.8-1c.8-.1,1.4-.4,1.4-1.4s-1-1.7,0-2,2.5-.5,2.8.7m12.7,1.4c-.2.3-1.1,0-1.4.1a7.5,7.5,0,0,0-1.5,0,7.5,7.5,0,0,0-1.5,0V62A20.9,20.9,0,0,1,37,62a2.3,2.3,0,0,1,1.9,2.5c-.1,1.2.3,2.7-.7,3.6s-2.5.5-3.8.5a2.2,2.2,0,0,1-2.2-2.2h4.4c.1-.7-.1-1.4,0-2.2H34.2a2.4,2.4,0,0,1-2-2,13.3,13.3,0,0,1,0-2V58.3a5,5,0,0,1,.2-1.8,3.2,3.2,0,0,1,1-1c.4-.3,1.2-.2,1.7-.2H37a2.3,2.3,0,0,1,1.3.7c.3.3.8,1.1.6,1.5m7.4-.2a24.4,24.4,0,0,1,.1,4.7,24.6,24.6,0,0,1-.1,4.7c-.1,1.8-1.8,1.9-3.3,1.9s-3.2-.2-3.3-2a35.3,35.3,0,0,1,0-4.6,35.3,35.3,0,0,1,0-4.6c.1-1.8,1.8-2.1,3.3-2.1s3.2.2,3.3,2m5.1-1.9c.2.1.1.8,0,1s.2.9,0,1.1-.7,0-1,.1a4.8,4.8,0,0,0-1.2,0c-.2.3.1,1,0,1.4s.1,1,0,1.5a7.5,7.5,0,0,1,0,1.5h2.2v2.1H49.2v4.5H47c-.3-.2.1-1.1,0-1.5a10.8,10.8,0,0,1,0-1.8,8.6,8.6,0,0,1,0-1.6V60.3a9.7,9.7,0,0,1,0-1.7,9.7,9.7,0,0,1,0-1.7c.1-.4-.3-1.3,0-1.6h3c.4,0,1.2-.2,1.4.1m5.6-.1c.4,2.9.7,5.7,1.1,8.6.5-2.8.8-5.7,1.1-8.6.8.1,2.3-.4,2.4.6a26.6,26.6,0,0,0,.3,2.8l.3,2.7a25.1,25.1,0,0,0,.4,2.7c.4-3,.7-5.9,1.1-8.8h2.2c-.7,4.4-1.5,8.9-2.2,13.3-1,.1-2.3.3-2.4-.8s-.4-1.8-.4-2.9-.4-1.8-.5-2.8a13,13,0,0,0-.4,2.1c-.2.6-.2,1.4-.4,2.1s-.1,1.5-.3,2.1-1.7,0-2.3.2c-.7-4.4-1.5-8.9-2.2-13.3H57m15.9,2.1a7.6,7.6,0,0,1,.1,1.5,8.6,8.6,0,0,0,0,1.6v3.3a8.6,8.6,0,0,0,0,1.6c-.1.5.1,1.2,0,1.7s.2,1.3-.1,1.5-.8-.1-1.1,0a4.1,4.1,0,0,1-1.1,0V64.2H68.5c-.2.4.1,1.1,0,1.4s.1,1.1,0,1.5.2,1.2,0,1.5-.9.1-1.1.1-1,.1-1.2-.1a54.2,54.2,0,0,1,0-5.7,36,36,0,0,1,.1-5.7c.1-1.8,1.9-1.9,3.4-1.9s3.1.3,3.2,2.1m4.3,6.8c-.3-.2-1.1.2-1.4,0s.1,1,0,1.4a7.5,7.5,0,0,0,0,1.5,7.5,7.5,0,0,0,0,1.5H73.5V59.1c0-1.1.1-2,0-3.1s1.6-.7,2.5-.7a5.7,5.7,0,0,1,2.9.2,2.2,2.2,0,0,1,1.3,2v3.1c0,1,.2,2-.5,2.8s-.1,1.6,0,2.5.4,1.8.5,2.7H78c-.3-1.4-.5-2.9-.8-4.4m8-8.8c.2.1.1.8.1,1.1s.1.9-.1,1.1a16.2,16.2,0,0,0-2.2,0c-.2.3.1,1,0,1.4s.1,1,0,1.5A7.5,7.5,0,0,1,83,62h2.1v2.1H83v2.3h2.2c.2.2.1.9.1,1.1s.1,1-.1,1.1-1-.1-1.4,0a7.5,7.5,0,0,1-1.5,0,7.5,7.5,0,0,1-1.5,0V55.3a32,32,0,0,1,4.4.1M27.2,62c-.4.8,1.1,1.1,1.6.7s1.7-.7,1.5.2-.7,1-1.3,1.4a4.6,4.6,0,0,1-2.3.5,2.2,2.2,0,0,1-1.7-1,2.7,2.7,0,0,1,0-2.3,3.1,3.1,0,0,1,1.1-1.6,4,4,0,0,1,1.8-1,3.3,3.3,0,0,1,2.4-.1,1.2,1.2,0,0,1,.6,1.7,2.4,2.4,0,0,1-1.4,1.4A4.5,4.5,0,0,1,27.2,62Z" transform="translate(11.5 12.7)"/><path class="cls-3" d="M29.4,25.1v1.7a11,11,0,0,0,.2,2.6,20.5,20.5,0,0,0,.5,2.4c.2.7.4,1.3.7,2.1s.5,1.2.8,2,.7,1,1,1.8,1.2.6,2,.5c-6.3-8.5-4.7-20.9,3.2-27.9a21.2,21.2,0,0,1,28.1,0c7.8,7.1,9.3,19.5,3.1,28a2.3,2.3,0,0,0,2.3-1.1A22.6,22.6,0,0,1,72.4,35c.3-.8.6-1.5.9-2.4a21.4,21.4,0,0,0,.6-2.7,14.5,14.5,0,0,0,.3-3V25.1c0-11.9-10.8-21.6-22.4-21.6S29.4,13.2,29.4,25.1Z" transform="translate(11.5 12.7)"/><path class="cls-3" d="M54.7,15.3l-1.4,1.5a8.6,8.6,0,0,1,0,1.6v1.5a6.3,6.3,0,0,1,0,1.4c-.4-.6-1.3-.6-1.5-1.4a28.1,28.1,0,0,0,0-2.9,28.1,28.1,0,0,0,0-2.9c-.2-.9.8-1.1,1.1-1.9a1.5,1.5,0,0,0-1-1.7,1.5,1.5,0,0,0-1.8,1.1,1.5,1.5,0,0,0,1.2,1.7v3.1c-1-.7-1.2-1.4-2.2-2.1s-.6-2.4-.6-3.6a1,1,0,0,0,.3-1.9c-.9-.6-2.1.8-1.3,1.5s.7,1.9.6,3,1,1.3,1.4,2,1.5,1,1.8,1.8-.3,2.6.2,3.3,1.4,1,1.8,1.8a4.9,4.9,0,0,1,0,2.4c-.7,1-2.1,1.6-2.1,2.8-1.5-.7-.6-2.6-.9-3.9a.9.9,0,0,0,0-1.7c-1-.1-1.3,1.5-.3,1.7v2.8c-.6-.4-.7-.8-1.3-1.3s-.3-1.4-.4-2.2a22.5,22.5,0,0,0,0-2.6c-.2-.8.5-1.1.8-1.8S48.5,17,47.9,17a1.4,1.4,0,0,0-1.2,1.4c.2.8,1.2.8,1.1,1.6a11.3,11.3,0,0,0,0,2.6c-.7-1-2.5-1.5-2.4-2.8s-.5-3.4.9-4.3,1.7-.6,1-1.2a.8.8,0,0,0-1.2,1.1,1.9,1.9,0,0,0-1,1.9A12.2,12.2,0,0,1,45,20c-.5-1.2-.2-2.7-.2-4.1s0-2.8,0-4.2.7-1.7-.3-1.7a.9.9,0,0,0,0,1.7v6.6c-1.1-.5-.5-1.9-1.3-2.5s-1.1-1.3-1.9-1.8-.8-1.8-1.4-1,.5,1.7,1.3,1.2.9,1.2,1.7,1.7.2,1.8,1,2.4.3,1.7,1.2,2.2.8,1.2,1.7,1.7.9,1.6,1,2.4,1.2,1.1,1.5,1.8,1.4.9,1.8,1.8,0,2.2.1,3.2,0,2.3,0,3.4v3.4l.9-.2a22.6,22.6,0,0,1,0-2.6c.2-.6,1-.8,1.3-1.3s1-.7,1.3-1.3-.1-1.1,0-1.6-.2-1.1,0-1.4a.8.8,0,1,0-.3,0c-.2.9.3,2.6-.4,3.3l-1.9,1.8c-.1-.8.4-1.1,1-1.6s.4-1.5.4-2.1a.8.8,0,1,0-.9-1.3c-.4.5.1.9.4,1.3a1.8,1.8,0,0,1,.1,1.6c-.3.3-.6.8-1,1V29.9c0-1.2-.2-2.5.5-3.3s1.5-1.2,1.6-2.3-.1-2.6,0-3.7-.4-2.8.2-3.7,1.2-1.1,1.9-1.9.4-2.2.5-3.3A1.8,1.8,0,0,0,58.1,10a1.8,1.8,0,0,0-1.3-1.7,2,2,0,0,0-2.1.8c-.3.7-.4,1.8.4,2.2s.9,1.2.8,2.2-.5,1.2-1.2,1.8M48.5,8.9a.8.8,0,0,1-.4,1.5c-.9-.2-.5-1.6.4-1.5m8,.2a.9.9,0,1,1-.4,1.7.9.9,0,0,1,.4-1.7M44.8,10.4c.5.1.3,1.2-.4,1s-.3-1.2.4-1m7,.6c1,.2.6,2.1-.5,1.7a.9.9,0,1,1,.5-1.7m-11,2c.6.2.2,1.3-.4,1s-.3-1.2.4-1m6.1,1.3c.6.1.4,1.3-.3,1.1a.6.6,0,0,1,.3-1.1m1.2,3.3c.8.2.3,1.6-.4,1.2s-.3-1.4.4-1.2m2.3,4.5c.6.2.2,1.3-.4,1.1s-.2-1.3.4-1.1m4.3,6.4c.6.2.2,1.2-.4.9s-.1-1.1.4-.9m-1.3,1.4c.6.1.4,1.2-.2,1S52.8,29.8,53.4,29.9Z" transform="translate(11.5 12.7)"/><path class="cls-4" d="M48.5,8.9c-.9-.1-1.3,1.3-.4,1.5A.8.8,0,0,0,48.5,8.9Z" transform="translate(11.5 12.7)"/><path class="cls-5" d="M56.5,9.1a.9.9,0,0,0-.4,1.7A.9.9,0,1,0,56.5,9.1Z" transform="translate(11.5 12.7)"/><path class="cls-6" d="M44.8,10.4c-.7-.2-1,.8-.4,1S45.3,10.5,44.8,10.4Z" transform="translate(11.5 12.7)"/><path class="cls-7" d="M51.8,11a.9.9,0,1,0-.5,1.7C52.4,13.1,52.8,11.2,51.8,11Z" transform="translate(11.5 12.7)"/><path class="cls-8" d="M40.8,13c-.7-.2-1.1.8-.4,1S41.4,13.2,40.8,13Z" transform="translate(11.5 12.7)"/><path class="cls-3" d="M59.3,19.1a3.3,3.3,0,0,0,0-1,3.4,3.4,0,0,0,0-1,1.9,1.9,0,0,1-.9-1.6c0-.7-1.3-.8-1.5,0a.8.8,0,0,0,1.3.9,2.1,2.1,0,0,1,.5,3,21.3,21.3,0,0,1-2.2,2.1v-1a.8.8,0,1,0-.7-.2c.6.5.4,1.6.4,2.5a2,2,0,0,0,.8,2c.7.5.8.9,1.4,1.4s.1,1.9.3,2.6a1.3,1.3,0,0,0-1.1,1.3c-.1.6.4,1,.9,1.3s-.5.9-.7,1.3a1.2,1.2,0,0,0,1.4-1.2,1.5,1.5,0,0,0,1.1-1.7c-.1-.8-1.1-.7-1.1-1.5a26.1,26.1,0,0,0,0-2.8,2.5,2.5,0,0,1,.6-2.1L61.2,22l1.3-1.3c.5-.5.3-1.7.3-2.5s.5-1.1,1-1.6a1.5,1.5,0,0,0,2.3-1.7A1.4,1.4,0,0,0,63.6,16c-.5.6-1.5,1-1.4,2s.2,2.2-.6,2.8-1,1.1-1.7,1.7-1.4,1.1-1.2,2.1-1.2-1.3-.9-1.9,1-.8,1.4-1.4,1.1-.8,1.4-1.4-.1-1,0-1.5-.2-1.1.1-1.1,1.2-.1,1.2-.7a.9.9,0,0,0-1.2-.9c-.6.2-.5.9-.4,1.5s-.1,1.4,0,2a1.4,1.4,0,0,1-.7,1.3l-1,1.1c-.3.3-.8.6-1,1s.2,1.4.7,2,.6.9.4,1.4-1-.9-1.1-1-.9-.7-1.1-1.1a1.7,1.7,0,0,1,0-1c.6-.7,1.3-1.1,1.9-1.8S60,20,60,19V15.4a.9.9,0,0,0-.1-1.7c-.9,0-1.2,1.5-.2,1.7v3.4c0,1-.9,1.4-1.5,2a8.5,8.5,0,0,1-1.7,1.6c-.1-.7.9-1.1,1.3-1.7s1.2-.9,1.5-1.6m.8-5.1c.6.2.2,1.3-.4,1.1a.6.6,0,0,1,.4-1.1m5.1.8c1,.2.5,2-.5,1.7a.9.9,0,0,1,.5-1.7m-7.4.4a.6.6,0,0,1-.3,1.1.6.6,0,0,1,.3-1.1m3.5.8c.6.2.1,1.3-.4,1s-.2-1.3.4-1m-4.7,3.1c.6.3.1,1.4-.5,1a.6.6,0,0,1,.5-1m2.7,10.2a.9.9,0,0,1-.6,1.6A.9.9,0,1,1,59.3,29.3Z" transform="translate(11.5 12.7)"/><path class="cls-8" d="M60.1,14a.6.6,0,0,0-.4,1.1C60.3,15.3,60.7,14.2,60.1,14Z" transform="translate(11.5 12.7)"/><path class="cls-9" d="M46.9,14.3a.6.6,0,0,0-.3,1.1C47.3,15.6,47.5,14.4,46.9,14.3Z" transform="translate(11.5 12.7)"/><path class="cls-10" d="M65.2,14.8a.9.9,0,0,0-.5,1.7C65.7,16.8,66.2,15,65.2,14.8Z" transform="translate(11.5 12.7)"/><path class="cls-11" d="M57.8,15.2a.6.6,0,0,0-.3,1.1A.6.6,0,0,0,57.8,15.2Z" transform="translate(11.5 12.7)"/><path class="cls-12" d="M53.3,16.8h0l1.4-1.5C54.3,15.7,53.5,16.3,53.3,16.8Z" transform="translate(11.5 12.7)"/><path class="cls-8" d="M61.3,16c-.6-.3-1,.6-.4,1S61.9,16.2,61.3,16Z" transform="translate(11.5 12.7)"/><path class="cls-3" d="M45.7,32.1a4.9,4.9,0,0,1-.1-1.7c.1-.5-.2-1.4.1-1.7s.8-.2,1-.7a1.7,1.7,0,0,0,0-1.4c-.2-.6-.7-.4-1-.7s0-.7-.1-.9a5.2,5.2,0,0,0-1-1.1l-1.5-1.5c-.4-.7-1.5-1.1-1.2-2s.7-.6.6-.9a.8.8,0,0,0-.9-.7.8.8,0,0,0-.8.7c-.1.5.4.7.7.9s0,.5.1.9,1.5,1.3,2.1,2.1,1.9,1.3,1.7,2.4-1,.3-1.1.8-1-1.7-2.1-1.4-1.5-.6-2.3-1.2-.4-2.1-.5-3-1-1.3-1.5-1.9a1.5,1.5,0,0,0-2.2-1.9c-1.2,1.1.4,3.1,1.7,2.2.4.6,1.1.7,1.4,1.4s-.1,2,.1,2.7.9.8,1.3,1.6,1.4.7,2.1.6,1.1.9,1.6,1.3.3,1.6,1.2,1.6-.1,2.4,0,3.3.7,1.2,1.3,1.8A12.1,12.1,0,0,0,48,35.3c.8.6.7,1.5,1.1,2.2s1.2,1.3,1.9.7S49.6,37,49.7,36s-.1-2.5,0-3.5,1-1.7.6-2.7A1.9,1.9,0,0,0,48,28.7a1.9,1.9,0,0,0-1.3,2.2,2.2,2.2,0,0,0,2.2,1.4v2.9a11.4,11.4,0,0,1-1.6-1.5c-.5-.6-1.3-1-1.6-1.6M37.1,17.3c1,.4.3,2.3-.8,1.7s-.3-2,.8-1.7m4.7,1.8c.6.1.4,1.2-.2,1a.5.5,0,1,1,.2-1m4,7.3a.9.9,0,0,1-.5,1.7c-1.1-.3-.7-2.1.5-1.7m3,3.1c1.1.2.7,2.2-.5,1.9A1,1,0,0,1,48.8,29.5Z" transform="translate(11.5 12.7)"/><path class="cls-13" d="M53.3,21.3a6.3,6.3,0,0,0,0-1.4V18.4a8.6,8.6,0,0,0,0-1.6h0a8.9,8.9,0,0,0,0,2.3C53.3,19.8,53,20.7,53.3,21.3Z" transform="translate(11.5 12.7)"/><path class="cls-14" d="M59.3,19.1a3.4,3.4,0,0,0,0-2,3.4,3.4,0,0,1,0,1A3.3,3.3,0,0,1,59.3,19.1Z" transform="translate(11.5 12.7)"/><path class="cls-15" d="M60.6,19.9c.3-.7-.2-1.9.1-2.6s-.1.7-.1,1.1S60.7,19.5,60.6,19.9Z" transform="translate(11.5 12.7)"/><path class="cls-4" d="M37.1,17.3c-1.1-.3-1.8,1.2-.8,1.7S38.1,17.7,37.1,17.3Z" transform="translate(11.5 12.7)"/><path class="cls-4" d="M48.1,17.6c-.7-.2-1.2.9-.4,1.2S48.9,17.8,48.1,17.6Z" transform="translate(11.5 12.7)"/><path class="cls-3" d="M64.9,19.5c-.2.6-1.1.9-1.3,1.4s-1.1.7-1.3,1.2v2.7c-.8,0-1.2.5-1.4,1.3s.6,1.1,1.1,1.4.2,1.3.3,1.9v2.2c-.1.6.2,1.5-.1,2.1l-.3.3c.1.2.2.3.2.5a1.5,1.5,0,0,1,1.4-.5c.6.1.9-.2,1.3-.7s.9-.3,1.2.1,1.1.2,1.2-.3a.8.8,0,0,0-.7-1.1c-.6,0-.8.6-1.3.7s-.6.7-1.1.9-1.4.3-1.3-.3.8.2,1.3-.2,1-1.3,1.6-1.3a7.4,7.4,0,0,1,1.5,0c.5.2.7.5,1.1.2s.5-.5.3-1-.5-.5-1-.5-.4.8-.5,1-1.4-.1-1.8.1-1.4,1.7-2.5,1.4.9-1.2,1.3-1.9a2.5,2.5,0,0,1,2.1-1.2c.8.1,1.1-1.2,1.7-1.5s2.5-.3,1.8-1.4-2.5-.2-1.9,1-1.3,1.8-2.4,1.4.1-3,0-4.3,1.3-1.4,1.8-2.4a1.4,1.4,0,0,0,2-1.9A1.4,1.4,0,0,0,67,22.4c-.5.7-1.6,1.1-2,1.9s.2,1.9,0,2.7.3,1.9,0,2.6-1.1.9-1.5,1.4a28.1,28.1,0,0,1,.1-2.9c.8-.6.7-1.1.7-2a1.8,1.8,0,0,0-.8-1.9c-.7-.7.2-1.1.9-.9s.9-1.4.2-1.6-1.5.4-1.1,1.2c-1.4.7.2,1.5.5,2.2s0,1.1.1,1.7-.4.7-.7,1.1,0,1.2-.1,1.7.1,1.3-.1,1.7-.2.4-.4.4-.1-.9,0-1.2a7.5,7.5,0,0,1,0-1.5c0-.4-.2-1.2,0-1.5a1.4,1.4,0,0,0-.2-2.7c0-1-.3-2.5.6-3.1s1-1.2,1.8-1.8a1.3,1.3,0,0,0,1.2.1.8.8,0,0,0,.2-1.1,1,1,0,0,0-1-.4c-.5.1-.4.7-.5,1m.9-.7c.7.1.4,1.2-.3,1a.5.5,0,0,1,.3-1m2.7,2a.9.9,0,0,1-.5,1.7.9.9,0,1,1,.5-1.7m-4,1.2c.6.2.2,1.2-.4.9s-.3-1.2.4-.9m-1.9,3.3c1.1.3.5,2-.6,1.6s-.4-1.9.6-1.6M69,26.9c.8.2.4,1.7-.5,1.3a.7.7,0,0,1,.5-1.3m-1,3.9c.6.1.5,1.2-.2,1s-.4-1.1.2-1m-1.4,1.5c.6.1.4,1.2-.2,1A.5.5,0,1,1,66.6,32.3Z" transform="translate(11.5 12.7)"/><path class="cls-16" d="M65.8,18.8a.5.5,0,0,0-.3,1C66.2,20,66.5,18.9,65.8,18.8Z" transform="translate(11.5 12.7)"/><path class="cls-17" d="M41.8,19.1a.5.5,0,1,0-.2,1C42.2,20.3,42.4,19.2,41.8,19.1Z" transform="translate(11.5 12.7)"/><path class="cls-18" d="M56.6,19.1a.6.6,0,0,0-.5,1C56.7,20.5,57.2,19.4,56.6,19.1Z" transform="translate(11.5 12.7)"/><path class="cls-19" d="M62.3,22.1c.2-.5,1.1-.7,1.3-1.2s1.1-.8,1.3-1.4-1.1.8-1.3,1.3S62.4,21.6,62.3,22.1Z" transform="translate(11.5 12.7)"/><path class="cls-20" d="M41.6,21.3c-.1-.4.1-.6-.1-.9S41.5,21,41.6,21.3Z" transform="translate(11.5 12.7)"/><path class="cls-4" d="M68.5,20.8a.9.9,0,1,0-.5,1.7A.9.9,0,0,0,68.5,20.8Z" transform="translate(11.5 12.7)"/><path class="cls-17" d="M64.5,22c-.7-.3-1.1.7-.4.9S65.1,22.2,64.5,22Z" transform="translate(11.5 12.7)"/><path class="cls-7" d="M50.4,22.1c-.6-.2-1,.8-.4,1.1S51,22.3,50.4,22.1Z" transform="translate(11.5 12.7)"/><path class="cls-13" d="M53.3,24.6a4.9,4.9,0,0,0,0-2.4c.1.4-.1.9,0,1.3A4.1,4.1,0,0,1,53.3,24.6Z" transform="translate(11.5 12.7)"/><path class="cls-21" d="M44.6,23.9a10.6,10.6,0,0,0-1.5-1.5Z" transform="translate(11.5 12.7)"/><path class="cls-22" d="M58.3,24.6c-.5-.6-1-1.1-.7-2C57.2,23.5,57.7,24.1,58.3,24.6Z" transform="translate(11.5 12.7)"/><path class="cls-23" d="M56.5,23.9v-1A1.7,1.7,0,0,0,56.5,23.9Z" transform="translate(11.5 12.7)"/><path class="cls-3" d="M40.9,32.9a7,7,0,0,1-2.9-.1l-1.7-1.6a1.5,1.5,0,0,0-.7-2.2,1.3,1.3,0,0,0-1.8,1.4c.1,1.1,1.1,1.2,1.9,1.2s1.5,1.4,2.1,1.8a7.1,7.1,0,0,1,2.9,0c.4.2.8.8,1.1,1.1a2.9,2.9,0,0,1,1.1,1.1c.3.7-.1,1.7.1,2.5s.2-.1.2.1.4,0,.6,0a3,3,0,0,1-.3-2.1c.1-.8-.4-1-.8-1.6s.1-1.6-.1-2.3.2-1.7,0-2.4-1.3-.9-1.5-1.5-1.3-.9-1.4-1.5a.9.9,0,0,0-1.3-1.1c-.7.6.2,1.8,1,1.3s1.1,1,1.5,1.5,1.1.8,1.4,1.4a7.4,7.4,0,0,1,0,2.1,16.1,16.1,0,0,1,0,2.2l-.3-.3c-.2-1.1.4-2.7-.2-3.7s-1.3-.9-1.9-1.9-2.2-.1-2.6-1.2c1.1-.3.2-2.2-.7-1.5s.1,1.4.7,2,2,.2,2.5,1,1.2.9,1.7,1.7,0,2.3.2,3.3a.2.2,0,0,1-.2-.2c-.4-.8.1-1.9-.1-2.7s-.8-.8-1.1-1.1a5.2,5.2,0,0,0-1.1-1c-.5-.2-1.2.1-1.7-.1l-1.4-1.3c-.3-.3-1.3-1.1-.8-1.4s1.2-.7,1.1-1.5A1.5,1.5,0,0,0,35,23.2a1.4,1.4,0,0,0-1.3,1.3,1.2,1.2,0,0,0,1.2,1.3c-.1,1.1.9,1.1,1.4,2a2.3,2.3,0,0,0,2.3,1c1-.1,1.1,1,1.9,1.5s.7,1.9.7,2.7h-.3m-5.7-9.3c1.1.2.8,2.1-.3,1.8s-.8-1.9.3-1.8m3.9,2.1c.6.2.5,1.3-.2,1.1s-.4-1.2.2-1.1m-1.9.1c.6.2.3,1.3-.3,1s-.3-1.2.3-1m-1.7,3.6c1,.3.5,2-.6,1.7A.9.9,0,0,1,35.5,29.4Z" transform="translate(11.5 12.7)"/><path class="cls-5" d="M35.2,23.6c-1.1-.1-1.5,1.6-.3,1.8S36.3,23.8,35.2,23.6Z" transform="translate(11.5 12.7)"/><path class="cls-24" d="M65,29.6c.3-.7-.1-1.8,0-2.6s-.2-1.9,0-2.7c-.3.8.1,1.8,0,2.6S65.2,28.8,65,29.6Z" transform="translate(11.5 12.7)"/><path class="cls-25" d="M45.7,25.9c0-.3.1-.7-.1-.9S45.5,25.7,45.7,25.9Z" transform="translate(11.5 12.7)"/><path class="cls-26" d="M58.7,26l-1.1-1C57.7,25.1,58.6,26.1,58.7,26Z" transform="translate(11.5 12.7)"/><path class="cls-27" d="M29.4,26.8V25.1A4.8,4.8,0,0,0,29.4,26.8Z" transform="translate(11.5 12.7)"/><path class="cls-19" d="M63.2,31.3c.2-.4,0-1.2.1-1.7s-.2-1.3.1-1.7.8-.6.7-1.1.1-1.2-.1-1.7-.1,1.3,0,1.8-.5.6-.7,1,0,1.2-.1,1.7S63.4,30.8,63.2,31.3Z" transform="translate(11.5 12.7)"/><path class="cls-28" d="M74.2,26.9a5.4,5.4,0,0,0,0-1.8Z" transform="translate(11.5 12.7)"/><path class="cls-5" d="M62.6,25.3c-1-.3-1.7,1.2-.6,1.6S63.7,25.6,62.6,25.3Z" transform="translate(11.5 12.7)"/><path class="cls-8" d="M39.1,25.7c-.6-.1-.9,1-.2,1.1S39.7,25.9,39.1,25.7Z" transform="translate(11.5 12.7)"/><path class="cls-18" d="M37.2,25.8c-.6-.2-1,.8-.3,1S37.8,26,37.2,25.8Z" transform="translate(11.5 12.7)"/><path class="cls-5" d="M45.8,26.4c-1.2-.4-1.6,1.4-.5,1.7A.9.9,0,0,0,45.8,26.4Z" transform="translate(11.5 12.7)"/><path class="cls-24" d="M42.6,29.8c-.2-.6-1.1-1-1.5-1.5a19.2,19.2,0,0,0-1.4-1.5c.1.6,1.2,1,1.4,1.5S42.4,29.2,42.6,29.8Z" transform="translate(11.5 12.7)"/><path class="cls-5" d="M69,26.9a.7.7,0,0,0-.5,1.3C69.4,28.6,69.8,27.1,69,26.9Z" transform="translate(11.5 12.7)"/><path class="cls-29" d="M62.2,33.7c.3-.6,0-1.5.1-2.1V29.4c-.1-.6.2-1.6-.3-1.9s.2,1.4.2,1.9a8.1,8.1,0,0,1,0,2.2A7.4,7.4,0,0,1,62.2,33.7Z" transform="translate(11.5 12.7)"/><path class="cls-30" d="M62.8,31.7c.2-.6-.1-1.5,0-2.1s-.2-1.5,0-2.1,0,1.1,0,1.5a7.5,7.5,0,0,0,0,1.5C62.7,30.8,62.7,31.7,62.8,31.7Z" transform="translate(11.5 12.7)"/><path class="cls-31" d="M65,29.6l-1.4,1.3c.2-.9-.2-2,0-2.8a28.1,28.1,0,0,0-.1,2.9C63.9,30.5,64.7,30.2,65,29.6Z" transform="translate(11.5 12.7)"/><path class="cls-26" d="M39.2,28.6c-.5-.3-1.2.1-1.7-.1S38.7,28.4,39.2,28.6Z" transform="translate(11.5 12.7)"/><path class="cls-7" d="M54.7,28.5c-.5-.2-1,.6-.4.9S55.3,28.7,54.7,28.5Z" transform="translate(11.5 12.7)"/><path class="cls-32" d="M45.7,32.1c-.3-1,.2-2.4,0-3.4s0,1.2-.1,1.7A4.9,4.9,0,0,0,45.7,32.1Z" transform="translate(11.5 12.7)"/><path class="cls-5" d="M59.3,29.3a.9.9,0,1,0-.6,1.6A.9.9,0,0,0,59.3,29.3Z" transform="translate(11.5 12.7)"/><path class="cls-7" d="M35.5,29.4a.9.9,0,0,0-.6,1.7C36,31.4,36.5,29.7,35.5,29.4Z" transform="translate(11.5 12.7)"/><path class="cls-4" d="M48.8,29.5a1,1,0,0,0-.5,1.9C49.5,31.7,49.9,29.7,48.8,29.5Z" transform="translate(11.5 12.7)"/><path class="cls-33" d="M54.7,32.8c.2-.4-.1-1,0-1.5s-.2-1.1,0-1.5.1,1,0,1.4S54.8,32.4,54.7,32.8Z" transform="translate(11.5 12.7)"/><path class="cls-21" d="M42,33.9l.3.3a16.1,16.1,0,0,0,0-2.2,7.4,7.4,0,0,0,0-2.1v4.2C42.2,34,42,34,42,33.9Z" transform="translate(11.5 12.7)"/><path class="cls-16" d="M53.4,29.9c-.6-.1-.8.9-.2,1S54,30,53.4,29.9Z" transform="translate(11.5 12.7)"/><path class="cls-34" d="M41.5,33.4c-.3-.8.2-1.9-.1-2.7C41.6,31.5,41.1,32.6,41.5,33.4Z" transform="translate(11.5 12.7)"/><path class="cls-7" d="M68,30.8c-.6-.1-.9.9-.2,1S68.6,30.9,68,30.8Z" transform="translate(11.5 12.7)"/><path class="cls-24" d="M53.1,32.8a1.8,1.8,0,0,0-.1-1.6A2.9,2.9,0,0,1,53.1,32.8Z" transform="translate(11.5 12.7)"/><path class="cls-35" d="M35.7,31.6c.8.1,1.3,1.5,2.1,1.8h0C37.2,33,36.3,31.5,35.7,31.6Z" transform="translate(11.5 12.7)"/><path class="cls-15" d="M65.3,31.6c.4-.2,1.5.2,1.8-.1S65.8,31.3,65.3,31.6Z" transform="translate(11.5 12.7)"/><path class="cls-8" d="M66.6,32.3a.5.5,0,1,0-.2,1C67,33.5,67.2,32.4,66.6,32.3Z" transform="translate(11.5 12.7)"/><path class="cls-36" d="M14.4,42.2h1.5c.9.1,1.3,0,1.5-1s0-1.5-1-1.6h-.9a24,24,0,0,0-2.8.3,15.9,15.9,0,0,1,.7-2,9.1,9.1,0,0,0,5.4-.7c1.4-.8,2.8-2.4,2.1-4s-3.7-.7-4.1.7-.5.8-1.2.8L13,34.5a7.5,7.5,0,0,0-2.6.1c-.7.4.3,1.3-.1,1.9a17.2,17.2,0,0,0-.7,2.1,16.3,16.3,0,0,0-.9,1.9l-.8,2c-.2.6-.5,1.3-.8,2l-.6,2.1c-.1.7-.3,1.7.3,2.3a2.8,2.8,0,0,0,2.2.4,10.1,10.1,0,0,1,2.5-.2c.8,0,1.8-.5,2.6-.2a1,1,0,0,0,1.5-.8c.3-.7.5-1.6-.3-2a3.9,3.9,0,0,0-2.4-.3,19.5,19.5,0,0,0-2.5.2c.3-1,.7-1.8,1-2.8S13.4,42.2,14.4,42.2Z" transform="translate(11.5 12.7)"/><path class="cls-29" d="M40.9,32.9H39.5a7.5,7.5,0,0,1-1.5,0A7,7,0,0,0,40.9,32.9Z" transform="translate(11.5 12.7)"/><path class="cls-26" d="M37.8,33.4a28.1,28.1,0,0,1,2.9,0,7.1,7.1,0,0,0-2.9,0Z" transform="translate(11.5 12.7)"/><path class="cls-37" d="M64.5,34.3c-.3.3-1.1,0-1.4.1s-.8.5-.7,1,.5-.6.8-.7,1.1-.2,1.3,0,.7.7,1.1.4.6-.4.5-.9-.4-.6-.9-.7-.5.6-.7.8m1-.5c.6.3.2,1.3-.4,1S64.9,33.6,65.5,33.8Z" transform="translate(11.5 12.7)"/><path class="cls-17" d="M65.5,33.8c-.6-.2-1.1.7-.4,1S66.1,34.1,65.5,33.8Z" transform="translate(11.5 12.7)"/><path class="cls-38" d="M57.6,34.2h.9A2.7,2.7,0,0,0,57.6,34.2Z" transform="translate(11.5 12.7)"/><path class="cls-36" d="M53.6,46.5v.8c0,.9.9,1.4,1.6,1.5s2.2,0,2.1-.9a5.3,5.3,0,0,1,.4-2.5,15.5,15.5,0,0,1,.8-2.3c.5-.7.5-1.4,1.3-1.7s.4,1,0,1.6a14.3,14.3,0,0,0-.8,2.2,3.1,3.1,0,0,0-.2,2.5,1.7,1.7,0,0,0,1.8,1.1c1,.1,1.9-.2,1.7-1.2s.4-1.7.5-2.5.6-1.5.8-2.3.7-1.7.2-2.5a2.1,2.1,0,0,0-2.1-.9,5.4,5.4,0,0,0-2.2.9,25,25,0,0,1,.9-2.5,4,4,0,0,0,.5-2.6c-.4-.9-1.6-1-2.4-1h-.9c-.9.3.1,1.2-.4,1.9a17.2,17.2,0,0,0-.7,2.1,11.9,11.9,0,0,0-.8,2,15.9,15.9,0,0,1-.7,2,17.2,17.2,0,0,0-.7,2.1A8.1,8.1,0,0,0,53.6,46.5Z" transform="translate(11.5 12.7)"/><path class="cls-39" d="M63.1,34.4c.3-.1,1.1.2,1.4-.1S63.5,34.2,63.1,34.4Z" transform="translate(11.5 12.7)"/><path class="cls-3" d="M55.6,34.9a1.6,1.6,0,0,0-.7.7,1.4,1.4,0,0,0-2.2.8,1.6,1.6,0,0,0,1.7,1.8c.6-.4,1.4-1.4.8-2.2s.7-.7.4-1.1m-1.2,1c1,.2.5,2-.6,1.6S53.2,35.6,54.4,35.9Z" transform="translate(11.5 12.7)"/><path class="cls-3" d="M41.1,38.2c-.5-.4-.7-.7-.5-1.3a1.2,1.2,0,0,0-.7-1.4,1.4,1.4,0,0,0-1.6.4,1.4,1.4,0,0,0-.1,1.6c.4.4.9.8,1.5.5s.8.4,1.4.2m-1.6-2.4c1.1.2.8,2.1-.4,1.8A.9.9,0,0,1,39.5,35.8Z" transform="translate(11.5 12.7)"/><path class="cls-40" d="M43.2,38.2c0-.2-.2-.1-.2-.1s.2-1.8-.1-2.5-.1,1,0,1.5S42.7,38,43.2,38.2Z" transform="translate(11.5 12.7)"/><path class="cls-4" d="M39.5,35.8a.9.9,0,0,0-.4,1.8C40.3,37.9,40.6,36,39.5,35.8Z" transform="translate(11.5 12.7)"/><path class="cls-5" d="M54.4,35.9c-1.2-.3-1.7,1.2-.6,1.6S55.4,36.1,54.4,35.9Z" transform="translate(11.5 12.7)"/><path class="cls-41" d="M88,36.6c-.7-.1-2.8.2-2.8,1.3s1.9,1.2,2.8.8S89.6,36.8,88,36.6Z" transform="translate(11.5 12.7)"/><path class="cls-42" d="M47.1,37.9c.8-.1.1-1.1-.4-1.1s-1.3,1.1-.5,1.2S47.6,36.9,47.1,37.9Z" transform="translate(11.5 12.7)"/><path class="cls-36" d="M18.1,48.8a3.4,3.4,0,0,0,1,0c1.2.3,1.1-1,1.1-1.8a10.5,10.5,0,0,1,.6-2.4,12.1,12.1,0,0,1,.9-2c.2-.6,1.1-1.8,1.4-1.1s-.5,1.6-.7,2.3a15.5,15.5,0,0,0-.7,2.3c-.1.7-.4,1.7.4,2.2a2.9,2.9,0,0,0,2.4.5c1-.2.6-1.5.8-2.2s.5-1.6.7-2.4.5-1.5.8-2.2.3-1.8-.5-2.2a3.1,3.1,0,0,0-2.5-.2,4.5,4.5,0,0,0-1.9,1.1c-.1-.9-1.1-1.1-1.9-1.2s-2.1-.2-1.7.7-.3,1.4-.5,2.3-.6,1.4-.8,2.3a5.6,5.6,0,0,0-.5,2.5A1.6,1.6,0,0,0,18.1,48.8Z" transform="translate(11.5 12.7)"/><path class="cls-36" d="M45.9,48.8a2.7,2.7,0,0,0,.9,0c1.7.4,1-1.6,1.4-2.5a19.9,19.9,0,0,1,.9-2.9c.5-.9.7-2,1.8-2.1a4.6,4.6,0,0,1-.7,2.6,13.8,13.8,0,0,0-.8,2.7,1.8,1.8,0,0,0,1.2,2.1c.7.2,2.4.3,2.5-.6a9,9,0,0,1,.4-2.8,18.3,18.3,0,0,0,.8-2.5c.3-.8.8-1.9.2-2.7s-1.8-.7-2.7-.5a4.3,4.3,0,0,0-2.1,1.1c-.3-1.4-2.2-1.3-3.3-1.3s.1,1.1-.2,1.5-.3,1.2-.6,1.7-.3,1.1-.6,1.7a9.5,9.5,0,0,0-.6,1.8,3.1,3.1,0,0,0,.1,1.9A1.4,1.4,0,0,0,45.9,48.8Z" transform="translate(11.5 12.7)"/><path class="cls-36" d="M85.8,39.4c-.9-.1-2.1,0-1.6.8s-.5,1.3-.6,2-.6,1.3-.7,2a8.6,8.6,0,0,0-.7,2.1c-.1.8-.2,1.7.6,2.2a3.5,3.5,0,0,0,2.3.2c.9-.1.6-1.4.7-2.1l.7-2.1.8-2a2.8,2.8,0,0,0,.3-2.2C87.3,39.7,86.4,39.5,85.8,39.4Z" transform="translate(11.5 12.7)"/><path class="cls-36" d="M78,40.7c-.2-.9-1.1-1-1.9-1.1s-2.2-.2-1.7.7-.4,1.4-.5,2.2a21.8,21.8,0,0,1-.9,2.3,10.1,10.1,0,0,0-.5,2.5c-.1.8.8,1.5,1.5,1.5s2.2.3,2.3-.6a5.7,5.7,0,0,1,.3-2.6,15.5,15.5,0,0,1,.7-2.3c.5-.7.4-1.5,1.2-1.9s.5,1.6-.3,1.7c1.4,1.5,4.8.5,4.8-1.9S79.1,39.1,78,40.7Z" transform="translate(11.5 12.7)"/><path class="cls-43" d="M15.5,39.6h0Z" transform="translate(11.5 12.7)"/><path class="cls-36" d="M35.5,45.3v1a2.3,2.3,0,0,0,1.1,2,5.3,5.3,0,0,0,2.4.8,8.2,8.2,0,0,0,2.7-.6,4.4,4.4,0,0,0,1.8-1.2c.5-.5,1-1.9.3-2.2s-1.3.9-2,.8-1.8.7-2.5-.3,1-.7,1.8-.7a5.1,5.1,0,0,0,2.4-.7A3.3,3.3,0,0,0,45,42.6a1.8,1.8,0,0,0-.3-2.3,3,3,0,0,0-2.4-.7,7.3,7.3,0,0,0-4.5,1.8A4.6,4.6,0,0,0,36.3,43a4.9,4.9,0,0,0-.8,2.3m4.7-2.2c0-.3,1-1.5,1.4-1S40.6,43.3,40.2,43.1Z" transform="translate(11.5 12.7)"/><path class="cls-36" d="M67.9,46.5A2.3,2.3,0,0,0,69.2,49c1.1.2,2.5.1,2.4-1a8.3,8.3,0,0,1,.7-3.2,14.8,14.8,0,0,1,1-2.7c.4-.9.9-2.2-.3-2.4a14.5,14.5,0,0,0-3.6,0,10.2,10.2,0,0,0-2.6,1.1,6.9,6.9,0,0,0-1.9,1.9A8.3,8.3,0,0,0,63.4,45a3.7,3.7,0,0,0,0,3.1c.6,1,2,.7,2.7.2a5.2,5.2,0,0,0,1.8-1.8m1.3-4.4A7.7,7.7,0,0,1,68,44.5c-.4.7-.7.4-.5-.4A3.7,3.7,0,0,1,69.2,42.1Z" transform="translate(11.5 12.7)"/><path class="cls-36" d="M91.3,46.4a2,2,0,0,0,1.3,2.5c1.1.3,2.5.2,2.4-1a10.1,10.1,0,0,1,.7-3.1,23.1,23.1,0,0,1,1-2.8c.4-.9.9-2.2-.4-2.3a13.6,13.6,0,0,0-3.5,0,6.6,6.6,0,0,0-2.7,1.2,10.7,10.7,0,0,0-1.9,1.8,9.5,9.5,0,0,0-1.4,2.4,3.7,3.7,0,0,0,0,3.1c.6.9,2,.6,2.8.1a5.2,5.2,0,0,0,1.7-1.9m1.3-4.3a6.2,6.2,0,0,1-1.7,2.8A2.9,2.9,0,0,1,92.6,42.1Z" transform="translate(11.5 12.7)"/><path class="cls-36" d="M33.4,48.9a18,18,0,0,1,1-3.3c.4-.9.9-2.2,1.3-3s1.2-2.5,0-2.8a10.6,10.6,0,0,0-4,.2,5,5,0,0,0-2.9,1.4,8.7,8.7,0,0,0-2,2.3,6.4,6.4,0,0,0-1,3.3A1.6,1.6,0,0,0,28,48.8a5.1,5.1,0,0,0,2.4-1.9c-.3.7-.3,1.8-1.2,1.9a2.6,2.6,0,0,0-1.9,1.3,1.2,1.2,0,0,0,.4,1.9,4.4,4.4,0,0,0,2.8-.1,3.8,3.8,0,0,0,1.8-1.3l1.9.4a4.5,4.5,0,0,0,2,0l1.5-.8c.6-.5.3-1-.5-.7s-1.3-.1-2-.2-1.1-.4-1.8-.4M32,42.1a11.2,11.2,0,0,1-1.3,2.4c-.5.8-.6.1-.5-.4a4.7,4.7,0,0,1,.7-1.2,2.3,2.3,0,0,1,1.1-.8m-2.9,8.1c0,.1-.3.8-.5.5S28.8,50,29.1,50.2Z" transform="translate(11.5 12.7)"/><path class="cls-44" d="M40.2,43.1c.4.2,1.8-.6,1.4-1S40.2,42.8,40.2,43.1Z" transform="translate(11.5 12.7)"/><path class="cls-44" d="M32,42.1a2.3,2.3,0,0,0-1.1.8,4.7,4.7,0,0,0-.7,1.2c-.1.5,0,1.2.5.4A11.2,11.2,0,0,0,32,42.1Z" transform="translate(11.5 12.7)"/><path class="cls-45" d="M69.2,42.1a3.7,3.7,0,0,0-1.7,2c-.2.8.1,1.1.5.4A7.7,7.7,0,0,0,69.2,42.1Z" transform="translate(11.5 12.7)"/><path class="cls-45" d="M92.6,42.1a2.9,2.9,0,0,0-1.7,2.8A6.2,6.2,0,0,0,92.6,42.1Z" transform="translate(11.5 12.7)"/><path class="cls-46" d="M14.4,42.2h0Z" transform="translate(11.5 12.7)"/><path class="cls-47" d="M35.5,46.3v-1A3.4,3.4,0,0,0,35.5,46.3Z" transform="translate(11.5 12.7)"/><path class="cls-48" d="M53.6,47.3v0Z" transform="translate(11.5 12.7)"/><path class="cls-49" d="M19.1,48.8a3.4,3.4,0,0,1-1,0A1.7,1.7,0,0,0,19.1,48.8Z" transform="translate(11.5 12.7)"/><path class="cls-38" d="M46.8,48.8a2.7,2.7,0,0,1-.9,0A1.4,1.4,0,0,0,46.8,48.8Z" transform="translate(11.5 12.7)"/><path class="cls-50" d="M29.1,50.2c-.3-.2-.8.3-.5.5S29.1,50.3,29.1,50.2Z" transform="translate(11.5 12.7)"/><path class="cls-3" d="M61.5,54.5h15c.8.1,1.8-.1,2.5,0s1.9-.3,2.5.1.7.8,1.1.3a.7.7,0,0,0-.1-1.1c-.4-.4-.8.3-1,.4s-1.7-.1-2.4.1-1.7-.1-2.5,0h-15c-.4.1-.6-.2-1-.2s1.6-.4,2.4-.4a13.1,13.1,0,0,1,2.8-.1h8.9a28.1,28.1,0,0,1,2.9,0c.9.1,2.1-.1,3,0s2.1-.3,2.9.1.9.9,1.4.3a.8.8,0,0,0,0-1.4c-.5-.5-1,.2-1.4.4s-1.9-.1-2.8,0a15,15,0,0,1-3,0c-1,.1-2,0-3,0s-2,0-3,0-2,0-3,0-2,.1-3,0a28.1,28.1,0,0,1-2.9,0c-2.8-.6-5.8-.2-8.8-.4s-6,.2-9,.2-6.1,0-9.1,0c-.1-1-1.8-.2-1.2.5s1.1-.3,2-.2a26.1,26.1,0,0,0,2.8,0,26.2,26.2,0,0,0,2.8,0h2.9a7.7,7.7,0,0,1,2.6.3c-.9,0-1.6.4-2.6.4H42.3c-1,0-2.1.1-3,0a28,28,0,0,1-2.9,0c-1,0-2,.3-2.7-.3a.9.9,0,0,0-1.4,1,.8.8,0,0,0,1.6,0h6.2c2,0,4.1-.3,6,.1a28.9,28.9,0,0,0,5.9.2v14h2.2v-14c2.4.1,4.9,0,7.3-.1m-26-2.1c.4.2.1.9-.3.7s-.1-.8.3-.7m49,.4c.2.2.1.7-.2.5s-.1-.6.2-.5m-51.3.9c.3.1.1.7-.2.5s-.1-.6.2-.5m49.1.2c.4.2.1.9-.3.7S81.9,53.8,82.3,53.9Z" transform="translate(11.5 12.7)"/><path class="cls-51" d="M35.5,52.4c-.4-.1-.7.5-.3.7S35.9,52.6,35.5,52.4Z" transform="translate(11.5 12.7)"/><path class="cls-22" d="M83.5,52.8c-.8.2-1.8-.2-2.6,0s-1.8-.1-2.6,0H62.8a28.1,28.1,0,0,0,2.9,0c1,.1,2,0,3,0s2,.1,3,0,2,.1,3,0,2,.1,3,0a15,15,0,0,0,3,0C81.6,52.7,82.7,53.2,83.5,52.8Z" transform="translate(11.5 12.7)"/><path class="cls-52" d="M84.5,52.8c-.3-.1-.5.4-.2.5S84.7,53,84.5,52.8Z" transform="translate(11.5 12.7)"/><path class="cls-53" d="M63,53.5a22.5,22.5,0,0,1,2.6,0h7.7a22.5,22.5,0,0,1,2.6,0,20.9,20.9,0,0,1,2.5,0,22.6,22.6,0,0,1,2.6,0c.8.1,1.7-.3,2.5,0-.8-.4-2,0-2.9-.1s-2.1.1-3,0a28.1,28.1,0,0,0-2.9,0H65.8A13.1,13.1,0,0,0,63,53.5Z" transform="translate(11.5 12.7)"/><path class="cls-54" d="M33.2,53.7c-.3-.1-.5.4-.2.5S33.5,53.8,33.2,53.7Z" transform="translate(11.5 12.7)"/><path class="cls-55" d="M82.3,53.9c-.4-.1-.7.5-.3.7S82.7,54.1,82.3,53.9Z" transform="translate(11.5 12.7)"/><path class="cls-56" d="M81.5,54.1c-.6.3-1.6-.1-2.3,0s-1.4-.1-2.2,0a16.1,16.1,0,0,1-2.2,0h1.8c.8-.1,1.7.1,2.5,0S80.9,54.5,81.5,54.1Z" transform="translate(11.5 12.7)"/><path class="cls-57" d="M61.5,54.5H74.8a17.6,17.6,0,0,1,2.3,0,16.2,16.2,0,0,1,2.2,0c.7.1,1.6-.3,2.2,0s-1.7,0-2.5-.1-1.7.1-2.5,0h-15Z" transform="translate(11.5 12.7)"/><path class="cls-58" d="M26.2,56.1c-.3-1.2-1.9-1-2.8-.7s-1.4,2,0,2-.6,1.3-1.4,1.4a6.4,6.4,0,0,0-1.8,1A6.1,6.1,0,0,0,19,61.3a4,4,0,0,0-.6,2.2,1,1,0,0,0,1.5,1,2.7,2.7,0,0,0,1.5-1.3c-.2,1.4,1.3,1.9,2.4,1.3,0-2.6,1.3-4.8,2.1-7.2a9.7,9.7,0,0,0,1.8-.3c.5-.2,1.6.3,1.6-.3s-.8-.9-1.3-.8l-1.8.2m-2.4,0c.1.2,0,.6-.3.4s.2-.5.3-.4m-1.4,4.1c-.4.6-.5,1.6-1.2,1.8A2.1,2.1,0,0,1,22.4,60.2Z" transform="translate(11.5 12.7)"/><path class="cls-3" d="M34.2,64.2a4.8,4.8,0,0,1,1.2,0c.4,0,1-.2,1.3,0v1.1c-.1.3.1,1-.1,1.1H32.2a2.2,2.2,0,0,0,2.2,2.2c1.3,0,2.7.3,3.8-.5s.6-2.4.7-3.6A2.3,2.3,0,0,0,37,62a5.7,5.7,0,0,1-1.3,0c-.3,0-1,.2-1.2,0s-.1-1.1-.1-1.5V59c0-.3-.2-1.2.1-1.4s1.5,0,2.1-.1a17.6,17.6,0,0,1,2.3,0c.2-.4-.3-1.2-.6-1.5a2.3,2.3,0,0,0-1.3-.7H35.1c-.5,0-1.3-.1-1.7.2a3.2,3.2,0,0,0-1,1,5,5,0,0,0-.2,1.8v1.9a13.3,13.3,0,0,0,0,2A2.4,2.4,0,0,0,34.2,64.2Z" transform="translate(11.5 12.7)"/><path class="cls-3" d="M39.7,57.4c-.1,3-.1,6.2,0,9.2s1.9,2.1,3.3,2,3.2-.1,3.3-1.9,0-3.1,0-4.7.1-3.1,0-4.7-1.8-2-3.3-2-3.2.3-3.3,2.1m4.4.2c.3.3-.1.9,0,1.4a7.5,7.5,0,0,1,0,1.5,7.5,7.5,0,0,1,0,1.5,6.6,6.6,0,0,1,0,1.4v3H41.9V57.6c.2-.2.9-.1,1.1-.1S44,57.4,44.1,57.6Z" transform="translate(11.5 12.7)"/><path class="cls-33" d="M47,68.6V55.4h0c-.3.3.1,1.2,0,1.6a9.7,9.7,0,0,0,0,1.7,9.7,9.7,0,0,0,0,1.7v3.4a8.6,8.6,0,0,0,0,1.6,10.8,10.8,0,0,0,0,1.8C47.1,67.5,46.7,68.4,47,68.6Z" transform="translate(11.5 12.7)"/><path class="cls-59" d="M47,55.4c1.5.1,3-.1,4.4,0-.2-.3-1-.1-1.4-.1H47Z" transform="translate(11.5 12.7)"/><path class="cls-3" d="M57,55.3H54.8c.7,4.4,1.5,8.9,2.2,13.3.6-.2,2,.4,2.3-.2s.1-1.5.3-2.1.2-1.5.4-2.1a13,13,0,0,1,.4-2.1c.1,1,.4,1.8.5,2.8s.4,1.7.4,2.9,1.4.9,2.4.8c.7-4.4,1.5-8.9,2.2-13.3H63.7c-.4,2.9-.7,5.8-1.1,8.8a25.1,25.1,0,0,1-.4-2.7l-.3-2.7a26.6,26.6,0,0,1-.3-2.8c-.1-1-1.6-.5-2.4-.6-.3,2.9-.6,5.8-1.1,8.6C57.7,61,57.4,58.2,57,55.3Z" transform="translate(11.5 12.7)"/><path class="cls-3" d="M66.3,57.2c-.3,3.8.3,7.7,0,11.4h2.2c.2-.3-.2-1.1,0-1.5s-.1-1.1,0-1.5-.2-1,0-1.4.9,0,1.1,0,1-.2,1.1,0v4.4a4.1,4.1,0,0,0,1.1,0c.3-.1.8.2,1.1,0-.1-3.7.1-7.5,0-11.2-.1-1.8-1.8-2.1-3.2-2.1s-3.3.1-3.4,1.9m4.4.4c.2.3-.1,1,0,1.4s-.1,1,0,1.5a7.5,7.5,0,0,0,0,1.5H68.5V57.6c.1-.2.9-.1,1.1-.1S70.6,57.4,70.7,57.6Z" transform="translate(11.5 12.7)"/><path class="cls-3" d="M75.8,64.2a3.3,3.3,0,0,1,1.4,0c.3,1.5.5,3,.8,4.4h2.2c-.1-.9-.4-1.8-.5-2.7s-.6-1.8,0-2.5.5-1.8.5-2.8V57.5a2.2,2.2,0,0,0-1.3-2,5.7,5.7,0,0,0-2.9-.2c-.9,0-2.5-.4-2.5.7s0,2,0,3.1v9.5h2.3a7.5,7.5,0,0,1,0-1.5,7.5,7.5,0,0,1,0-1.5c.1-.4-.2-1,0-1.4M78,57.6c.2.3-.1,1,0,1.4s-.1,1,0,1.5V62H75.8V57.6c.1-.2.9-.1,1.1-.1S77.9,57.4,78,57.6Z" transform="translate(11.5 12.7)"/><path class="cls-3" d="M85.2,68.6V66.4H83V64.1h2.1V62H83a7.5,7.5,0,0,0,0-1.5c.1-.5-.1-1.1,0-1.5s-.2-1.1,0-1.4.7-.1,1-.1a4.8,4.8,0,0,1,1.2,0,3.3,3.3,0,0,0,0-1c-.1-.3.2-.9,0-1.1a32,32,0,0,0-4.4-.1V68.6a7.5,7.5,0,0,0,1.5,0,7.5,7.5,0,0,0,1.5,0C84.2,68.5,84.9,68.9,85.2,68.6Z" transform="translate(11.5 12.7)"/><path class="cls-3" d="M47,68.6h2.2V64.1h2.2V62H49.2a7.5,7.5,0,0,0,0-1.5c.1-.5-.1-1.1,0-1.5s-.2-1.1,0-1.4.8-.1,1.1-.1a4.1,4.1,0,0,1,1.1,0c.2-.2,0-.9,0-1.1s.2-.9,0-1-2.9.1-4.4,0Z" transform="translate(11.5 12.7)"/><path class="cls-60" d="M85.2,57.5h0c.2-.2.1-.9.1-1.1s.1-1-.1-1.1-.1.8,0,1.1A3.3,3.3,0,0,1,85.2,57.5Z" transform="translate(11.5 12.7)"/><path class="cls-61" d="M23.8,56.1c-.1-.1-.5.2-.3.4S23.9,56.3,23.8,56.1Z" transform="translate(11.5 12.7)"/><path class="cls-19" d="M66.2,68.6h.1c.3-3.7-.3-7.6,0-11.4a36,36,0,0,0-.1,5.7A54.2,54.2,0,0,0,66.2,68.6Z" transform="translate(11.5 12.7)"/><path class="cls-62" d="M46.3,66.7a24.6,24.6,0,0,0,.1-4.7,24.4,24.4,0,0,0-.1-4.7c.1,1.6,0,3.2,0,4.7S46.4,65.1,46.3,66.7Z" transform="translate(11.5 12.7)"/><path class="cls-63" d="M39.7,66.6c-.1-3-.1-6.2,0-9.2a35.3,35.3,0,0,0,0,4.6A35.3,35.3,0,0,0,39.7,66.6Z" transform="translate(11.5 12.7)"/><path class="cls-24" d="M72.9,68.6c.3-.2,0-1.1.1-1.5s-.1-1.2,0-1.7a8.6,8.6,0,0,1,0-1.6V60.5a8.6,8.6,0,0,1,0-1.6,7.6,7.6,0,0,0-.1-1.5C73,61.1,72.8,64.9,72.9,68.6Z" transform="translate(11.5 12.7)"/><path class="cls-64" d="M34.5,57.6a7.5,7.5,0,0,1,1.5,0,7.5,7.5,0,0,1,1.5,0c.3-.1,1.2.2,1.4-.1a17.6,17.6,0,0,0-2.3,0C36,57.6,34.9,57.1,34.5,57.6Z" transform="translate(11.5 12.7)"/><path class="cls-64" d="M41.9,57.6h2.2c-.1-.2-.8-.1-1.1-.1S42.1,57.4,41.9,57.6Z" transform="translate(11.5 12.7)"/><path class="cls-64" d="M49.2,57.6a4.8,4.8,0,0,1,1.2,0c.3-.1.9.1,1-.1a4.1,4.1,0,0,0-1.1,0C50,57.5,49.4,57.3,49.2,57.6Z" transform="translate(11.5 12.7)"/><path class="cls-64" d="M68.5,57.6h2.2c-.1-.2-.9-.1-1.1-.1S68.6,57.4,68.5,57.6Z" transform="translate(11.5 12.7)"/><path class="cls-64" d="M75.8,57.6H78c-.1-.2-.9-.1-1.1-.1S75.9,57.4,75.8,57.6Z" transform="translate(11.5 12.7)"/><path class="cls-65" d="M83,57.6a16.2,16.2,0,0,1,2.2,0h0a4.8,4.8,0,0,0-1.2,0C83.7,57.5,83.2,57.3,83,57.6Z" transform="translate(11.5 12.7)"/><path class="cls-66" d="M34.5,62V57.6c-.3.2-.1,1.1-.1,1.4v1.5C34.4,60.9,34.2,61.7,34.5,62Z" transform="translate(11.5 12.7)"/><path class="cls-67" d="M44.1,57.6H41.9v8.8h2.2v-3a6.6,6.6,0,0,0,0-1.4,7.5,7.5,0,0,0,0-1.5,7.5,7.5,0,0,0,0-1.5C44,58.5,44.4,57.9,44.1,57.6Z" transform="translate(11.5 12.7)"/><path class="cls-68" d="M70.7,57.6H68.5V62h2.2a7.5,7.5,0,0,1,0-1.5c-.1-.5.1-1.1,0-1.5S70.9,57.9,70.7,57.6Z" transform="translate(11.5 12.7)"/><path class="cls-68" d="M78,57.6H75.8V62H78V60.5c-.1-.5.1-1.1,0-1.5S78.2,57.9,78,57.6Z" transform="translate(11.5 12.7)"/><path class="cls-69" d="M27.2,62a4.5,4.5,0,0,0,2.3-.1,2.4,2.4,0,0,0,1.4-1.4,1.2,1.2,0,0,0-.6-1.7,3.3,3.3,0,0,0-2.4.1,4,4,0,0,0-1.8,1A3.1,3.1,0,0,0,25,61.5a2.7,2.7,0,0,0,0,2.3,2.2,2.2,0,0,0,1.7,1,4.6,4.6,0,0,0,2.3-.5c.6-.4,1.2-.5,1.3-1.4s-.9-.5-1.5-.2-2,.1-1.6-.7m1.5-1.8a.7.7,0,0,1-.9.7C27.9,60.6,28.2,60.1,28.7,60.2Z" transform="translate(11.5 12.7)"/><path class="cls-70" d="M22.4,60.2A2.1,2.1,0,0,0,21.2,62C21.9,61.8,22,60.8,22.4,60.2Z" transform="translate(11.5 12.7)"/><path class="cls-70" d="M28.7,60.2c-.5-.1-.8.4-.9.7A.7.7,0,0,0,28.7,60.2Z" transform="translate(11.5 12.7)"/><path class="cls-71" d="M37,62a20.9,20.9,0,0,0-2.5,0c.2.2.9,0,1.2,0A5.7,5.7,0,0,0,37,62Z" transform="translate(11.5 12.7)"/><path class="cls-39" d="M36.6,64.2h.1c-.3-.2-.9,0-1.3,0a4.8,4.8,0,0,0-1.2,0Z" transform="translate(11.5 12.7)"/><path class="cls-15" d="M68.5,64.2h2.2c-.1-.2-.9,0-1.1,0S68.6,64,68.5,64.2Z" transform="translate(11.5 12.7)"/><path class="cls-15" d="M75.8,64.2c.3.2,1.1-.2,1.4,0A3.3,3.3,0,0,0,75.8,64.2Z" transform="translate(11.5 12.7)"/><path class="cls-72" d="M36.6,66.4c.2-.1,0-.8.1-1.1V64.2h-.1C36.5,65,36.7,65.7,36.6,66.4Z" transform="translate(11.5 12.7)"/><path class="cls-73" d="M85.2,68.6c.2-.1.1-.8.1-1.1s.1-.9-.1-1.1Z" transform="translate(11.5 12.7)"/><path class="cls-74" d="M68.5,68.6H66.2c.2.2.9.1,1.2.1S68.3,68.8,68.5,68.6Z" transform="translate(11.5 12.7)"/><path class="cls-75" d="M-11.4,84.7H115V-12.5H-11.4V84.7M75.9,35.9c1.1,0,2,.6,3,.3a5,5,0,0,1,3.2-.2c2-3.8,8.9-4.2,10.3.1,1.8-.2,4.3-.3,5.8.4a4.1,4.1,0,0,1,2.6,3.8,13,13,0,0,1-1.4,4.9c-.7,1.6-.5,3.5-1.2,5.1s-2.4,2-4.1,2.3-3.7-1.1-5.4-.2c.4.9-.2,1.7.1,2.6s0,2.1,0,3-.9,1.4-.5,2.2a6.2,6.2,0,0,1,.5,2.7c.1.9-.3,1.9-.1,2.8a7.5,7.5,0,0,1,.2,3A4.6,4.6,0,0,1,88,71a4,4,0,0,1-2.1,1.2,15.1,15.1,0,0,1-3,.1c-1,.1-2.1-.1-3,0a14.6,14.6,0,0,1-3-.2c-.9-.1-1.9.5-2.8.2s-2.1.2-3.1,0a5.7,5.7,0,0,0-2.6,0,7,7,0,0,1-2.9-.2c-.9-.1-1.8.2-2.8.2s-1.9-.3-2.8-.2a7.5,7.5,0,0,1-3,.2,4.6,4.6,0,0,0-2.6,0,7.5,7.5,0,0,1-3-.2,9,9,0,0,0-2.8.2c-.9.2-2-.4-2.9-.3a9.2,9.2,0,0,1-2.9.3,9,9,0,0,1-2.8-.4c-.8-.4-1.6.1-2.4.3a10.8,10.8,0,0,1-3.1.1,11,11,0,0,1-2.6-.6A6.2,6.2,0,0,1,30,70.3a6.1,6.1,0,0,1-1.1-2.1c-1.1.1-2.3.5-3.4,0s-2.2.6-3.3.1-2.2,0-3.2-.1A5,5,0,0,1,16.2,67c-.9-.6-1-1.6-1.3-2.6s0-2.2.3-3.2a7.1,7.1,0,0,1,1.3-2.6,6.9,6.9,0,0,1,1.9-1.9c.9-.5.6-1.9,1.2-2.7a7.6,7.6,0,0,1,2.1-1.9c-1.6,0-3.3.9-4.9.1-1.5,1-3.7.2-5.4.5A11,11,0,0,1,6,52.6a4.6,4.6,0,0,1-3-3.2,8.9,8.9,0,0,1,.4-5.1c.6-1.6,1-3.1,1.7-4.6s1.5-3,1.3-4.6a4.1,4.1,0,0,1,2.5-3.8,12.6,12.6,0,0,1,5.5-.3,6.7,6.7,0,0,1,7.2-1.8,5.3,5.3,0,0,1,2.8,6.6,9.7,9.7,0,0,1,3.4.6A26.3,26.3,0,0,1,51.4-.2,26.3,26.3,0,0,1,72.9,10.6C78,17.5,79.5,27.8,75.9,35.9Z" transform="translate(11.5 12.7)"/><path class="cls-76" d="M75.9,35.9c3.6-8.1,2.1-18.4-3-25.3a26,26,0,0,0-42.5.5,26.5,26.5,0,0,0-2.6,25.3,9.7,9.7,0,0,0-3.4-.6,5.3,5.3,0,0,0-2.8-6.6A6.7,6.7,0,0,0,14.4,31a12.6,12.6,0,0,0-5.5.3,4.1,4.1,0,0,0-2.5,3.8c.2,1.6-.6,3.1-1.3,4.6s-1.1,3-1.7,4.6A8.9,8.9,0,0,0,3,49.4a4.6,4.6,0,0,0,3,3.2,11,11,0,0,0,5.4.1c1.7-.3,3.9.5,5.4-.5,1.6.8,3.3-.1,4.9-.1A7.6,7.6,0,0,0,19.6,54c-.6.8-.3,2.2-1.2,2.7a6.9,6.9,0,0,0-1.9,1.9,7.1,7.1,0,0,0-1.3,2.6c-.3,1-.7,2.3-.3,3.2s.4,2,1.3,2.6A5,5,0,0,0,19,68.2c1,.1,2.1-.3,3.2.1s2.3-.6,3.3-.1,2.3.1,3.4,0A6.1,6.1,0,0,0,30,70.3a6.2,6.2,0,0,0,1.8,1.4,11,11,0,0,0,2.6.6,10.8,10.8,0,0,0,3.1-.1c.8-.2,1.6-.7,2.4-.3a9,9,0,0,0,2.8.4,9.2,9.2,0,0,0,2.9-.3c.9-.1,2,.5,2.9.3a9,9,0,0,1,2.8-.2,7.5,7.5,0,0,0,3,.2,4.6,4.6,0,0,1,2.6,0,7.5,7.5,0,0,0,3-.2c.9-.1,1.8.2,2.8.2s1.9-.3,2.8-.2a7,7,0,0,0,2.9.2,5.7,5.7,0,0,1,2.6,0c1,.2,2.1-.2,3.1,0s1.9-.3,2.8-.2a14.6,14.6,0,0,0,3,.2c.9-.1,2,.1,3,0a15.1,15.1,0,0,0,3-.1A4,4,0,0,0,88,71a4.6,4.6,0,0,0,.9-2.3,7.5,7.5,0,0,0-.2-3c-.2-.9.2-1.9.1-2.8a6.2,6.2,0,0,0-.5-2.7c-.4-.8.5-1.3.5-2.2s.4-2.1,0-3,.3-1.7-.1-2.6c1.7-.9,3.8.5,5.4.2s3.5-.6,4.1-2.3.5-3.5,1.2-5.1a13,13,0,0,0,1.4-4.9,4.1,4.1,0,0,0-2.6-3.8c-1.5-.7-4-.6-5.8-.4-1.4-4.3-8.3-3.9-10.3-.1a5,5,0,0,0-3.2.2c-1,.3-1.9-.3-3-.3M74.2,25.1a5.4,5.4,0,0,1,0,1.8,14.5,14.5,0,0,1-.3,3,21.4,21.4,0,0,1-.6,2.7c-.3.9-.6,1.6-.9,2.4a22.6,22.6,0,0,0-1.1,2.2A2.3,2.3,0,0,1,69,38.3c6.2-8.5,4.7-20.9-3.1-28a21.2,21.2,0,0,0-28.1,0c-7.9,7-9.5,19.4-3.2,27.9-.8.1-1.7.2-2-.5s-.7-1.1-1-1.8-.6-1.3-.8-2-.5-1.4-.7-2.1a20.5,20.5,0,0,1-.5-2.4,11,11,0,0,1-.2-2.6,4.8,4.8,0,0,1,0-1.7c0-11.9,10.7-21.6,22.4-21.6s22.4,9.7,22.4,21.6M53.1,32.8a2.9,2.9,0,0,0-.1-1.6c-.3-.4-.8-.8-.4-1.3a.8.8,0,1,1,.9,1.3c0,.6.2,1.7-.4,2.1s-1.1.8-1,1.6L54,33.1c.7-.7.2-2.4.4-3.3a.8.8,0,1,1,.3,0c-.2.4.1,1.1,0,1.5s.2,1.1,0,1.5-1,.8-1.3,1.3-1.1.7-1.3,1.3a22.6,22.6,0,0,0,0,2.6l-.9.2V34.8c0-1.1.1-2.4,0-3.4s.2-2.4-.1-3.2-1.4-1-1.8-1.8-1.5-.9-1.5-1.8-.1-1.9-1-2.4S46,21,45.1,20.5s-.4-1.7-1.2-2.2-.2-1.8-1-2.4-1-1.1-1.7-1.7-1.9-.3-1.3-1.2,1.8.1,1.4,1,1,1.2,1.9,1.8.2,2,1.3,2.5V11.7a.9.9,0,0,1,0-1.7c1,0,1.2,1.5.3,1.7s-.1,2.9,0,4.2-.3,2.9.2,4.1a12.2,12.2,0,0,0,.1-2.7,1.9,1.9,0,0,1,1-1.9.8.8,0,0,1,1.2-1.1c.7.6-.2,1.7-1,1.2s-.8,2.9-.9,4.3,1.7,1.8,2.4,2.8a11.3,11.3,0,0,1,0-2.6c.1-.8-.9-.8-1.1-1.6A1.4,1.4,0,0,1,47.9,17c.6,0,1.4.8,1.2,1.4s-1,1-.8,1.8a22.5,22.5,0,0,1,0,2.6c.1.8-.2,1.7.4,2.2s.7.9,1.3,1.3V23.5c-1-.2-.7-1.8.3-1.7a.9.9,0,0,1,0,1.7c.3,1.3-.6,3.2.9,3.9,0-1.2,1.4-1.8,2.1-2.8a4.1,4.1,0,0,0,0-1.1c-.1-.4.1-.9,0-1.3s-1.3-1-1.8-1.8.1-2.5-.2-3.3-1.3-1-1.8-1.8-1.5-1-1.4-2,.2-2.3-.6-3,.4-2.1,1.3-1.5a1,1,0,0,1-.3,1.9c0,1.2-.3,2.9.6,3.6s1.2,1.4,2.2,2.1V13.3a1.5,1.5,0,0,1-1.2-1.7,1.5,1.5,0,0,1,1.8-1.1,1.5,1.5,0,0,1,1,1.7c-.3.8-1.3,1-1.1,1.9a28.1,28.1,0,0,1,0,2.9,28.1,28.1,0,0,1,0,2.9c.2.8,1.1.8,1.5,1.4s0-1.5,0-2.2a8.9,8.9,0,0,1,0-2.3c.2-.5,1-1.1,1.4-1.5s1.2-.9,1.2-1.8.1-1.8-.8-2.2-.7-1.5-.4-2.2a2,2,0,0,1,2.1-.8A1.8,1.8,0,0,1,58.1,10a1.8,1.8,0,0,1-1.3,1.7c-.1,1.1.2,2.5-.5,3.3s-1.3,1.1-1.9,1.9-.1,2.6-.2,3.7.1,2.6,0,3.7-.8,1.5-1.6,2.3-.5,2.1-.5,3.3v3.9c.4-.2.7-.7,1-1m3.4-9.9v1c.2.4.8.7,1.1,1.1l1.1,1c.2-.5-.2-1-.4-1.4s-1.1-1.1-.7-2,.7-.7,1-1l1-1.1a1.4,1.4,0,0,0,.7-1.3c-.1-.6.1-1.5,0-2s-.2-1.3.4-1.5a.9.9,0,0,1,1.2.9c0,.6-.7.6-1.2.7s.2,1.9-.1,2.6-1,.9-1.4,1.4-1,.8-1.4,1.4.3,1.6.9,1.9.6-1.5,1.2-2.1,1-1.1,1.7-1.7.7-1.9.6-2.8.9-1.4,1.4-2a1.4,1.4,0,0,1,2.5-1.1,1.5,1.5,0,0,1-2.3,1.7c-.5.5-1,.9-1,1.6s.2,2-.3,2.5L61.2,22l-1.4,1.4a2.5,2.5,0,0,0-.6,2.1,26.1,26.1,0,0,1,0,2.8c0,.8,1,.7,1.1,1.5a1.5,1.5,0,0,1-1.1,1.7,1.2,1.2,0,0,1-1.4,1.2c.2-.4,1.2-1,.7-1.3s-1-.7-.9-1.3a1.3,1.3,0,0,1,1.1-1.3c-.2-.7.3-2-.3-2.6s-.7-.9-1.4-1.4a2,2,0,0,1-.8-2c0-.9.2-2-.4-2.5a.8.8,0,1,1,.7.2v1a21.3,21.3,0,0,0,2.2-2.1,2.1,2.1,0,0,0-.5-3,.8.8,0,0,1-1.3-.9c.2-.8,1.5-.7,1.5,0a1.9,1.9,0,0,0,.9,1.6,3.4,3.4,0,0,1,0,2c-.3.7-1.1,1-1.5,1.6s-1.4,1-1.3,1.7a8.5,8.5,0,0,0,1.7-1.6c.6-.6,1.5-1,1.5-2V15.4c-1-.2-.7-1.7.2-1.7a.9.9,0,0,1,.1,1.7V19c0,1-1.1,1.3-1.6,2.1s-1.3,1.1-1.9,1.8M41.6,21.3c-.1-.3,0-.7-.1-.9s-.8-.4-.7-.9a.8.8,0,0,1,.8-.7.8.8,0,0,1,.9.7c.1.3-.2.9-.6.9s.8,1.3,1.2,2a10.6,10.6,0,0,1,1.5,1.5,5.2,5.2,0,0,1,1,1.1c.2.2.1.6.1.9s.8.1,1,.7a1.7,1.7,0,0,1,0,1.4c-.2.5-.7.4-1,.7s-.3,2.4,0,3.4,1.1,1,1.6,1.6a11.4,11.4,0,0,0,1.6,1.5V32.3a2.2,2.2,0,0,1-2.2-1.4A1.9,1.9,0,0,1,48,28.7a1.9,1.9,0,0,1,2.3,1.1c.4,1-.5,1.7-.6,2.7s.2,2.4,0,3.5.6,1.5,1.3,2.2-1.5,0-1.9-.7-.3-1.6-1.1-2.2a12.1,12.1,0,0,1-1.6-1.6c-.6-.6-1.2-.9-1.3-1.8s0-2.4,0-3.3-.7-1.2-1.2-1.6-.9-1.3-1.6-1.3-1.7.1-2.1-.6-1.1-.8-1.3-1.6.2-2-.1-2.7-1-.8-1.4-1.4c-1.3.9-2.9-1.1-1.7-2.2a1.5,1.5,0,0,1,2.2,1.9c.5.6,1.4,1,1.5,1.9s-.3,2.3.5,3,1.2,1.5,2.3,1.2,1.3,1,2.1,1.4.7-.7,1.1-.8-1.1-1.7-1.7-2.4-1.5-1.4-2.1-2.1m21.2,6.2c-.2.6.2,1.5,0,2.1s.2,1.5,0,2.1.4-.3.4-.4-.1-1.2,0-1.7-.1-1.2.1-1.7.8-.4.7-1,.2-1.2,0-1.8-1.9-1.5-.5-2.2c-.4-.8.3-1.3,1.1-1.2s.5,1.7-.2,1.6-1.6.2-.9.9a1.8,1.8,0,0,1,.8,1.9c0,.9.1,1.4-.7,2s.2,1.9,0,2.8L65,29.6c.2-.8-.2-1.9,0-2.7s-.3-1.8,0-2.6,1.5-1.2,2-1.9a1.4,1.4,0,0,1,2.2-1.6,1.4,1.4,0,0,1-2,1.9c-.5,1-1.8,1.1-1.8,2.4s0,3,0,4.3,1.6-.8,2.4-1.4,1.3-2.1,1.9-1-.8,2.2-1.8,1.4S67,30,66.2,29.9a2.5,2.5,0,0,0-2.1,1.2c-.4.7-1.4,1-1.3,1.9s1.7-.8,2.5-1.4,1.2,0,1.8-.1,0-.9.5-1,.9.1,1,.5.2.7-.3,1-.6,0-1.1-.2a7.4,7.4,0,0,0-1.5,0c-.6,0-1.1,1-1.6,1.3s-.8.1-1.3.2.9.4,1.3.3.6-.9,1.1-.9.7-.7,1.3-.7a.8.8,0,0,1,.7,1.1c-.1.5-.9.8-1.2.3s-.8-.6-1.2-.1-.7.8-1.3.7a1.5,1.5,0,0,0-1.4.5c0-.2-.1-.3-.2-.5l.3-.3a7.4,7.4,0,0,0,0-2.1,8.1,8.1,0,0,0,0-2.2c0-.5.3-1.6-.2-1.9s-1.2-.6-1.1-1.4.6-1.3,1.4-1.3V22.1c.1-.5,1-.8,1.3-1.3s1.1-.8,1.3-1.3,0-.9.5-1a1,1,0,0,1,1,.4.8.8,0,0,1-.2,1.1,1.3,1.3,0,0,1-1.2-.1c-.8.6-1,1.1-1.8,1.8s-.6,2.1-.6,3.1a1.4,1.4,0,0,1,.2,2.7m-25.3,1c.5.2,1.2-.2,1.7.1a5.2,5.2,0,0,1,1.1,1c.3.3.9.7,1.1,1.1s-.2,1.9.1,2.7a.2.2,0,0,0,.2.2c-.2-1,.3-2.5-.2-3.3s-1.2-.9-1.7-1.7-1.9-.4-2.5-1-1.7-1.2-.7-2,1.8,1.2.7,1.5c.4,1.1,2.1.3,2.6,1.2s1.4,1,1.9,1.9,0,2.6.2,3.7.2.1.3.2V29.9c-.3-.6-1.1-.9-1.4-1.4s-1.1-1-1.5-1.5-1.7-.7-1-1.3a.9.9,0,0,1,1.3,1.1,19.2,19.2,0,0,1,1.4,1.5c.4.5,1.3.9,1.5,1.5s-.2,1.7,0,2.4-.4,1.8.1,2.3.9.8.8,1.6a3,3,0,0,0,.3,2.1c-.2,0-.4-.1-.6,0s-.2-.7-.3-1.1.1-1.1,0-1.5a2.9,2.9,0,0,0-1.1-1.1c-.3-.3-.7-.9-1.1-1.1a28.1,28.1,0,0,0-2.9,0c-.8-.3-1.3-1.7-2.1-1.8s-1.8-.1-1.9-1.2A1.3,1.3,0,0,1,35.6,29a1.5,1.5,0,0,1,.7,2.2L38,32.8a7.5,7.5,0,0,0,1.5,0h1.7c0-.8.2-2.3-.7-2.7s-.9-1.6-1.9-1.5a2.3,2.3,0,0,1-2.3-1c-.5-.9-1.5-.9-1.4-2a1.2,1.2,0,0,1-1.2-1.3A1.4,1.4,0,0,1,35,23.2a1.5,1.5,0,0,1,1.4,1.1c.1.8-.5,1.2-1.1,1.5s.5,1.1.8,1.4l1.4,1.3m-22,11.1h.9c1,.1,1.3.7,1,1.6s-.6,1.1-1.5,1H14.4c-1,0-2.7-.1-3,1s-.7,1.8-1,2.8a19.5,19.5,0,0,1,2.5-.2,3.9,3.9,0,0,1,2.4.3c.8.4.6,1.3.3,2a1,1,0,0,1-1.5.8c-.8-.3-1.8.2-2.6.2a10.1,10.1,0,0,0-2.5.2,2.8,2.8,0,0,1-2.2-.4c-.6-.6-.4-1.6-.3-2.3l.6-2.1c.3-.7.6-1.4.8-2l.8-2a16.3,16.3,0,0,1,.9-1.9,17.2,17.2,0,0,1,.7-2.1c.4-.6-.6-1.5.1-1.9a7.5,7.5,0,0,1,2.6-.1l2.6.2c.7,0,2.1-.1,1.2-.8s3.4-2.3,4.1-.7-.7,3.2-2.1,4a9.1,9.1,0,0,1-5.4.7,15.9,15.9,0,0,0-.7,2,24,24,0,0,1,2.8-.3m47.6-5.2c.4-.2.9,0,1.4-.1s.2-.8.7-.8.8.3.9.7-.1.7-.5.9-.8-.1-1.1-.4-1-.1-1.3,0-.5.7-.8.7.4-.7.7-1m-4.6-.2c.8,0,2,.1,2.4,1a4,4,0,0,1-.5,2.6,25,25,0,0,0-.9,2.5,5.4,5.4,0,0,1,2.2-.9,2.1,2.1,0,0,1,2.1.9c.5.8,0,1.7-.2,2.5s-.6,1.4-.8,2.3-.7,1.5-.5,2.5-.7,1.3-1.7,1.2a1.7,1.7,0,0,1-1.8-1.1,3.1,3.1,0,0,1,.2-2.5,14.3,14.3,0,0,1,.8-2.2c.4-.6.9-2,0-1.6s-.8,1-1.3,1.7a15.5,15.5,0,0,0-.8,2.3,5.3,5.3,0,0,0-.4,2.5c.1.9-1.3,1-2.1.9s-1.6-.6-1.6-1.5v-.8a8.1,8.1,0,0,1,.7-2.2,17.2,17.2,0,0,1,.7-2.1,15.9,15.9,0,0,0,.7-2,11.9,11.9,0,0,1,.8-2,17.2,17.2,0,0,1,.7-2.1c.5-.7-.5-1.6.4-1.9a2.7,2.7,0,0,1,.9,0m-2.9.7c.3.4,0,.8-.4,1.1s-.2,1.8-.8,2.2a1.6,1.6,0,0,1-1.7-1.8,1.4,1.4,0,0,1,2.2-.8,1.6,1.6,0,0,1,.7-.7M41.1,38.2c-.6.2-.9-.5-1.4-.2s-1.1-.1-1.5-.5a1.4,1.4,0,0,1,.1-1.6,1.4,1.4,0,0,1,1.6-.4,1.2,1.2,0,0,1,.7,1.4c-.2.6,0,.9.5,1.3M88,36.6c1.6.2,1,1.6,0,2.1s-2.9.4-2.8-.8,2.1-1.4,2.8-1.3M47.1,37.9c.5-1-1.4-.9-.9.1s-.1-1.2.5-1.2,1.2,1,.4,1.1m-28,10.9a1.7,1.7,0,0,1-1,0,1.6,1.6,0,0,1-1.6-1.5,5.6,5.6,0,0,1,.5-2.5c.2-.9.7-1.5.8-2.3s1-1.5.5-2.3,1-.8,1.7-.7,1.8.3,1.9,1.2a4.5,4.5,0,0,1,1.9-1.1,3.1,3.1,0,0,1,2.5.2c.8.4.7,1.4.5,2.2s-.5,1.5-.8,2.2-.5,1.6-.7,2.4.2,2-.8,2.2a2.9,2.9,0,0,1-2.4-.5c-.8-.5-.5-1.5-.4-2.2a15.5,15.5,0,0,1,.7-2.3c.2-.7,1-1.7.7-2.3s-1.2.5-1.4,1.1a12.1,12.1,0,0,0-.9,2,10.5,10.5,0,0,0-.6,2.4c0,.8.1,2.1-1.1,1.8m27.7,0a1.4,1.4,0,0,1-.9,0,1.4,1.4,0,0,1-1.4-.8,3.1,3.1,0,0,1-.1-1.9,9.5,9.5,0,0,1,.6-1.8c.3-.6.3-1.2.6-1.7s.2-1.2.6-1.7-.9-1.5.2-1.5,3-.1,3.3,1.3a4.3,4.3,0,0,1,2.1-1.1c.9-.2,2.2-.3,2.7.5s.1,1.9-.2,2.7a18.3,18.3,0,0,1-.8,2.5,9,9,0,0,0-.4,2.8c-.1.9-1.8.8-2.5.6a1.8,1.8,0,0,1-1.2-2.1,13.8,13.8,0,0,1,.8-2.7,4.6,4.6,0,0,0,.7-2.6c-1.1.1-1.3,1.2-1.8,2.1a19.9,19.9,0,0,0-.9,2.9c-.4.9.3,2.9-1.4,2.5m39-9.4c.6.1,1.5.3,1.8.9a2.8,2.8,0,0,1-.3,2.2l-.8,2-.7,2.1c-.1.7.2,2-.7,2.1a3.5,3.5,0,0,1-2.3-.2c-.8-.5-.7-1.4-.6-2.2a8.6,8.6,0,0,1,.7-2.1c.1-.7.7-1.2.7-2s1-1.1.6-2,.7-.9,1.6-.8M78,40.7c1.1-1.6,5.1-1.8,5,.5s-3.4,3.4-4.8,1.9c.8-.1,1.1-2,.3-1.7s-.7,1.2-1.2,1.9a15.5,15.5,0,0,0-.7,2.3,5.7,5.7,0,0,0-.3,2.6c-.1.9-1.6.7-2.3.6s-1.6-.7-1.5-1.5a10.1,10.1,0,0,1,.5-2.5,21.8,21.8,0,0,0,.9-2.3c.1-.8,1-1.4.5-2.2s.9-.9,1.7-.7,1.7.2,1.9,1.1M35.5,46.3a3.4,3.4,0,0,1,0-1,4.9,4.9,0,0,1,.8-2.3,4.6,4.6,0,0,1,1.5-1.6,7.3,7.3,0,0,1,4.5-1.8,3,3,0,0,1,2.4.7,1.8,1.8,0,0,1,.3,2.3,3.3,3.3,0,0,1-1.5,1.6,5.1,5.1,0,0,1-2.4.7c-.8,0-2.4-.4-1.8.7s1.7.3,2.5.3,1.4-1.2,2-.8.2,1.7-.3,2.2a4.4,4.4,0,0,1-1.8,1.2,8.2,8.2,0,0,1-2.7.6,5.3,5.3,0,0,1-2.4-.8,2.3,2.3,0,0,1-1.1-2m32.4.2a5.2,5.2,0,0,1-1.8,1.8c-.7.5-2.1.8-2.7-.2a3.7,3.7,0,0,1,0-3.1,8.3,8.3,0,0,1,1.5-2.3,6.9,6.9,0,0,1,1.9-1.9,10.2,10.2,0,0,1,2.6-1.1,14.5,14.5,0,0,1,3.6,0c1.2.2.7,1.5.3,2.4a14.8,14.8,0,0,0-1,2.7,8.3,8.3,0,0,0-.7,3.2c.1,1.1-1.3,1.2-2.4,1a2.3,2.3,0,0,1-1.3-2.5m23.4-.1a5.2,5.2,0,0,1-1.7,1.9c-.8.5-2.2.8-2.8-.1a3.7,3.7,0,0,1,0-3.1,9.5,9.5,0,0,1,1.4-2.4,10.7,10.7,0,0,1,1.9-1.8,6.6,6.6,0,0,1,2.7-1.2,13.6,13.6,0,0,1,3.5,0c1.3.1.8,1.4.4,2.3a23.1,23.1,0,0,0-1,2.8,10.1,10.1,0,0,0-.7,3.1c.1,1.2-1.3,1.3-2.4,1a2,2,0,0,1-1.3-2.5M33.4,48.9c.7,0,1.1.4,1.8.4s1.3.5,2,.2,1.1.2.5.7l-1.5.8a4.5,4.5,0,0,1-2,0l-1.9-.4a3.8,3.8,0,0,1-1.8,1.3,4.4,4.4,0,0,1-2.8.1,1.2,1.2,0,0,1-.4-1.9,2.6,2.6,0,0,1,1.9-1.3c.9-.1.9-1.2,1.2-1.9A5.1,5.1,0,0,1,28,48.8,1.6,1.6,0,0,1,25.8,47a6.4,6.4,0,0,1,1-3.3,8.7,8.7,0,0,1,2-2.3A5,5,0,0,1,31.7,40a10.6,10.6,0,0,1,4-.2c1.2.3.3,1.9,0,2.8s-.9,2.1-1.3,3a18,18,0,0,0-1,3.3m29.4,3.9H78.3c.8-.1,1.8.1,2.6,0s1.8.2,2.6,0,.9-.9,1.4-.4a.8.8,0,0,1,0,1.4c-.5.6-1-.1-1.4-.3s-1.7.1-2.5,0a22.6,22.6,0,0,0-2.6,0,20.9,20.9,0,0,0-2.5,0,22.5,22.5,0,0,0-2.6,0H65.6a22.5,22.5,0,0,0-2.6,0c-.8,0-1.6.4-2.4.4s.6.3,1,.2H74.8a16.1,16.1,0,0,0,2.2,0c.8-.1,1.6.1,2.2,0s1.7.3,2.3,0,.6-.8,1-.4a.7.7,0,0,1,.1,1.1c-.4.5-.8-.1-1.1-.3s-1.5.1-2.2,0a16.2,16.2,0,0,0-2.2,0,17.6,17.6,0,0,0-2.3,0H61.5c-2.4.1-4.9.2-7.3.1v14H52v-14a28.9,28.9,0,0,1-5.9-.2c-1.9-.4-4-.1-6-.1H33.9a.8.8,0,0,1-1.6,0,.9.9,0,0,1,1.4-1c.7.6,1.7.3,2.7.3a28,28,0,0,0,2.9,0c.9.1,2,0,3,0h2.9c1,0,1.7-.4,2.6-.4a7.7,7.7,0,0,0-2.6-.3H42.3a26.2,26.2,0,0,1-2.8,0,26.1,26.1,0,0,1-2.8,0c-.9-.1-1.3,1-2,.2s1.1-1.5,1.2-.5c3,0,6.1.1,9.1,0s6-.3,9-.2,6-.2,8.8.4M26.2,56.1l1.8-.2c.5-.1,1.3.2,1.3.8s-1.1.1-1.6.3a9.7,9.7,0,0,1-1.8.3c-.8,2.4-2.1,4.6-2.1,7.2-1.1.6-2.6.1-2.4-1.3a2.7,2.7,0,0,1-1.5,1.3,1,1,0,0,1-1.5-1,4,4,0,0,1,.6-2.2,6.1,6.1,0,0,1,1.2-1.5,6.4,6.4,0,0,1,1.8-1c.8-.1,1.4-.4,1.4-1.4s-1-1.7,0-2,2.5-.5,2.8.7m12.7,1.4c-.2.3-1.1,0-1.4.1a7.5,7.5,0,0,0-1.5,0,7.5,7.5,0,0,0-1.5,0V62A20.9,20.9,0,0,1,37,62a2.3,2.3,0,0,1,1.9,2.5c-.1,1.2.3,2.7-.7,3.6s-2.5.5-3.8.5a2.2,2.2,0,0,1-2.2-2.2h4.4c.1-.7-.1-1.4,0-2.2H34.2a2.4,2.4,0,0,1-2-2,13.3,13.3,0,0,1,0-2V58.3a5,5,0,0,1,.2-1.8,3.2,3.2,0,0,1,1-1c.4-.3,1.2-.2,1.7-.2H37a2.3,2.3,0,0,1,1.3.7c.3.3.8,1.1.6,1.5m7.4-.2a24.4,24.4,0,0,1,.1,4.7,24.6,24.6,0,0,1-.1,4.7c-.1,1.8-1.8,1.9-3.3,1.9s-3.2-.2-3.3-2a35.3,35.3,0,0,1,0-4.6,35.3,35.3,0,0,1,0-4.6c.1-1.8,1.8-2.1,3.3-2.1s3.2.2,3.3,2m5.1-1.9c.2.1.1.8,0,1s.2.9,0,1.1-.7,0-1,.1a4.8,4.8,0,0,0-1.2,0c-.2.3.1,1,0,1.4s.1,1,0,1.5a7.5,7.5,0,0,1,0,1.5h2.2v2.1H49.2v4.5H47c-.3-.2.1-1.1,0-1.5a10.8,10.8,0,0,1,0-1.8,8.6,8.6,0,0,1,0-1.6V60.3a9.7,9.7,0,0,1,0-1.7,9.7,9.7,0,0,1,0-1.7c.1-.4-.3-1.3,0-1.6h3c.4,0,1.2-.2,1.4.1m5.6-.1c.4,2.9.7,5.7,1.1,8.6.5-2.8.8-5.7,1.1-8.6.8.1,2.3-.4,2.4.6a26.6,26.6,0,0,0,.3,2.8l.3,2.7a25.1,25.1,0,0,0,.4,2.7c.4-3,.7-5.9,1.1-8.8h2.2c-.7,4.4-1.5,8.9-2.2,13.3-1,.1-2.3.3-2.4-.8s-.4-1.8-.4-2.9-.4-1.8-.5-2.8a13,13,0,0,0-.4,2.1c-.2.6-.2,1.4-.4,2.1s-.1,1.5-.3,2.1-1.7,0-2.3.2c-.7-4.4-1.5-8.9-2.2-13.3H57m15.9,2.1a7.6,7.6,0,0,1,.1,1.5,8.6,8.6,0,0,0,0,1.6v3.3a8.6,8.6,0,0,0,0,1.6c-.1.5.1,1.2,0,1.7s.2,1.3-.1,1.5-.8-.1-1.1,0a4.1,4.1,0,0,1-1.1,0V64.2H68.5c-.2.4.1,1.1,0,1.4s.1,1.1,0,1.5.2,1.2,0,1.5-.9.1-1.1.1-1,.1-1.2-.1a54.2,54.2,0,0,1,0-5.7,36,36,0,0,1,.1-5.7c.1-1.8,1.9-1.9,3.4-1.9s3.1.3,3.2,2.1m4.3,6.8c-.3-.2-1.1.2-1.4,0s.1,1,0,1.4a7.5,7.5,0,0,0,0,1.5,7.5,7.5,0,0,0,0,1.5H73.5V59.1c0-1.1.1-2,0-3.1s1.6-.7,2.5-.7a5.7,5.7,0,0,1,2.9.2,2.2,2.2,0,0,1,1.3,2v3.1c0,1,.2,2-.5,2.8s-.1,1.6,0,2.5.4,1.8.5,2.7H78c-.3-1.4-.5-2.9-.8-4.4m8-8.8c.2.1.1.8.1,1.1s.1.9-.1,1.1a16.2,16.2,0,0,0-2.2,0c-.2.3.1,1,0,1.4s.1,1,0,1.5A7.5,7.5,0,0,1,83,62h2.1v2.1H83v2.3h2.2c.2.2.1.9.1,1.1s.1,1-.1,1.1-1-.1-1.4,0a7.5,7.5,0,0,1-1.5,0,7.5,7.5,0,0,1-1.5,0V55.3a32,32,0,0,1,4.4.1M27.2,62c-.4.8,1.1,1.1,1.6.7s1.7-.7,1.5.2-.7,1-1.3,1.4a4.6,4.6,0,0,1-2.3.5,2.2,2.2,0,0,1-1.7-1,2.7,2.7,0,0,1,0-2.3,3.1,3.1,0,0,1,1.1-1.6,4,4,0,0,1,1.8-1,3.3,3.3,0,0,1,2.4-.1,1.2,1.2,0,0,1,.6,1.7,2.4,2.4,0,0,1-1.4,1.4A4.5,4.5,0,0,1,27.2,62Z" transform="translate(11.5 12.7)"/><path d="M29.4,25.1v1.7a11,11,0,0,0,.2,2.6,20.5,20.5,0,0,0,.5,2.4c.2.7.4,1.3.7,2.1s.5,1.2.8,2,.7,1,1,1.8,1.2.6,2,.5c-6.3-8.5-4.7-20.9,3.2-27.9a21.2,21.2,0,0,1,28.1,0c7.8,7.1,9.3,19.5,3.1,28a2.3,2.3,0,0,0,2.3-1.1A22.6,22.6,0,0,1,72.4,35c.3-.8.6-1.5.9-2.4a21.4,21.4,0,0,0,.6-2.7,14.5,14.5,0,0,0,.3-3V25.1c0-11.9-10.8-21.6-22.4-21.6S29.4,13.2,29.4,25.1Z" transform="translate(11.5 12.7)"/><path d="M54.7,15.3l-1.4,1.5a8.6,8.6,0,0,1,0,1.6v1.5a6.3,6.3,0,0,1,0,1.4c-.4-.6-1.3-.6-1.5-1.4a28.1,28.1,0,0,0,0-2.9,28.1,28.1,0,0,0,0-2.9c-.2-.9.8-1.1,1.1-1.9a1.5,1.5,0,0,0-1-1.7,1.5,1.5,0,0,0-1.8,1.1,1.5,1.5,0,0,0,1.2,1.7v3.1c-1-.7-1.2-1.4-2.2-2.1s-.6-2.4-.6-3.6a1,1,0,0,0,.3-1.9c-.9-.6-2.1.8-1.3,1.5s.7,1.9.6,3,1,1.3,1.4,2,1.5,1,1.8,1.8-.3,2.6.2,3.3,1.4,1,1.8,1.8a4.9,4.9,0,0,1,0,2.4c-.7,1-2.1,1.6-2.1,2.8-1.5-.7-.6-2.6-.9-3.9a.9.9,0,0,0,0-1.7c-1-.1-1.3,1.5-.3,1.7v2.8c-.6-.4-.7-.8-1.3-1.3s-.3-1.4-.4-2.2a22.5,22.5,0,0,0,0-2.6c-.2-.8.5-1.1.8-1.8S48.5,17,47.9,17a1.4,1.4,0,0,0-1.2,1.4c.2.8,1.2.8,1.1,1.6a11.3,11.3,0,0,0,0,2.6c-.7-1-2.5-1.5-2.4-2.8s-.5-3.4.9-4.3,1.7-.6,1-1.2a.8.8,0,0,0-1.2,1.1,1.9,1.9,0,0,0-1,1.9A12.2,12.2,0,0,1,45,20c-.5-1.2-.2-2.7-.2-4.1s0-2.8,0-4.2.7-1.7-.3-1.7a.9.9,0,0,0,0,1.7v6.6c-1.1-.5-.5-1.9-1.3-2.5s-1.1-1.3-1.9-1.8-.8-1.8-1.4-1,.5,1.7,1.3,1.2.9,1.2,1.7,1.7.2,1.8,1,2.4.3,1.7,1.2,2.2.8,1.2,1.7,1.7.9,1.6,1,2.4,1.2,1.1,1.5,1.8,1.4.9,1.8,1.8,0,2.2.1,3.2,0,2.3,0,3.4v3.4l.9-.2a22.6,22.6,0,0,1,0-2.6c.2-.6,1-.8,1.3-1.3s1-.7,1.3-1.3-.1-1.1,0-1.6-.2-1.1,0-1.4a.8.8,0,1,0-.3,0c-.2.9.3,2.6-.4,3.3l-1.9,1.8c-.1-.8.4-1.1,1-1.6s.4-1.5.4-2.1a.8.8,0,1,0-.9-1.3c-.4.5.1.9.4,1.3a1.8,1.8,0,0,1,.1,1.6c-.3.3-.6.8-1,1V29.9c0-1.2-.2-2.5.5-3.3s1.5-1.2,1.6-2.3-.1-2.6,0-3.7-.4-2.8.2-3.7,1.2-1.1,1.9-1.9.4-2.2.5-3.3A1.8,1.8,0,0,0,58.1,10a1.8,1.8,0,0,0-1.3-1.7,2,2,0,0,0-2.1.8c-.3.7-.4,1.8.4,2.2s.9,1.2.8,2.2-.5,1.2-1.2,1.8M48.5,8.9a.8.8,0,0,1-.4,1.5c-.9-.2-.5-1.6.4-1.5m8,.2a.9.9,0,1,1-.4,1.7.9.9,0,0,1,.4-1.7M44.8,10.4c.5.1.3,1.2-.4,1s-.3-1.2.4-1m7,.6c1,.2.6,2.1-.5,1.7a.9.9,0,1,1,.5-1.7m-11,2c.6.2.2,1.3-.4,1s-.3-1.2.4-1m6.1,1.3c.6.1.4,1.3-.3,1.1a.6.6,0,0,1,.3-1.1m1.2,3.3c.8.2.3,1.6-.4,1.2s-.3-1.4.4-1.2m2.3,4.5c.6.2.2,1.3-.4,1.1s-.2-1.3.4-1.1m4.3,6.4c.6.2.2,1.2-.4.9s-.1-1.1.4-.9m-1.3,1.4c.6.1.4,1.2-.2,1S52.8,29.8,53.4,29.9Z" transform="translate(11.5 12.7)"/><path class="cls-77" d="M48.5,8.9c-.9-.1-1.3,1.3-.4,1.5A.8.8,0,0,0,48.5,8.9Z" transform="translate(11.5 12.7)"/><path class="cls-78" d="M56.5,9.1a.9.9,0,0,0-.4,1.7A.9.9,0,1,0,56.5,9.1Z" transform="translate(11.5 12.7)"/><path class="cls-79" d="M44.8,10.4c-.7-.2-1,.8-.4,1S45.3,10.5,44.8,10.4Z" transform="translate(11.5 12.7)"/><path class="cls-80" d="M51.8,11a.9.9,0,1,0-.5,1.7C52.4,13.1,52.8,11.2,51.8,11Z" transform="translate(11.5 12.7)"/><path class="cls-81" d="M40.8,13c-.7-.2-1.1.8-.4,1S41.4,13.2,40.8,13Z" transform="translate(11.5 12.7)"/><path d="M59.3,19.1a3.3,3.3,0,0,0,0-1,3.4,3.4,0,0,0,0-1,1.9,1.9,0,0,1-.9-1.6c0-.7-1.3-.8-1.5,0a.8.8,0,0,0,1.3.9,2.1,2.1,0,0,1,.5,3,21.3,21.3,0,0,1-2.2,2.1v-1a.8.8,0,1,0-.7-.2c.6.5.4,1.6.4,2.5a2,2,0,0,0,.8,2c.7.5.8.9,1.4,1.4s.1,1.9.3,2.6a1.3,1.3,0,0,0-1.1,1.3c-.1.6.4,1,.9,1.3s-.5.9-.7,1.3a1.2,1.2,0,0,0,1.4-1.2,1.5,1.5,0,0,0,1.1-1.7c-.1-.8-1.1-.7-1.1-1.5a26.1,26.1,0,0,0,0-2.8,2.5,2.5,0,0,1,.6-2.1L61.2,22l1.3-1.3c.5-.5.3-1.7.3-2.5s.5-1.1,1-1.6a1.5,1.5,0,0,0,2.3-1.7A1.4,1.4,0,0,0,63.6,16c-.5.6-1.5,1-1.4,2s.2,2.2-.6,2.8-1,1.1-1.7,1.7-1.4,1.1-1.2,2.1-1.2-1.3-.9-1.9,1-.8,1.4-1.4,1.1-.8,1.4-1.4-.1-1,0-1.5-.2-1.1.1-1.1,1.2-.1,1.2-.7a.9.9,0,0,0-1.2-.9c-.6.2-.5.9-.4,1.5s-.1,1.4,0,2a1.4,1.4,0,0,1-.7,1.3l-1,1.1c-.3.3-.8.6-1,1s.2,1.4.7,2,.6.9.4,1.4-1-.9-1.1-1-.9-.7-1.1-1.1a1.7,1.7,0,0,1,0-1c.6-.7,1.3-1.1,1.9-1.8S60,20,60,19V15.4a.9.9,0,0,0-.1-1.7c-.9,0-1.2,1.5-.2,1.7v3.4c0,1-.9,1.4-1.5,2a8.5,8.5,0,0,1-1.7,1.6c-.1-.7.9-1.1,1.3-1.7s1.2-.9,1.5-1.6m.8-5.1c.6.2.2,1.3-.4,1.1a.6.6,0,0,1,.4-1.1m5.1.8c1,.2.5,2-.5,1.7a.9.9,0,0,1,.5-1.7m-7.4.4a.6.6,0,0,1-.3,1.1.6.6,0,0,1,.3-1.1m3.5.8c.6.2.1,1.3-.4,1s-.2-1.3.4-1m-4.7,3.1c.6.3.1,1.4-.5,1a.6.6,0,0,1,.5-1m2.7,10.2a.9.9,0,0,1-.6,1.6A.9.9,0,1,1,59.3,29.3Z" transform="translate(11.5 12.7)"/><path class="cls-81" d="M60.1,14a.6.6,0,0,0-.4,1.1C60.3,15.3,60.7,14.2,60.1,14Z" transform="translate(11.5 12.7)"/><path class="cls-82" d="M46.9,14.3a.6.6,0,0,0-.3,1.1C47.3,15.6,47.5,14.4,46.9,14.3Z" transform="translate(11.5 12.7)"/><path class="cls-83" d="M65.2,14.8a.9.9,0,0,0-.5,1.7C65.7,16.8,66.2,15,65.2,14.8Z" transform="translate(11.5 12.7)"/><path class="cls-84" d="M57.8,15.2a.6.6,0,0,0-.3,1.1A.6.6,0,0,0,57.8,15.2Z" transform="translate(11.5 12.7)"/><path class="cls-85" d="M53.3,16.8h0l1.4-1.5C54.3,15.7,53.5,16.3,53.3,16.8Z" transform="translate(11.5 12.7)"/><path class="cls-81" d="M61.3,16c-.6-.3-1,.6-.4,1S61.9,16.2,61.3,16Z" transform="translate(11.5 12.7)"/><path d="M45.7,32.1a4.9,4.9,0,0,1-.1-1.7c.1-.5-.2-1.4.1-1.7s.8-.2,1-.7a1.7,1.7,0,0,0,0-1.4c-.2-.6-.7-.4-1-.7s0-.7-.1-.9a5.2,5.2,0,0,0-1-1.1l-1.5-1.5c-.4-.7-1.5-1.1-1.2-2s.7-.6.6-.9a.8.8,0,0,0-.9-.7.8.8,0,0,0-.8.7c-.1.5.4.7.7.9s0,.5.1.9,1.5,1.3,2.1,2.1,1.9,1.3,1.7,2.4-1,.3-1.1.8-1-1.7-2.1-1.4-1.5-.6-2.3-1.2-.4-2.1-.5-3-1-1.3-1.5-1.9a1.5,1.5,0,0,0-2.2-1.9c-1.2,1.1.4,3.1,1.7,2.2.4.6,1.1.7,1.4,1.4s-.1,2,.1,2.7.9.8,1.3,1.6,1.4.7,2.1.6,1.1.9,1.6,1.3.3,1.6,1.2,1.6-.1,2.4,0,3.3.7,1.2,1.3,1.8A12.1,12.1,0,0,0,48,35.3c.8.6.7,1.5,1.1,2.2s1.2,1.3,1.9.7S49.6,37,49.7,36s-.1-2.5,0-3.5,1-1.7.6-2.7A1.9,1.9,0,0,0,48,28.7a1.9,1.9,0,0,0-1.3,2.2,2.2,2.2,0,0,0,2.2,1.4v2.9a11.4,11.4,0,0,1-1.6-1.5c-.5-.6-1.3-1-1.6-1.6M37.1,17.3c1,.4.3,2.3-.8,1.7s-.3-2,.8-1.7m4.7,1.8c.6.1.4,1.2-.2,1a.5.5,0,1,1,.2-1m4,7.3a.9.9,0,0,1-.5,1.7c-1.1-.3-.7-2.1.5-1.7m3,3.1c1.1.2.7,2.2-.5,1.9A1,1,0,0,1,48.8,29.5Z" transform="translate(11.5 12.7)"/><path class="cls-86" d="M53.3,21.3a6.3,6.3,0,0,0,0-1.4V18.4a8.6,8.6,0,0,0,0-1.6h0a8.9,8.9,0,0,0,0,2.3C53.3,19.8,53,20.7,53.3,21.3Z" transform="translate(11.5 12.7)"/><path class="cls-87" d="M59.3,19.1a3.4,3.4,0,0,0,0-2,3.4,3.4,0,0,1,0,1A3.3,3.3,0,0,1,59.3,19.1Z" transform="translate(11.5 12.7)"/><path class="cls-88" d="M60.6,19.9c.3-.7-.2-1.9.1-2.6s-.1.7-.1,1.1S60.7,19.5,60.6,19.9Z" transform="translate(11.5 12.7)"/><path class="cls-77" d="M37.1,17.3c-1.1-.3-1.8,1.2-.8,1.7S38.1,17.7,37.1,17.3Z" transform="translate(11.5 12.7)"/><path class="cls-77" d="M48.1,17.6c-.7-.2-1.2.9-.4,1.2S48.9,17.8,48.1,17.6Z" transform="translate(11.5 12.7)"/><path d="M64.9,19.5c-.2.6-1.1.9-1.3,1.4s-1.1.7-1.3,1.2v2.7c-.8,0-1.2.5-1.4,1.3s.6,1.1,1.1,1.4.2,1.3.3,1.9v2.2c-.1.6.2,1.5-.1,2.1l-.3.3c.1.2.2.3.2.5a1.5,1.5,0,0,1,1.4-.5c.6.1.9-.2,1.3-.7s.9-.3,1.2.1,1.1.2,1.2-.3a.8.8,0,0,0-.7-1.1c-.6,0-.8.6-1.3.7s-.6.7-1.1.9-1.4.3-1.3-.3.8.2,1.3-.2,1-1.3,1.6-1.3a7.4,7.4,0,0,1,1.5,0c.5.2.7.5,1.1.2s.5-.5.3-1-.5-.5-1-.5-.4.8-.5,1-1.4-.1-1.8.1-1.4,1.7-2.5,1.4.9-1.2,1.3-1.9a2.5,2.5,0,0,1,2.1-1.2c.8.1,1.1-1.2,1.7-1.5s2.5-.3,1.8-1.4-2.5-.2-1.9,1-1.3,1.8-2.4,1.4.1-3,0-4.3,1.3-1.4,1.8-2.4a1.4,1.4,0,0,0,2-1.9A1.4,1.4,0,0,0,67,22.4c-.5.7-1.6,1.1-2,1.9s.2,1.9,0,2.7.3,1.9,0,2.6-1.1.9-1.5,1.4a28.1,28.1,0,0,1,.1-2.9c.8-.6.7-1.1.7-2a1.8,1.8,0,0,0-.8-1.9c-.7-.7.2-1.1.9-.9s.9-1.4.2-1.6-1.5.4-1.1,1.2c-1.4.7.2,1.5.5,2.2s0,1.1.1,1.7-.4.7-.7,1.1,0,1.2-.1,1.7.1,1.3-.1,1.7-.2.4-.4.4-.1-.9,0-1.2a7.5,7.5,0,0,1,0-1.5c0-.4-.2-1.2,0-1.5a1.4,1.4,0,0,0-.2-2.7c0-1-.3-2.5.6-3.1s1-1.2,1.8-1.8a1.3,1.3,0,0,0,1.2.1.8.8,0,0,0,.2-1.1,1,1,0,0,0-1-.4c-.5.1-.4.7-.5,1m.9-.7c.7.1.4,1.2-.3,1a.5.5,0,0,1,.3-1m2.7,2a.9.9,0,0,1-.5,1.7.9.9,0,1,1,.5-1.7m-4,1.2c.6.2.2,1.2-.4.9s-.3-1.2.4-.9m-1.9,3.3c1.1.3.5,2-.6,1.6s-.4-1.9.6-1.6M69,26.9c.8.2.4,1.7-.5,1.3a.7.7,0,0,1,.5-1.3m-1,3.9c.6.1.5,1.2-.2,1s-.4-1.1.2-1m-1.4,1.5c.6.1.4,1.2-.2,1A.5.5,0,1,1,66.6,32.3Z" transform="translate(11.5 12.7)"/><path class="cls-89" d="M65.8,18.8a.5.5,0,0,0-.3,1C66.2,20,66.5,18.9,65.8,18.8Z" transform="translate(11.5 12.7)"/><path class="cls-90" d="M41.8,19.1a.5.5,0,1,0-.2,1C42.2,20.3,42.4,19.2,41.8,19.1Z" transform="translate(11.5 12.7)"/><path class="cls-91" d="M56.6,19.1a.6.6,0,0,0-.5,1C56.7,20.5,57.2,19.4,56.6,19.1Z" transform="translate(11.5 12.7)"/><path class="cls-92" d="M62.3,22.1c.2-.5,1.1-.7,1.3-1.2s1.1-.8,1.3-1.4-1.1.8-1.3,1.3S62.4,21.6,62.3,22.1Z" transform="translate(11.5 12.7)"/><path class="cls-93" d="M41.6,21.3c-.1-.4.1-.6-.1-.9S41.5,21,41.6,21.3Z" transform="translate(11.5 12.7)"/><path class="cls-77" d="M68.5,20.8a.9.9,0,1,0-.5,1.7A.9.9,0,0,0,68.5,20.8Z" transform="translate(11.5 12.7)"/><path class="cls-90" d="M64.5,22c-.7-.3-1.1.7-.4.9S65.1,22.2,64.5,22Z" transform="translate(11.5 12.7)"/><path class="cls-80" d="M50.4,22.1c-.6-.2-1,.8-.4,1.1S51,22.3,50.4,22.1Z" transform="translate(11.5 12.7)"/><path class="cls-86" d="M53.3,24.6a4.9,4.9,0,0,0,0-2.4c.1.4-.1.9,0,1.3A4.1,4.1,0,0,1,53.3,24.6Z" transform="translate(11.5 12.7)"/><path class="cls-94" d="M44.6,23.9a10.6,10.6,0,0,0-1.5-1.5Z" transform="translate(11.5 12.7)"/><path class="cls-95" d="M58.3,24.6c-.5-.6-1-1.1-.7-2C57.2,23.5,57.7,24.1,58.3,24.6Z" transform="translate(11.5 12.7)"/><path class="cls-96" d="M56.5,23.9v-1A1.7,1.7,0,0,0,56.5,23.9Z" transform="translate(11.5 12.7)"/><path d="M40.9,32.9a7,7,0,0,1-2.9-.1l-1.7-1.6a1.5,1.5,0,0,0-.7-2.2,1.3,1.3,0,0,0-1.8,1.4c.1,1.1,1.1,1.2,1.9,1.2s1.5,1.4,2.1,1.8a7.1,7.1,0,0,1,2.9,0c.4.2.8.8,1.1,1.1a2.9,2.9,0,0,1,1.1,1.1c.3.7-.1,1.7.1,2.5s.2-.1.2.1.4,0,.6,0a3,3,0,0,1-.3-2.1c.1-.8-.4-1-.8-1.6s.1-1.6-.1-2.3.2-1.7,0-2.4-1.3-.9-1.5-1.5-1.3-.9-1.4-1.5a.9.9,0,0,0-1.3-1.1c-.7.6.2,1.8,1,1.3s1.1,1,1.5,1.5,1.1.8,1.4,1.4a7.4,7.4,0,0,1,0,2.1,16.1,16.1,0,0,1,0,2.2l-.3-.3c-.2-1.1.4-2.7-.2-3.7s-1.3-.9-1.9-1.9-2.2-.1-2.6-1.2c1.1-.3.2-2.2-.7-1.5s.1,1.4.7,2,2,.2,2.5,1,1.2.9,1.7,1.7,0,2.3.2,3.3a.2.2,0,0,1-.2-.2c-.4-.8.1-1.9-.1-2.7s-.8-.8-1.1-1.1a5.2,5.2,0,0,0-1.1-1c-.5-.2-1.2.1-1.7-.1l-1.4-1.3c-.3-.3-1.3-1.1-.8-1.4s1.2-.7,1.1-1.5A1.5,1.5,0,0,0,35,23.2a1.4,1.4,0,0,0-1.3,1.3,1.2,1.2,0,0,0,1.2,1.3c-.1,1.1.9,1.1,1.4,2a2.3,2.3,0,0,0,2.3,1c1-.1,1.1,1,1.9,1.5s.7,1.9.7,2.7h-.3m-5.7-9.3c1.1.2.8,2.1-.3,1.8s-.8-1.9.3-1.8m3.9,2.1c.6.2.5,1.3-.2,1.1s-.4-1.2.2-1.1m-1.9.1c.6.2.3,1.3-.3,1s-.3-1.2.3-1m-1.7,3.6c1,.3.5,2-.6,1.7A.9.9,0,0,1,35.5,29.4Z" transform="translate(11.5 12.7)"/><path class="cls-78" d="M35.2,23.6c-1.1-.1-1.5,1.6-.3,1.8S36.3,23.8,35.2,23.6Z" transform="translate(11.5 12.7)"/><path class="cls-97" d="M65,29.6c.3-.7-.1-1.8,0-2.6s-.2-1.9,0-2.7c-.3.8.1,1.8,0,2.6S65.2,28.8,65,29.6Z" transform="translate(11.5 12.7)"/><path class="cls-98" d="M45.7,25.9c0-.3.1-.7-.1-.9S45.5,25.7,45.7,25.9Z" transform="translate(11.5 12.7)"/><path class="cls-99" d="M58.7,26l-1.1-1C57.7,25.1,58.6,26.1,58.7,26Z" transform="translate(11.5 12.7)"/><path class="cls-100" d="M29.4,26.8V25.1A4.8,4.8,0,0,0,29.4,26.8Z" transform="translate(11.5 12.7)"/><path class="cls-92" d="M63.2,31.3c.2-.4,0-1.2.1-1.7s-.2-1.3.1-1.7.8-.6.7-1.1.1-1.2-.1-1.7-.1,1.3,0,1.8-.5.6-.7,1,0,1.2-.1,1.7S63.4,30.8,63.2,31.3Z" transform="translate(11.5 12.7)"/><path class="cls-101" d="M74.2,26.9a5.4,5.4,0,0,0,0-1.8Z" transform="translate(11.5 12.7)"/><path class="cls-78" d="M62.6,25.3c-1-.3-1.7,1.2-.6,1.6S63.7,25.6,62.6,25.3Z" transform="translate(11.5 12.7)"/><path class="cls-81" d="M39.1,25.7c-.6-.1-.9,1-.2,1.1S39.7,25.9,39.1,25.7Z" transform="translate(11.5 12.7)"/><path class="cls-91" d="M37.2,25.8c-.6-.2-1,.8-.3,1S37.8,26,37.2,25.8Z" transform="translate(11.5 12.7)"/><path class="cls-78" d="M45.8,26.4c-1.2-.4-1.6,1.4-.5,1.7A.9.9,0,0,0,45.8,26.4Z" transform="translate(11.5 12.7)"/><path class="cls-97" d="M42.6,29.8c-.2-.6-1.1-1-1.5-1.5a19.2,19.2,0,0,0-1.4-1.5c.1.6,1.2,1,1.4,1.5S42.4,29.2,42.6,29.8Z" transform="translate(11.5 12.7)"/><path class="cls-78" d="M69,26.9a.7.7,0,0,0-.5,1.3C69.4,28.6,69.8,27.1,69,26.9Z" transform="translate(11.5 12.7)"/><path class="cls-102" d="M62.2,33.7c.3-.6,0-1.5.1-2.1V29.4c-.1-.6.2-1.6-.3-1.9s.2,1.4.2,1.9a8.1,8.1,0,0,1,0,2.2A7.4,7.4,0,0,1,62.2,33.7Z" transform="translate(11.5 12.7)"/><path class="cls-103" d="M62.8,31.7c.2-.6-.1-1.5,0-2.1s-.2-1.5,0-2.1,0,1.1,0,1.5a7.5,7.5,0,0,0,0,1.5C62.7,30.8,62.7,31.7,62.8,31.7Z" transform="translate(11.5 12.7)"/><path class="cls-104" d="M65,29.6l-1.4,1.3c.2-.9-.2-2,0-2.8a28.1,28.1,0,0,0-.1,2.9C63.9,30.5,64.7,30.2,65,29.6Z" transform="translate(11.5 12.7)"/><path class="cls-99" d="M39.2,28.6c-.5-.3-1.2.1-1.7-.1S38.7,28.4,39.2,28.6Z" transform="translate(11.5 12.7)"/><path class="cls-80" d="M54.7,28.5c-.5-.2-1,.6-.4.9S55.3,28.7,54.7,28.5Z" transform="translate(11.5 12.7)"/><path class="cls-105" d="M45.7,32.1c-.3-1,.2-2.4,0-3.4s0,1.2-.1,1.7A4.9,4.9,0,0,0,45.7,32.1Z" transform="translate(11.5 12.7)"/><path class="cls-78" d="M59.3,29.3a.9.9,0,1,0-.6,1.6A.9.9,0,0,0,59.3,29.3Z" transform="translate(11.5 12.7)"/><path class="cls-80" d="M35.5,29.4a.9.9,0,0,0-.6,1.7C36,31.4,36.5,29.7,35.5,29.4Z" transform="translate(11.5 12.7)"/><path class="cls-77" d="M48.8,29.5a1,1,0,0,0-.5,1.9C49.5,31.7,49.9,29.7,48.8,29.5Z" transform="translate(11.5 12.7)"/><path class="cls-106" d="M54.7,32.8c.2-.4-.1-1,0-1.5s-.2-1.1,0-1.5.1,1,0,1.4S54.8,32.4,54.7,32.8Z" transform="translate(11.5 12.7)"/><path class="cls-94" d="M42,33.9l.3.3a16.1,16.1,0,0,0,0-2.2,7.4,7.4,0,0,0,0-2.1v4.2C42.2,34,42,34,42,33.9Z" transform="translate(11.5 12.7)"/><path class="cls-89" d="M53.4,29.9c-.6-.1-.8.9-.2,1S54,30,53.4,29.9Z" transform="translate(11.5 12.7)"/><path class="cls-107" d="M41.5,33.4c-.3-.8.2-1.9-.1-2.7C41.6,31.5,41.1,32.6,41.5,33.4Z" transform="translate(11.5 12.7)"/><path class="cls-80" d="M68,30.8c-.6-.1-.9.9-.2,1S68.6,30.9,68,30.8Z" transform="translate(11.5 12.7)"/><path class="cls-97" d="M53.1,32.8a1.8,1.8,0,0,0-.1-1.6A2.9,2.9,0,0,1,53.1,32.8Z" transform="translate(11.5 12.7)"/><path class="cls-108" d="M35.7,31.6c.8.1,1.3,1.5,2.1,1.8h0C37.2,33,36.3,31.5,35.7,31.6Z" transform="translate(11.5 12.7)"/><path class="cls-88" d="M65.3,31.6c.4-.2,1.5.2,1.8-.1S65.8,31.3,65.3,31.6Z" transform="translate(11.5 12.7)"/><path class="cls-81" d="M66.6,32.3a.5.5,0,1,0-.2,1C67,33.5,67.2,32.4,66.6,32.3Z" transform="translate(11.5 12.7)"/><path class="cls-109" d="M14.4,42.2h1.5c.9.1,1.3,0,1.5-1s0-1.5-1-1.6h-.9a24,24,0,0,0-2.8.3,15.9,15.9,0,0,1,.7-2,9.1,9.1,0,0,0,5.4-.7c1.4-.8,2.8-2.4,2.1-4s-3.7-.7-4.1.7-.5.8-1.2.8L13,34.5a7.5,7.5,0,0,0-2.6.1c-.7.4.3,1.3-.1,1.9a17.2,17.2,0,0,0-.7,2.1,16.3,16.3,0,0,0-.9,1.9l-.8,2c-.2.6-.5,1.3-.8,2l-.6,2.1c-.1.7-.3,1.7.3,2.3a2.8,2.8,0,0,0,2.2.4,10.1,10.1,0,0,1,2.5-.2c.8,0,1.8-.5,2.6-.2a1,1,0,0,0,1.5-.8c.3-.7.5-1.6-.3-2a3.9,3.9,0,0,0-2.4-.3,19.5,19.5,0,0,0-2.5.2c.3-1,.7-1.8,1-2.8S13.4,42.2,14.4,42.2Z" transform="translate(11.5 12.7)"/><path class="cls-102" d="M40.9,32.9H39.5a7.5,7.5,0,0,1-1.5,0A7,7,0,0,0,40.9,32.9Z" transform="translate(11.5 12.7)"/><path class="cls-99" d="M37.8,33.4a28.1,28.1,0,0,1,2.9,0,7.1,7.1,0,0,0-2.9,0Z" transform="translate(11.5 12.7)"/><path class="cls-110" d="M64.5,34.3c-.3.3-1.1,0-1.4.1s-.8.5-.7,1,.5-.6.8-.7,1.1-.2,1.3,0,.7.7,1.1.4.6-.4.5-.9-.4-.6-.9-.7-.5.6-.7.8m1-.5c.6.3.2,1.3-.4,1S64.9,33.6,65.5,33.8Z" transform="translate(11.5 12.7)"/><path class="cls-90" d="M65.5,33.8c-.6-.2-1.1.7-.4,1S66.1,34.1,65.5,33.8Z" transform="translate(11.5 12.7)"/><path class="cls-111" d="M57.6,34.2h.9A2.7,2.7,0,0,0,57.6,34.2Z" transform="translate(11.5 12.7)"/><path class="cls-109" d="M53.6,46.5v.8c0,.9.9,1.4,1.6,1.5s2.2,0,2.1-.9a5.3,5.3,0,0,1,.4-2.5,15.5,15.5,0,0,1,.8-2.3c.5-.7.5-1.4,1.3-1.7s.4,1,0,1.6a14.3,14.3,0,0,0-.8,2.2,3.1,3.1,0,0,0-.2,2.5,1.7,1.7,0,0,0,1.8,1.1c1,.1,1.9-.2,1.7-1.2s.4-1.7.5-2.5.6-1.5.8-2.3.7-1.7.2-2.5a2.1,2.1,0,0,0-2.1-.9,5.4,5.4,0,0,0-2.2.9,25,25,0,0,1,.9-2.5,4,4,0,0,0,.5-2.6c-.4-.9-1.6-1-2.4-1h-.9c-.9.3.1,1.2-.4,1.9a17.2,17.2,0,0,0-.7,2.1,11.9,11.9,0,0,0-.8,2,15.9,15.9,0,0,1-.7,2,17.2,17.2,0,0,0-.7,2.1A8.1,8.1,0,0,0,53.6,46.5Z" transform="translate(11.5 12.7)"/><path class="cls-112" d="M63.1,34.4c.3-.1,1.1.2,1.4-.1S63.5,34.2,63.1,34.4Z" transform="translate(11.5 12.7)"/><path d="M55.6,34.9a1.6,1.6,0,0,0-.7.7,1.4,1.4,0,0,0-2.2.8,1.6,1.6,0,0,0,1.7,1.8c.6-.4,1.4-1.4.8-2.2s.7-.7.4-1.1m-1.2,1c1,.2.5,2-.6,1.6S53.2,35.6,54.4,35.9Z" transform="translate(11.5 12.7)"/><path d="M41.1,38.2c-.5-.4-.7-.7-.5-1.3a1.2,1.2,0,0,0-.7-1.4,1.4,1.4,0,0,0-1.6.4,1.4,1.4,0,0,0-.1,1.6c.4.4.9.8,1.5.5s.8.4,1.4.2m-1.6-2.4c1.1.2.8,2.1-.4,1.8A.9.9,0,0,1,39.5,35.8Z" transform="translate(11.5 12.7)"/><path class="cls-113" d="M43.2,38.2c0-.2-.2-.1-.2-.1s.2-1.8-.1-2.5-.1,1,0,1.5S42.7,38,43.2,38.2Z" transform="translate(11.5 12.7)"/><path class="cls-77" d="M39.5,35.8a.9.9,0,0,0-.4,1.8C40.3,37.9,40.6,36,39.5,35.8Z" transform="translate(11.5 12.7)"/><path class="cls-78" d="M54.4,35.9c-1.2-.3-1.7,1.2-.6,1.6S55.4,36.1,54.4,35.9Z" transform="translate(11.5 12.7)"/><path class="cls-114" d="M88,36.6c-.7-.1-2.8.2-2.8,1.3s1.9,1.2,2.8.8S89.6,36.8,88,36.6Z" transform="translate(11.5 12.7)"/><path class="cls-115" d="M47.1,37.9c.8-.1.1-1.1-.4-1.1s-1.3,1.1-.5,1.2S47.6,36.9,47.1,37.9Z" transform="translate(11.5 12.7)"/><path class="cls-109" d="M18.1,48.8a3.4,3.4,0,0,0,1,0c1.2.3,1.1-1,1.1-1.8a10.5,10.5,0,0,1,.6-2.4,12.1,12.1,0,0,1,.9-2c.2-.6,1.1-1.8,1.4-1.1s-.5,1.6-.7,2.3a15.5,15.5,0,0,0-.7,2.3c-.1.7-.4,1.7.4,2.2a2.9,2.9,0,0,0,2.4.5c1-.2.6-1.5.8-2.2s.5-1.6.7-2.4.5-1.5.8-2.2.3-1.8-.5-2.2a3.1,3.1,0,0,0-2.5-.2,4.5,4.5,0,0,0-1.9,1.1c-.1-.9-1.1-1.1-1.9-1.2s-2.1-.2-1.7.7-.3,1.4-.5,2.3-.6,1.4-.8,2.3a5.6,5.6,0,0,0-.5,2.5A1.6,1.6,0,0,0,18.1,48.8Z" transform="translate(11.5 12.7)"/><path class="cls-109" d="M45.9,48.8a2.7,2.7,0,0,0,.9,0c1.7.4,1-1.6,1.4-2.5a19.9,19.9,0,0,1,.9-2.9c.5-.9.7-2,1.8-2.1a4.6,4.6,0,0,1-.7,2.6,13.8,13.8,0,0,0-.8,2.7,1.8,1.8,0,0,0,1.2,2.1c.7.2,2.4.3,2.5-.6a9,9,0,0,1,.4-2.8,18.3,18.3,0,0,0,.8-2.5c.3-.8.8-1.9.2-2.7s-1.8-.7-2.7-.5a4.3,4.3,0,0,0-2.1,1.1c-.3-1.4-2.2-1.3-3.3-1.3s.1,1.1-.2,1.5-.3,1.2-.6,1.7-.3,1.1-.6,1.7a9.5,9.5,0,0,0-.6,1.8,3.1,3.1,0,0,0,.1,1.9A1.4,1.4,0,0,0,45.9,48.8Z" transform="translate(11.5 12.7)"/><path class="cls-109" d="M85.8,39.4c-.9-.1-2.1,0-1.6.8s-.5,1.3-.6,2-.6,1.3-.7,2a8.6,8.6,0,0,0-.7,2.1c-.1.8-.2,1.7.6,2.2a3.5,3.5,0,0,0,2.3.2c.9-.1.6-1.4.7-2.1l.7-2.1.8-2a2.8,2.8,0,0,0,.3-2.2C87.3,39.7,86.4,39.5,85.8,39.4Z" transform="translate(11.5 12.7)"/><path class="cls-109" d="M78,40.7c-.2-.9-1.1-1-1.9-1.1s-2.2-.2-1.7.7-.4,1.4-.5,2.2a21.8,21.8,0,0,1-.9,2.3,10.1,10.1,0,0,0-.5,2.5c-.1.8.8,1.5,1.5,1.5s2.2.3,2.3-.6a5.7,5.7,0,0,1,.3-2.6,15.5,15.5,0,0,1,.7-2.3c.5-.7.4-1.5,1.2-1.9s.5,1.6-.3,1.7c1.4,1.5,4.8.5,4.8-1.9S79.1,39.1,78,40.7Z" transform="translate(11.5 12.7)"/><path class="cls-116" d="M15.5,39.6h0Z" transform="translate(11.5 12.7)"/><path class="cls-109" d="M35.5,45.3v1a2.3,2.3,0,0,0,1.1,2,5.3,5.3,0,0,0,2.4.8,8.2,8.2,0,0,0,2.7-.6,4.4,4.4,0,0,0,1.8-1.2c.5-.5,1-1.9.3-2.2s-1.3.9-2,.8-1.8.7-2.5-.3,1-.7,1.8-.7a5.1,5.1,0,0,0,2.4-.7A3.3,3.3,0,0,0,45,42.6a1.8,1.8,0,0,0-.3-2.3,3,3,0,0,0-2.4-.7,7.3,7.3,0,0,0-4.5,1.8A4.6,4.6,0,0,0,36.3,43a4.9,4.9,0,0,0-.8,2.3m4.7-2.2c0-.3,1-1.5,1.4-1S40.6,43.3,40.2,43.1Z" transform="translate(11.5 12.7)"/><path class="cls-109" d="M67.9,46.5A2.3,2.3,0,0,0,69.2,49c1.1.2,2.5.1,2.4-1a8.3,8.3,0,0,1,.7-3.2,14.8,14.8,0,0,1,1-2.7c.4-.9.9-2.2-.3-2.4a14.5,14.5,0,0,0-3.6,0,10.2,10.2,0,0,0-2.6,1.1,6.9,6.9,0,0,0-1.9,1.9A8.3,8.3,0,0,0,63.4,45a3.7,3.7,0,0,0,0,3.1c.6,1,2,.7,2.7.2a5.2,5.2,0,0,0,1.8-1.8m1.3-4.4A7.7,7.7,0,0,1,68,44.5c-.4.7-.7.4-.5-.4A3.7,3.7,0,0,1,69.2,42.1Z" transform="translate(11.5 12.7)"/><path class="cls-109" d="M91.3,46.4a2,2,0,0,0,1.3,2.5c1.1.3,2.5.2,2.4-1a10.1,10.1,0,0,1,.7-3.1,23.1,23.1,0,0,1,1-2.8c.4-.9.9-2.2-.4-2.3a13.6,13.6,0,0,0-3.5,0,6.6,6.6,0,0,0-2.7,1.2,10.7,10.7,0,0,0-1.9,1.8,9.5,9.5,0,0,0-1.4,2.4,3.7,3.7,0,0,0,0,3.1c.6.9,2,.6,2.8.1a5.2,5.2,0,0,0,1.7-1.9m1.3-4.3a6.2,6.2,0,0,1-1.7,2.8A2.9,2.9,0,0,1,92.6,42.1Z" transform="translate(11.5 12.7)"/><path class="cls-109" d="M33.4,48.9a18,18,0,0,1,1-3.3c.4-.9.9-2.2,1.3-3s1.2-2.5,0-2.8a10.6,10.6,0,0,0-4,.2,5,5,0,0,0-2.9,1.4,8.7,8.7,0,0,0-2,2.3,6.4,6.4,0,0,0-1,3.3A1.6,1.6,0,0,0,28,48.8a5.1,5.1,0,0,0,2.4-1.9c-.3.7-.3,1.8-1.2,1.9a2.6,2.6,0,0,0-1.9,1.3,1.2,1.2,0,0,0,.4,1.9,4.4,4.4,0,0,0,2.8-.1,3.8,3.8,0,0,0,1.8-1.3l1.9.4a4.5,4.5,0,0,0,2,0l1.5-.8c.6-.5.3-1-.5-.7s-1.3-.1-2-.2-1.1-.4-1.8-.4M32,42.1a11.2,11.2,0,0,1-1.3,2.4c-.5.8-.6.1-.5-.4a4.7,4.7,0,0,1,.7-1.2,2.3,2.3,0,0,1,1.1-.8m-2.9,8.1c0,.1-.3.8-.5.5S28.8,50,29.1,50.2Z" transform="translate(11.5 12.7)"/><path class="cls-117" d="M40.2,43.1c.4.2,1.8-.6,1.4-1S40.2,42.8,40.2,43.1Z" transform="translate(11.5 12.7)"/><path class="cls-117" d="M32,42.1a2.3,2.3,0,0,0-1.1.8,4.7,4.7,0,0,0-.7,1.2c-.1.5,0,1.2.5.4A11.2,11.2,0,0,0,32,42.1Z" transform="translate(11.5 12.7)"/><path class="cls-118" d="M69.2,42.1a3.7,3.7,0,0,0-1.7,2c-.2.8.1,1.1.5.4A7.7,7.7,0,0,0,69.2,42.1Z" transform="translate(11.5 12.7)"/><path class="cls-118" d="M92.6,42.1a2.9,2.9,0,0,0-1.7,2.8A6.2,6.2,0,0,0,92.6,42.1Z" transform="translate(11.5 12.7)"/><path class="cls-119" d="M14.4,42.2h0Z" transform="translate(11.5 12.7)"/><path class="cls-120" d="M35.5,46.3v-1A3.4,3.4,0,0,0,35.5,46.3Z" transform="translate(11.5 12.7)"/><path class="cls-121" d="M53.6,47.3v0Z" transform="translate(11.5 12.7)"/><path class="cls-122" d="M19.1,48.8a3.4,3.4,0,0,1-1,0A1.7,1.7,0,0,0,19.1,48.8Z" transform="translate(11.5 12.7)"/><path class="cls-111" d="M46.8,48.8a2.7,2.7,0,0,1-.9,0A1.4,1.4,0,0,0,46.8,48.8Z" transform="translate(11.5 12.7)"/><path class="cls-123" d="M29.1,50.2c-.3-.2-.8.3-.5.5S29.1,50.3,29.1,50.2Z" transform="translate(11.5 12.7)"/><path d="M61.5,54.5h15c.8.1,1.8-.1,2.5,0s1.9-.3,2.5.1.7.8,1.1.3a.7.7,0,0,0-.1-1.1c-.4-.4-.8.3-1,.4s-1.7-.1-2.4.1-1.7-.1-2.5,0h-15c-.4.1-.6-.2-1-.2s1.6-.4,2.4-.4a13.1,13.1,0,0,1,2.8-.1h8.9a28.1,28.1,0,0,1,2.9,0c.9.1,2.1-.1,3,0s2.1-.3,2.9.1.9.9,1.4.3a.8.8,0,0,0,0-1.4c-.5-.5-1,.2-1.4.4s-1.9-.1-2.8,0a15,15,0,0,1-3,0c-1,.1-2,0-3,0s-2,0-3,0-2,0-3,0-2,.1-3,0a28.1,28.1,0,0,1-2.9,0c-2.8-.6-5.8-.2-8.8-.4s-6,.2-9,.2-6.1,0-9.1,0c-.1-1-1.8-.2-1.2.5s1.1-.3,2-.2a26.1,26.1,0,0,0,2.8,0,26.2,26.2,0,0,0,2.8,0h2.9a7.7,7.7,0,0,1,2.6.3c-.9,0-1.6.4-2.6.4H42.3c-1,0-2.1.1-3,0a28,28,0,0,1-2.9,0c-1,0-2,.3-2.7-.3a.9.9,0,0,0-1.4,1,.8.8,0,0,0,1.6,0h6.2c2,0,4.1-.3,6,.1a28.9,28.9,0,0,0,5.9.2v14h2.2v-14c2.4.1,4.9,0,7.3-.1m-26-2.1c.4.2.1.9-.3.7s-.1-.8.3-.7m49,.4c.2.2.1.7-.2.5s-.1-.6.2-.5m-51.3.9c.3.1.1.7-.2.5s-.1-.6.2-.5m49.1.2c.4.2.1.9-.3.7S81.9,53.8,82.3,53.9Z" transform="translate(11.5 12.7)"/><path class="cls-124" d="M35.5,52.4c-.4-.1-.7.5-.3.7S35.9,52.6,35.5,52.4Z" transform="translate(11.5 12.7)"/><path class="cls-95" d="M83.5,52.8c-.8.2-1.8-.2-2.6,0s-1.8-.1-2.6,0H62.8a28.1,28.1,0,0,0,2.9,0c1,.1,2,0,3,0s2,.1,3,0,2,.1,3,0,2,.1,3,0a15,15,0,0,0,3,0C81.6,52.7,82.7,53.2,83.5,52.8Z" transform="translate(11.5 12.7)"/><path class="cls-125" d="M84.5,52.8c-.3-.1-.5.4-.2.5S84.7,53,84.5,52.8Z" transform="translate(11.5 12.7)"/><path class="cls-126" d="M63,53.5a22.5,22.5,0,0,1,2.6,0h7.7a22.5,22.5,0,0,1,2.6,0,20.9,20.9,0,0,1,2.5,0,22.6,22.6,0,0,1,2.6,0c.8.1,1.7-.3,2.5,0-.8-.4-2,0-2.9-.1s-2.1.1-3,0a28.1,28.1,0,0,0-2.9,0H65.8A13.1,13.1,0,0,0,63,53.5Z" transform="translate(11.5 12.7)"/><path class="cls-127" d="M33.2,53.7c-.3-.1-.5.4-.2.5S33.5,53.8,33.2,53.7Z" transform="translate(11.5 12.7)"/><path class="cls-128" d="M82.3,53.9c-.4-.1-.7.5-.3.7S82.7,54.1,82.3,53.9Z" transform="translate(11.5 12.7)"/><path class="cls-129" d="M81.5,54.1c-.6.3-1.6-.1-2.3,0s-1.4-.1-2.2,0a16.1,16.1,0,0,1-2.2,0h1.8c.8-.1,1.7.1,2.5,0S80.9,54.5,81.5,54.1Z" transform="translate(11.5 12.7)"/><path class="cls-130" d="M61.5,54.5H74.8a17.6,17.6,0,0,1,2.3,0,16.2,16.2,0,0,1,2.2,0c.7.1,1.6-.3,2.2,0s-1.7,0-2.5-.1-1.7.1-2.5,0h-15Z" transform="translate(11.5 12.7)"/><path class="cls-131" d="M26.2,56.1c-.3-1.2-1.9-1-2.8-.7s-1.4,2,0,2-.6,1.3-1.4,1.4a6.4,6.4,0,0,0-1.8,1A6.1,6.1,0,0,0,19,61.3a4,4,0,0,0-.6,2.2,1,1,0,0,0,1.5,1,2.7,2.7,0,0,0,1.5-1.3c-.2,1.4,1.3,1.9,2.4,1.3,0-2.6,1.3-4.8,2.1-7.2a9.7,9.7,0,0,0,1.8-.3c.5-.2,1.6.3,1.6-.3s-.8-.9-1.3-.8l-1.8.2m-2.4,0c.1.2,0,.6-.3.4s.2-.5.3-.4m-1.4,4.1c-.4.6-.5,1.6-1.2,1.8A2.1,2.1,0,0,1,22.4,60.2Z" transform="translate(11.5 12.7)"/><path d="M34.2,64.2a4.8,4.8,0,0,1,1.2,0c.4,0,1-.2,1.3,0v1.1c-.1.3.1,1-.1,1.1H32.2a2.2,2.2,0,0,0,2.2,2.2c1.3,0,2.7.3,3.8-.5s.6-2.4.7-3.6A2.3,2.3,0,0,0,37,62a5.7,5.7,0,0,1-1.3,0c-.3,0-1,.2-1.2,0s-.1-1.1-.1-1.5V59c0-.3-.2-1.2.1-1.4s1.5,0,2.1-.1a17.6,17.6,0,0,1,2.3,0c.2-.4-.3-1.2-.6-1.5a2.3,2.3,0,0,0-1.3-.7H35.1c-.5,0-1.3-.1-1.7.2a3.2,3.2,0,0,0-1,1,5,5,0,0,0-.2,1.8v1.9a13.3,13.3,0,0,0,0,2A2.4,2.4,0,0,0,34.2,64.2Z" transform="translate(11.5 12.7)"/><path d="M39.7,57.4c-.1,3-.1,6.2,0,9.2s1.9,2.1,3.3,2,3.2-.1,3.3-1.9,0-3.1,0-4.7.1-3.1,0-4.7-1.8-2-3.3-2-3.2.3-3.3,2.1m4.4.2c.3.3-.1.9,0,1.4a7.5,7.5,0,0,1,0,1.5,7.5,7.5,0,0,1,0,1.5,6.6,6.6,0,0,1,0,1.4v3H41.9V57.6c.2-.2.9-.1,1.1-.1S44,57.4,44.1,57.6Z" transform="translate(11.5 12.7)"/><path class="cls-106" d="M47,68.6V55.4h0c-.3.3.1,1.2,0,1.6a9.7,9.7,0,0,0,0,1.7,9.7,9.7,0,0,0,0,1.7v3.4a8.6,8.6,0,0,0,0,1.6,10.8,10.8,0,0,0,0,1.8C47.1,67.5,46.7,68.4,47,68.6Z" transform="translate(11.5 12.7)"/><path class="cls-132" d="M47,55.4c1.5.1,3-.1,4.4,0-.2-.3-1-.1-1.4-.1H47Z" transform="translate(11.5 12.7)"/><path d="M57,55.3H54.8c.7,4.4,1.5,8.9,2.2,13.3.6-.2,2,.4,2.3-.2s.1-1.5.3-2.1.2-1.5.4-2.1a13,13,0,0,1,.4-2.1c.1,1,.4,1.8.5,2.8s.4,1.7.4,2.9,1.4.9,2.4.8c.7-4.4,1.5-8.9,2.2-13.3H63.7c-.4,2.9-.7,5.8-1.1,8.8a25.1,25.1,0,0,1-.4-2.7l-.3-2.7a26.6,26.6,0,0,1-.3-2.8c-.1-1-1.6-.5-2.4-.6-.3,2.9-.6,5.8-1.1,8.6C57.7,61,57.4,58.2,57,55.3Z" transform="translate(11.5 12.7)"/><path d="M66.3,57.2c-.3,3.8.3,7.7,0,11.4h2.2c.2-.3-.2-1.1,0-1.5s-.1-1.1,0-1.5-.2-1,0-1.4.9,0,1.1,0,1-.2,1.1,0v4.4a4.1,4.1,0,0,0,1.1,0c.3-.1.8.2,1.1,0-.1-3.7.1-7.5,0-11.2-.1-1.8-1.8-2.1-3.2-2.1s-3.3.1-3.4,1.9m4.4.4c.2.3-.1,1,0,1.4s-.1,1,0,1.5a7.5,7.5,0,0,0,0,1.5H68.5V57.6c.1-.2.9-.1,1.1-.1S70.6,57.4,70.7,57.6Z" transform="translate(11.5 12.7)"/><path d="M75.8,64.2a3.3,3.3,0,0,1,1.4,0c.3,1.5.5,3,.8,4.4h2.2c-.1-.9-.4-1.8-.5-2.7s-.6-1.8,0-2.5.5-1.8.5-2.8V57.5a2.2,2.2,0,0,0-1.3-2,5.7,5.7,0,0,0-2.9-.2c-.9,0-2.5-.4-2.5.7s0,2,0,3.1v9.5h2.3a7.5,7.5,0,0,1,0-1.5,7.5,7.5,0,0,1,0-1.5c.1-.4-.2-1,0-1.4M78,57.6c.2.3-.1,1,0,1.4s-.1,1,0,1.5V62H75.8V57.6c.1-.2.9-.1,1.1-.1S77.9,57.4,78,57.6Z" transform="translate(11.5 12.7)"/><path d="M85.2,68.6V66.4H83V64.1h2.1V62H83a7.5,7.5,0,0,0,0-1.5c.1-.5-.1-1.1,0-1.5s-.2-1.1,0-1.4.7-.1,1-.1a4.8,4.8,0,0,1,1.2,0,3.3,3.3,0,0,0,0-1c-.1-.3.2-.9,0-1.1a32,32,0,0,0-4.4-.1V68.6a7.5,7.5,0,0,0,1.5,0,7.5,7.5,0,0,0,1.5,0C84.2,68.5,84.9,68.9,85.2,68.6Z" transform="translate(11.5 12.7)"/><path d="M47,68.6h2.2V64.1h2.2V62H49.2a7.5,7.5,0,0,0,0-1.5c.1-.5-.1-1.1,0-1.5s-.2-1.1,0-1.4.8-.1,1.1-.1a4.1,4.1,0,0,1,1.1,0c.2-.2,0-.9,0-1.1s.2-.9,0-1-2.9.1-4.4,0Z" transform="translate(11.5 12.7)"/><path class="cls-133" d="M85.2,57.5h0c.2-.2.1-.9.1-1.1s.1-1-.1-1.1-.1.8,0,1.1A3.3,3.3,0,0,1,85.2,57.5Z" transform="translate(11.5 12.7)"/><path class="cls-134" d="M23.8,56.1c-.1-.1-.5.2-.3.4S23.9,56.3,23.8,56.1Z" transform="translate(11.5 12.7)"/><path class="cls-92" d="M66.2,68.6h.1c.3-3.7-.3-7.6,0-11.4a36,36,0,0,0-.1,5.7A54.2,54.2,0,0,0,66.2,68.6Z" transform="translate(11.5 12.7)"/><path class="cls-135" d="M46.3,66.7a24.6,24.6,0,0,0,.1-4.7,24.4,24.4,0,0,0-.1-4.7c.1,1.6,0,3.2,0,4.7S46.4,65.1,46.3,66.7Z" transform="translate(11.5 12.7)"/><path class="cls-136" d="M39.7,66.6c-.1-3-.1-6.2,0-9.2a35.3,35.3,0,0,0,0,4.6A35.3,35.3,0,0,0,39.7,66.6Z" transform="translate(11.5 12.7)"/><path class="cls-97" d="M72.9,68.6c.3-.2,0-1.1.1-1.5s-.1-1.2,0-1.7a8.6,8.6,0,0,1,0-1.6V60.5a8.6,8.6,0,0,1,0-1.6,7.6,7.6,0,0,0-.1-1.5C73,61.1,72.8,64.9,72.9,68.6Z" transform="translate(11.5 12.7)"/><path class="cls-137" d="M34.5,57.6a7.5,7.5,0,0,1,1.5,0,7.5,7.5,0,0,1,1.5,0c.3-.1,1.2.2,1.4-.1a17.6,17.6,0,0,0-2.3,0C36,57.6,34.9,57.1,34.5,57.6Z" transform="translate(11.5 12.7)"/><path class="cls-137" d="M41.9,57.6h2.2c-.1-.2-.8-.1-1.1-.1S42.1,57.4,41.9,57.6Z" transform="translate(11.5 12.7)"/><path class="cls-137" d="M49.2,57.6a4.8,4.8,0,0,1,1.2,0c.3-.1.9.1,1-.1a4.1,4.1,0,0,0-1.1,0C50,57.5,49.4,57.3,49.2,57.6Z" transform="translate(11.5 12.7)"/><path class="cls-137" d="M68.5,57.6h2.2c-.1-.2-.9-.1-1.1-.1S68.6,57.4,68.5,57.6Z" transform="translate(11.5 12.7)"/><path class="cls-137" d="M75.8,57.6H78c-.1-.2-.9-.1-1.1-.1S75.9,57.4,75.8,57.6Z" transform="translate(11.5 12.7)"/><path class="cls-138" d="M83,57.6a16.2,16.2,0,0,1,2.2,0h0a4.8,4.8,0,0,0-1.2,0C83.7,57.5,83.2,57.3,83,57.6Z" transform="translate(11.5 12.7)"/><path class="cls-139" d="M34.5,62V57.6c-.3.2-.1,1.1-.1,1.4v1.5C34.4,60.9,34.2,61.7,34.5,62Z" transform="translate(11.5 12.7)"/><path class="cls-140" d="M44.1,57.6H41.9v8.8h2.2v-3a6.6,6.6,0,0,0,0-1.4,7.5,7.5,0,0,0,0-1.5,7.5,7.5,0,0,0,0-1.5C44,58.5,44.4,57.9,44.1,57.6Z" transform="translate(11.5 12.7)"/><path class="cls-141" d="M70.7,57.6H68.5V62h2.2a7.5,7.5,0,0,1,0-1.5c-.1-.5.1-1.1,0-1.5S70.9,57.9,70.7,57.6Z" transform="translate(11.5 12.7)"/><path class="cls-141" d="M78,57.6H75.8V62H78V60.5c-.1-.5.1-1.1,0-1.5S78.2,57.9,78,57.6Z" transform="translate(11.5 12.7)"/><path class="cls-142" d="M27.2,62a4.5,4.5,0,0,0,2.3-.1,2.4,2.4,0,0,0,1.4-1.4,1.2,1.2,0,0,0-.6-1.7,3.3,3.3,0,0,0-2.4.1,4,4,0,0,0-1.8,1A3.1,3.1,0,0,0,25,61.5a2.7,2.7,0,0,0,0,2.3,2.2,2.2,0,0,0,1.7,1,4.6,4.6,0,0,0,2.3-.5c.6-.4,1.2-.5,1.3-1.4s-.9-.5-1.5-.2-2,.1-1.6-.7m1.5-1.8a.7.7,0,0,1-.9.7C27.9,60.6,28.2,60.1,28.7,60.2Z" transform="translate(11.5 12.7)"/><path class="cls-143" d="M22.4,60.2A2.1,2.1,0,0,0,21.2,62C21.9,61.8,22,60.8,22.4,60.2Z" transform="translate(11.5 12.7)"/><path class="cls-143" d="M28.7,60.2c-.5-.1-.8.4-.9.7A.7.7,0,0,0,28.7,60.2Z" transform="translate(11.5 12.7)"/><path class="cls-144" d="M37,62a20.9,20.9,0,0,0-2.5,0c.2.2.9,0,1.2,0A5.7,5.7,0,0,0,37,62Z" transform="translate(11.5 12.7)"/><path class="cls-112" d="M36.6,64.2h.1c-.3-.2-.9,0-1.3,0a4.8,4.8,0,0,0-1.2,0Z" transform="translate(11.5 12.7)"/><path class="cls-88" d="M68.5,64.2h2.2c-.1-.2-.9,0-1.1,0S68.6,64,68.5,64.2Z" transform="translate(11.5 12.7)"/><path class="cls-88" d="M75.8,64.2c.3.2,1.1-.2,1.4,0A3.3,3.3,0,0,0,75.8,64.2Z" transform="translate(11.5 12.7)"/><path class="cls-145" d="M36.6,66.4c.2-.1,0-.8.1-1.1V64.2h-.1C36.5,65,36.7,65.7,36.6,66.4Z" transform="translate(11.5 12.7)"/><path class="cls-146" d="M85.2,68.6c.2-.1.1-.8.1-1.1s.1-.9-.1-1.1Z" transform="translate(11.5 12.7)"/><path class="cls-147" d="M68.5,68.6H66.2c.2.2.9.1,1.2.1S68.3,68.8,68.5,68.6Z" transform="translate(11.5 12.7)"/></svg>