<?xml version="1.0" encoding="utf-8"?>
<!-- Generator: Adobe Illustrator 25.2.1, SVG Export Plug-In . SVG Version: 6.00 Build 0)  -->
<svg version="1.1" id="Camada_2" xmlns="http://www.w3.org/2000/svg" xmlns:xlink="http://www.w3.org/1999/xlink" x="0px" y="0px"
	 viewBox="0 0 554 674" style="enable-background:new 0 0 554 674;" xml:space="preserve">
<style type="text/css">
	.st0{fill:#AE556E;}
	.st1{fill:#EBB665;}
	.st2{fill:#222221;}
	.st3{fill:#FFFFFF;}
	.st4{fill:#3E0013;}
	.st5{fill:#000201;}
	.st6{fill:#F8C65E;}
</style>
<g>
	<g>
		<rect x="65.7" y="409.4" class="st0" width="253.1" height="18.5"/>
		<rect x="65.7" y="288.5" class="st0" width="253.1" height="21.7"/>
	</g>
	<rect x="69.8" y="307.4" class="st1" width="249" height="102"/>
	<g>
		<path class="st2" d="M322.8,432.5V284.2H61.7v148.2h44.9V530h-8.2v9.1h24.5V530h-8.2v-97.5h155.3V530h-8.2v9.1h24.5V530h-8.2
			v-97.5H322.8z M69.7,293.4h245.1v130H69.7V293.4z"/>
		<path class="st2" d="M163.6,381.5h-24.4v-46.2h24.4V381.5L163.6,381.5z M147.3,372.4h8.3v-28h-8.3V372.4z"/>
		<polygon class="st2" points="114.7,353.8 106.4,353.8 106.4,335.2 98.4,335.2 98.4,381.6 106.4,381.6 106.4,362.9 114.7,362.9 
			114.7,381.6 122.8,381.6 122.8,335.2 114.7,335.2 		"/>
		<polygon class="st2" points="180,344.4 188.2,344.4 188.2,381.6 196.3,381.6 196.3,344.4 204.5,344.4 204.5,335.3 180,335.3 		"/>
		<polygon class="st2" points="245.3,344.4 245.3,335.3 220.9,335.3 220.9,381.5 245.3,381.5 245.3,372.4 228.9,372.4 228.9,362.9 
			245.3,362.9 245.3,353.8 228.9,353.8 228.9,344.4 		"/>
		<polygon class="st2" points="286.1,381.5 261.7,381.5 261.7,335.2 269.7,335.2 269.7,372.4 286.1,372.4 		"/>
	</g>
	<g>
		<rect x="294.3" y="353.8" class="st3" width="12.2" height="9.1"/>
		<rect x="77.9" y="353.8" class="st3" width="12.2" height="9.1"/>
	</g>
	<g>
		<rect x="77.9" y="404.8" class="st2" width="228.6" height="9.1"/>
		<rect x="77.9" y="302.8" class="st2" width="228.6" height="9.1"/>
	</g>
</g>
<g>
	<path class="st4" d="M519.3,438.6v-11.8V130.3V71V59.2h-38.9L358.5,22v404.8v11.8h-19.3v25.9h199.4v-25.9H519.3z M426.8,99.7H451
		v24.2h-24.2V99.7z M426.8,148.8H451V173h-24.2V148.8z M426.8,197.8H451V222h-24.2V197.8z M426.8,246.9H451v24.2h-24.2V246.9z
		 M426.8,344.9H451v24.2h-24.2V344.9z M402,369.1h-24.2v-24.2H402V369.1z M402,320.1h-24.2v-24.2H402V320.1z M402,271.1h-24.2v-24.2
		H402V271.1z M402,222h-24.2v-24.2H402V222z M402,123.9h-24.2V99.7H402V123.9z M459.5,438.6h-41.2v-32.5h41.2V438.6L459.5,438.6z
		 M500.1,320.1h-24.2v-24.2h24.2V320.1z M500.1,271.1h-24.2v-24.2h24.2V271.1z M500.1,173h-24.2v-24.2h24.2V173z M500.1,123.9h-24.2
		V99.7h24.2V123.9z"/>
</g>
<g>
	<g>
		<path class="st5" d="M357.8,612.1V492.9h4.6v-22.6h-96.6v141.8h-7.5V441.7h7.5h6.9v-19.9h-6.9H128.4h-6.9v19.9h6.9h7.5v170.4h-7.5
			V470.3H31.8v22.6h4.6v119.2H27v23.3h340.2v-23.3H357.8z M107.3,518.3v14.6v2.2c0,2.9-2.1,5.2-4.8,5.7v49H63v-49
			c-2.7-0.4-4.8-2.8-4.8-5.7v-2.2v-14.6V516h2.3h6.9h2.3h0.2h6.9H79h0.2h6.9h2.3h0.2h6.9h2.3h0.2h6.9h2.3L107.3,518.3L107.3,518.3z
			 M227.2,543.7h-22.5c-0.5-1.6-1.4-3-2.7-4l16.8-16.8C224,528.2,227.2,535.6,227.2,543.7z M199,513.6c6.4,0.4,12.3,2.8,17.1,6.6
			L199,537.3V513.6z M195.2,513.6v23.7l-17.1-17.1C182.9,516.4,188.8,514,195.2,513.6z M175.4,522.8l16.8,16.8c-1.3,1-2.2,2.4-2.7,4
			H167C167,535.6,170.2,528.2,175.4,522.8z M230.7,612.1h-67.2v-48.6h67.2V612.1z M336.1,518.3v14.6v2.2c0,2.9-2.1,5.2-4.8,5.7v49
			h-39.5v-49c-2.7-0.4-4.8-2.8-4.8-5.7v-2.2v-14.6V516h2.3h6.9h2.3h0.2h6.9h2.3h0.2h6.9h2.3h0.2h6.9h2.3h0.2h6.9h2.3L336.1,518.3
			L336.1,518.3z"/>
		<path class="st5" d="M289.2,532.9v2.2c0,1.9,1.5,3.5,3.5,3.5c1.9,0,3.5-1.6,3.5-3.5v-2.2v-14.6h-6.9L289.2,532.9L289.2,532.9z"/>
		<path class="st5" d="M308.1,532.9v2.2c0,1.9,1.5,3.5,3.5,3.5c1.9,0,3.5-1.6,3.5-3.5v-2.2v-14.6h-6.9L308.1,532.9L308.1,532.9z"/>
		<path class="st5" d="M298.6,532.9v2.2c0,1.9,1.6,3.5,3.5,3.5c1.9,0,3.5-1.6,3.5-3.5v-2.2v-14.6h-6.9L298.6,532.9L298.6,532.9z"/>
		<path class="st5" d="M317.5,532.9v2.2c0,1.9,1.6,3.5,3.5,3.5s3.5-1.6,3.5-3.5v-2.2v-14.6h-6.9L317.5,532.9L317.5,532.9z"/>
		<path class="st5" d="M326.9,532.9v2.2c0,1.9,1.5,3.5,3.5,3.5c1.9,0,3.5-1.6,3.5-3.5v-2.2v-14.6h-6.9L326.9,532.9L326.9,532.9z"/>
		<path class="st5" d="M60.4,532.9v2.2c0,1.9,1.5,3.5,3.5,3.5c1.9,0,3.5-1.6,3.5-3.5v-2.2v-14.6h-6.9L60.4,532.9L60.4,532.9z"/>
		<path class="st5" d="M98.1,532.9v2.2c0,1.9,1.5,3.5,3.5,3.5c1.9,0,3.5-1.6,3.5-3.5v-2.2v-14.6h-6.9L98.1,532.9L98.1,532.9z"/>
		<path class="st5" d="M79.2,532.9v2.2c0,1.9,1.5,3.5,3.5,3.5c1.9,0,3.5-1.6,3.5-3.5v-2.2v-14.6h-6.9L79.2,532.9L79.2,532.9z"/>
		<path class="st5" d="M88.6,532.9v2.2c0,1.9,1.6,3.5,3.5,3.5s3.5-1.6,3.5-3.5v-2.2v-14.6h-6.9L88.6,532.9L88.6,532.9z"/>
		<path class="st5" d="M69.8,532.9v2.2c0,1.9,1.6,3.5,3.5,3.5c1.9,0,3.5-1.6,3.5-3.5v-2.2v-14.6h-6.9L69.8,532.9L69.8,532.9z"/>
	</g>
</g>
<g>
	<g>
		<path class="st6" d="M261.7,29.2V13H16.8v16.2h14.9v98.9H16.8v16.2h14.9v106.2H16.8v16.2h244.9v-16.2h-14.9V144.3h14.9v-16.2
			h-14.9V29.2H261.7z M194.7,48.2H225v60h-30.3V48.2z M53.4,48.2h30.3v60H53.4V48.2z M108.4,250.6H60.2v-90h48.1V250.6z M124.1,48.2
			h30.3v60h-30.3V48.2z M226.2,162.8V178v2.3c0,3-2.2,5.5-5,5.9v37h-41.1v-37c-2.2-0.4-4-1.9-4.7-4c-0.7,2.1-2.5,3.7-4.7,4v37h-41.1
			v-37c-2.9-0.5-5-2.9-5-5.9V178v-15.2v-2.4h2.4h7.2h2.4h0.2h7.2h2.4h0.2h7.2h2.4h0.2h7.2h2.4h0.2h7.2h1.8h0.6h1.8h7.2h2.4h0.2h7.2
			h2.4h0.2h7.2h2.4h0.2h7.2h2.4h0.2h7.2h2.4L226.2,162.8L226.2,162.8z"/>
		<path class="st6" d="M166,178v2.3c0,2,1.6,3.6,3.6,3.6c2,0,3.6-1.6,3.6-3.6V178v-15.2H166L166,178L166,178z"/>
		<path class="st6" d="M126.8,178v2.3c0,2,1.6,3.6,3.6,3.6c2,0,3.6-1.6,3.6-3.6V178v-15.2h-7.2L126.8,178L126.8,178z"/>
		<path class="st6" d="M136.6,178v2.3c0,2,1.6,3.6,3.6,3.6c2,0,3.6-1.6,3.6-3.6V178v-15.2h-7.2L136.6,178L136.6,178z"/>
		<path class="st6" d="M146.4,178v2.3c0,2,1.6,3.6,3.6,3.6c2,0,3.6-1.6,3.6-3.6V178v-15.2h-7.2L146.4,178L146.4,178z"/>
		<path class="st6" d="M156.2,178v2.3c0,2,1.6,3.6,3.6,3.6c2,0,3.6-1.6,3.6-3.6V178v-15.2h-7.2L156.2,178L156.2,178z"/>
		<path class="st6" d="M177.4,178v2.3c0,2,1.6,3.6,3.6,3.6c2,0,3.6-1.6,3.6-3.6V178v-15.2h-7.2L177.4,178L177.4,178z"/>
		<path class="st6" d="M206.8,178v2.3c0,2,1.6,3.6,3.6,3.6c2,0,3.6-1.6,3.6-3.6V178v-15.2h-7.2L206.8,178L206.8,178z"/>
		<path class="st6" d="M216.6,178v2.3c0,2,1.6,3.6,3.6,3.6c2,0,3.6-1.6,3.6-3.6V178v-15.2h-7.2L216.6,178L216.6,178z"/>
		<path class="st6" d="M187.2,178v2.3c0,2,1.6,3.6,3.6,3.6c2,0,3.6-1.6,3.6-3.6V178v-15.2h-7.2L187.2,178L187.2,178z"/>
		<path class="st6" d="M197,178v2.3c0,2,1.6,3.6,3.6,3.6c2,0,3.6-1.6,3.6-3.6V178v-15.2H197L197,178L197,178z"/>
	</g>
</g>
</svg>
