<svg id="Camada_1" data-name="Camada 1" xmlns="http://www.w3.org/2000/svg" viewBox="0 0 56.2 71.9"><defs><style>.cls-1{fill:#0b0b09;}</style></defs><g id="Layer_1" data-name="Layer 1"><path class="cls-1" d="M62.7,72h-.4L30.5,25.7a.4.4,0,0,1,.6-.4L62.8,71.5c.1.2.1.4-.1.5M46.8,59.3a141.8,141.8,0,0,0-18.7.3l1.7-.5,3.5-.9H27.7l1.7-.5,3.5-.9h-.1a21.6,21.6,0,0,0-3.6,0H27.4l1.6-.5,3.4-.8.7-.2H27l1.6-.4,3.3-.9H28l.3-.4,3.2-.8.6-.2H29.3l.6-.7C35,50,41.1,50,44.5,50l1.9,2.8c.2,2.1.4,4.6.4,6.5m-4.3-12h-1c-2.8,0-6.2,0-9.4.2l5.8-7.3,4.7,6.9h-.1M11.1,72.4h-.4a.2.2,0,0,1-.1-.4L37,39.1l.4.5Zm11.7-38h0m.6,1.3L24.9,34l1.9-1.9a11.9,11.9,0,0,1,2.3-1.6l1.6-.7,5,7.3L27.1,47.8A7,7,0,0,1,25,46.4,5.3,5.3,0,0,1,23.8,45a3.4,3.4,0,0,1-.7-1.5c0-.2-.1-.4-.1-.6a.7.7,0,0,1,.1-.5V42a.1.1,0,0,0,.1-.1.1.1,0,0,1-.1.1c0,.1-.1.2-.1.3a1.4,1.4,0,0,0-.2.6c0,.2-.1.4-.1.7a6.7,6.7,0,0,0,.3,1.8,16.2,16.2,0,0,0,1,1.8l.9,1.1h-.2l-.5-.3-.4-.3-.8-.8a7.1,7.1,0,0,1-.7-.9,2.5,2.5,0,0,1-.4-.9,4.2,4.2,0,0,1-.4-1c0-.3-.1-.5-.1-.8V42.1a.3.3,0,0,0,.1-.2.6.6,0,0,1,.1-.4h-.2v.2c-.1,0-.2.2-.2.3a.8.8,0,0,0-.2.4.3.3,0,0,1-.1.2,2.9,2.9,0,0,0-.2.9c0,.3-.1.6-.1,1s.1.8.2,1.2a7.8,7.8,0,0,0,.5,1.4,3.5,3.5,0,0,0,.5.8l.3.5a1,1,0,0,0,.4.5l.4.5-.7-.5-.5-.4-.4-.4-.9-1-.6-1.2a5.3,5.3,0,0,1-.3-1.2,6.6,6.6,0,0,1-.1-1.4,2.8,2.8,0,0,1,.1-.9,2.9,2.9,0,0,1,.2-.9c0-.1.1-.2.1-.3l.2-.3c.1-.2.2-.3.2-.4s.1-.1.1-.2h-.4l-.2.2h0l-.2.2c0,.1-.1.2-.2.4l-.3.4c0,.1-.1.2-.1.3l-.3,1a5,5,0,0,0-.2,1.2,7.6,7.6,0,0,0,.1,1.5,4.9,4.9,0,0,0,.5,1.6,3.6,3.6,0,0,0,.4.9l.3.5.5.7.5.6.2.2h-.1l-1.1-.8-.6-.5-.5-.6a5.7,5.7,0,0,1-.8-1.3,3.5,3.5,0,0,1-.6-1.4,7.7,7.7,0,0,1-.2-1.5,6.4,6.4,0,0,1,.4-2.8l.5-1,.5-.7.4-.5a.1.1,0,0,1,.1-.1h-.2l-.4.4-.6.7-.6,1a7.1,7.1,0,0,0-.9,2.8,5.4,5.4,0,0,0,0,1.8,4.7,4.7,0,0,0,.4,1.7,8.9,8.9,0,0,0,.8,1.7l.5.7.3.4c-8.6-5.1-.7-15.2,4.7-15.3-.5.9-.8,1.7-1.1,2.3l-.4,1.1c-.2.2-.2.3-.2.3l.3-.2.8-.9a8.7,8.7,0,0,0,1.2-1.4m1.3-12.2h-.8l-.6-.2H26l.5-.2a2,2,0,0,0,.9-.5,3.8,3.8,0,0,0,1.3-1.9,6,6,0,0,0,.2-2.7,9.4,9.4,0,0,0-.6-2.8A23.9,23.9,0,0,0,27,12a22.7,22.7,0,0,0-1.8-2.5,21.8,21.8,0,0,0-2.1-2.2,15.3,15.3,0,0,0-2.2-1.6,12,12,0,0,0-2.3-1.1,5.1,5.1,0,0,0-2-.4,4,4,0,0,0-1.6.1l-1,.4-.4.2.3-.3,1-.5a3.9,3.9,0,0,1,1.7-.4,5.7,5.7,0,0,1,2.2.2,7.7,7.7,0,0,1,2.5,1,9.6,9.6,0,0,1,2.5,1.6,15.8,15.8,0,0,1,2.3,2.2,18.9,18.9,0,0,1,2,2.7,13.6,13.6,0,0,1,1.3,3,8.7,8.7,0,0,1,.6,3.2,6.1,6.1,0,0,1-.4,3,4.9,4.9,0,0,1-1.8,2.2h-.5l-.6.2-.5.2H24.7m10.4,6.1h.4l.8.2,1.6.3,1.5.4,1.2.4L38.2,34l-3.1-4.4Zm10.6-1.4h.4a.2.2,0,0,1,.1.4l-6.3,7.9-.4-.5Zm.3-8.1a.9.9,0,0,0,.1.5,1.3,1.3,0,0,0,.1.6,1.9,1.9,0,0,0,.2.7c.1.1.1.3.2.4l.2.4a.5.5,0,0,0,.2.4l.3.4a2.7,2.7,0,0,0,.8.7,4.1,4.1,0,0,0,2.2.7,8.5,8.5,0,0,0,2.6-.5,12.8,12.8,0,0,0,2.5-1.5,15.1,15.1,0,0,0,4.2-4.5,13.5,13.5,0,0,0,1.5-2.6,13.4,13.4,0,0,0,.9-2.6,11.8,11.8,0,0,0,.4-2.5,6.5,6.5,0,0,0-.2-2,3.4,3.4,0,0,0-.6-1.6L61,6.3,60.7,6l.3.2a5.9,5.9,0,0,1,.8.8,5.4,5.4,0,0,1,.9,1.5,7.2,7.2,0,0,1,.4,2.2,8.2,8.2,0,0,1-.2,2.7,11.5,11.5,0,0,1-.8,2.9,19.1,19.1,0,0,1-1.5,2.8,12.1,12.1,0,0,1-2,2.6,12.6,12.6,0,0,1-2.4,2.2,15.9,15.9,0,0,1-2.9,1.5,6.3,6.3,0,0,1-3,.4,3.8,3.8,0,0,1-2.6-1l-.3-.2h-.2l-.4-.5-.3-.5c0-.2-.1-.3-.2-.5s-.1-.3-.1-.4a.9.9,0,0,1-.1-.5c-.1-.3-.1-.5-.2-.8V20.1a1,1,0,0,0,.1-.4v.4m0,13.4,3.5,2.2a4.1,4.1,0,0,0,1.2.4c.3.1.4,0,.4,0h-.4a2.9,2.9,0,0,1-.8-.8L47.8,33c1.7-.2,4.2-.4,6.3.7a7.6,7.6,0,0,1,3.7,4.6c1.1,3.5.7,6.5-1.2,8.7A8.3,8.3,0,0,1,53,49.3l.9-.8,1.2-1.4a6.1,6.1,0,0,0,.7-1.7,5.7,5.7,0,0,0,.3-1.8,7.3,7.3,0,0,0-.4-3,5.4,5.4,0,0,1-.5-1.1l-.5-.7-.4-.5h0l.3.5a3,3,0,0,0,.4.8c.1.4.2.7.3,1.2s.1.8.2,1.3-.1,1-.1,1.5a5.8,5.8,0,0,1-.5,1.4,3.8,3.8,0,0,1-.9,1.3,5.7,5.7,0,0,1-1.1,1.1l-1.3.8h-.3l-.4.2h-.1c.1-.1.2-.1.2-.2A4.9,4.9,0,0,0,52.2,47a.5.5,0,0,0,.2-.4,2.4,2.4,0,0,0,.6-1.1,8.8,8.8,0,0,0,.5-1.5,6,6,0,0,0-.1-2.7,3.6,3.6,0,0,0-.2-1.1.8.8,0,0,1-.2-.4l-.2-.3-.3-.5h-.1a.3.3,0,0,1,.1.2l.2.4a.6.6,0,0,1,.1.4c.1.1.1.2.1.4s.1.6.2,1a5.3,5.3,0,0,1-.1,1.2,2.7,2.7,0,0,1-.3,1.2,5,5,0,0,1-.5,1.3l-.9,1.1a5.2,5.2,0,0,1-1.1,1l-1,.5H49l-.3.2h-.2a2.4,2.4,0,0,0,.8-.9l.3-.3.6-.9a4.2,4.2,0,0,0,.6-1.4,7.5,7.5,0,0,0,.4-2.4,3.1,3.1,0,0,0-.1-1v-.4a.4.4,0,0,1-.1-.3c-.1-.2-.2-.3-.2-.4a.3.3,0,0,1-.1-.2.3.3,0,0,0,.1.2.6.6,0,0,0,.1.4v1.6l-.3,1a5.4,5.4,0,0,1-.5,1.1,3.3,3.3,0,0,1-.6,1l-.9,1-1.2.8-.3.3-.3-.5a10,10,0,0,0,2.2-4,2.8,2.8,0,0,0,.1-.9v-.7c0-.1-.1-.3-.1-.4h0v.7c0,.1-.1.3-.1.4a4.1,4.1,0,0,1-.3.8,6.9,6.9,0,0,1-1.1,1.7,9.3,9.3,0,0,1-1.4,1.4l-5.7-8.2,3.8-4.8,1.8,1m17.2,37-13.1-19c3.4-.3,6-1.5,7.7-3.5s2.8-6.2,1.5-10.2a9.3,9.3,0,0,0-4.5-5.5c-3.1-1.6-6.7-1-8.4-.6l-.9-.8,2.6-3.2,1.4.3c3.9.3,8.7-2.8,12-7.6A19.5,19.5,0,0,0,65,11c.2-3-.8-5.4-2.6-6.7a6.2,6.2,0,0,0-2.6-.9c-3.9-.3-8.7,2.7-12,7.6s-4.4,10.8-2.6,14.2l-3,3.7-.3-.2L40.3,28l-1.7-.5L36.9,27l-.9-.2H33.1l-2.4-3.4c2.4-3.3,1.2-9.7-3.1-15-3.1-3.8-7.2-6.3-10.7-6.6a5.5,5.5,0,0,0-4.4,1.2C10.7,4.2,10,6.6,10.4,9.7a19.7,19.7,0,0,0,4.3,9c3,3.8,7.1,6.3,10.6,6.6a5.4,5.4,0,0,0,2.2-.1l1.6,2.4-1.3.7a13.9,13.9,0,0,0-2.5,2.3A11.8,11.8,0,0,0,23.6,33h0c-2.1-.5-9-1.6-12.5,5.5a10.2,10.2,0,0,0,.1,9.9c1.9,3.1,5.7,5,10.9,5.5h.1L9.2,70.1a2,2,0,0,0,.3,2.7,2.1,2.1,0,0,0,1.1.4,2,2,0,0,0,1.6-.7l10.4-13,.2,3.3h1.4c2.8-.6,15.4-1.2,23.6-.5h1.3V60.9a26.6,26.6,0,0,0,0-4L60.1,72.7a1.8,1.8,0,0,0,1.4.8,2.4,2.4,0,0,0,1.2-.3,1.9,1.9,0,0,0,.5-2.7" transform="translate(-8.8 -1.5)"/></g></svg>