<svg id="Camada_1" data-name="Camada 1" xmlns="http://www.w3.org/2000/svg" viewBox="0 0 184.9 73.6"><defs><style>.cls-1{fill:#fefffe;}.cls-2{fill:#1b181c;}.cls-3{fill:#fecc00;}.cls-4{fill:#201c20;}.cls-5{fill:#211d20;}.cls-6{fill:#1f1c20;}.cls-7{fill:#1e1b1f;}.cls-8{fill:#201d21;}.cls-9{fill:#1f1b1f;}.cls-10{fill:#221d21;}.cls-11{fill:#211c1f;}.cls-12{fill:#201b1f;}.cls-13{fill:#1f1a1e;}.cls-14{fill:#201e22;}.cls-15{fill:#29262a;}.cls-16{fill:#feffff;}.cls-17{fill:#f9fafa;}.cls-18{fill:#f5f8f8;}.cls-19{fill:#fbfcfc;}</style></defs><path class="cls-1" d="M164.1,73.8H26V.2H210.9V73.8H164.1m-6.9-3.9v.3h1.1l.4-1h1.9l.5,1.1h1l-1.9-5H159c0,.1-.1.2-.1.4l-1.1,2.7-.6,1.6m36,.3h2.2l.4-1.1h2l.4,1.1h1.1c-.6-1.7-1.3-3.3-1.9-5h-1.1c-.7,1.7-1.3,3.3-1.9,5l-.2-.2a5.9,5.9,0,0,0-1.5-2l.5-.2a1.2,1.2,0,0,0,.7-1.4,1.3,1.3,0,0,0-1.1-1.1h-2.9v5h1V68.1a1.1,1.1,0,0,1,1.2.5,4.3,4.3,0,0,0,.4.7l.7.9M39.3,60.2l2.2.7A37.6,37.6,0,0,0,49.6,62a38.2,38.2,0,0,0,8.3-.5,22.8,22.8,0,0,0,5.8-1.7A16.2,16.2,0,0,0,72,52.2a19.6,19.6,0,0,0,2-6.5,36.4,36.4,0,0,0,.4-5.7V12.9H87.7V61H99.2V12.9h45.6v-9H63V37.1a28.8,28.8,0,0,1-.6,5.9,14.5,14.5,0,0,1-1.6,4.7,9.5,9.5,0,0,1-6,4.9,15,15,0,0,1-7.3,0,9.4,9.4,0,0,1-5.9-4.4,14.9,14.9,0,0,1-1.7-4.4,28.8,28.8,0,0,1-.7-6.5V3.9H27.7V40.3a29.7,29.7,0,0,0,.3,4.2,22.9,22.9,0,0,0,1.1,5.2,16.8,16.8,0,0,0,4.3,6.8,17.3,17.3,0,0,0,5.9,3.7M139.9,24.3h4.8v-9H101.8V61.1h11.4V24.3h26.7M207,61h1.5c-.1-.2-.2-.3-.2-.4L205,55.4c-1-1.6-2-3.2-3.1-4.8a15.8,15.8,0,0,0-4.8-4.5l-.3-.2h.2a20.2,20.2,0,0,0,3.3-.9,8.2,8.2,0,0,0,4.9-5.2,10.2,10.2,0,0,0-.1-7.1,8.2,8.2,0,0,0-3.5-4.3,10.1,10.1,0,0,0-3.7-1.2,25.8,25.8,0,0,0-4.8-.3H177.9v34h6.9V46.8h4a5.2,5.2,0,0,1,3,1.8,13.4,13.4,0,0,1,1.1,1.4l4.7,6.9,2.7,4H207M115.8,40V61h10.8V36h18.1V27H115.8V40m54.1,7h.2a9,9,0,0,0,5.3-6.4,13.1,13.1,0,0,0,0-6.8,9.3,9.3,0,0,0-4.2-5.5,8.3,8.3,0,0,0-4.4-1.2l-4.9-.2H149.7V61h6.9V48.1h4.6a56.3,56.3,0,0,0,5.8-.3,7.4,7.4,0,0,0,2.9-.8M36.5,67.3V65.2h-.9v3.1h-.1l-1.9-3.2h-1v5h1V67.1h0l1.9,3.1h1V67.3M51.8,70l.3.2h1A6.5,6.5,0,0,0,51.5,68l.5-.2a1.2,1.2,0,0,0,.7-1.4,1.1,1.1,0,0,0-1-1.1h-3c0,.7,0,4.7.1,5h.9V68.1a1.1,1.1,0,0,1,1.2.5l.9,1.4m100.8-1.3v1.5h1V68.1a1.1,1.1,0,0,1,1.2.5l1,1.6h1.3a9.2,9.2,0,0,0-1.7-2.2l.5-.2a1.5,1.5,0,0,0,.8-1.4,1.3,1.3,0,0,0-1.1-1.1h-3v3.5m47.2.1c.1.4,0,.9.1,1.4h.9V68.1a4,4,0,0,1,0-1.1c.7,1.1,1.3,2.2,2,3.2h.9v-5h-.9v3.2h0l-2-3.2h-1v3.6m-80.5-2.1h.4a1.6,1.6,0,0,0-1.4-1.4h-1a2.3,2.3,0,0,0-2,1.6,3.1,3.1,0,0,0,0,1.9,1.9,1.9,0,0,0,1.5,1.5,3.5,3.5,0,0,0,2.8-.4.5.5,0,0,0,.2-.4V67.5h-2.1v.9h1c.1.7,0,.7-.6.9h-.3a1.2,1.2,0,0,1-1.4-.8,2.3,2.3,0,0,1-.1-1.8,1.4,1.4,0,0,1,1.2-.8,1.1,1.1,0,0,1,1.2.7h.6m-23.9.5v3h1V67.1h.1l.3.6,1.4,2.2c.1.2.1.3.3.3h.9v-5h-1v3.2h-.1l-1.9-3.2h-1v2M168.6,70c0,.2,0,.2.1.2h2.1a1.8,1.8,0,0,0,1.8-1.6,3.3,3.3,0,0,0,0-1.7,1.8,1.8,0,0,0-2-1.7h-2V70m-54-2.6a.6.6,0,0,1-.1-.4,2.2,2.2,0,0,0-1.5-1.8h-1.2a2,2,0,0,0-1.9,1.7,3.1,3.1,0,0,0,0,1.9,2.3,2.3,0,0,0,1.4,1.5h1.4a2.3,2.3,0,0,0,1.8-1.7c.1-.4,0-.7.1-1.1M174.5,70a4.1,4.1,0,0,0,1.6.3,2,2,0,0,0,1.9-1.7,2.3,2.3,0,0,0,.1-1.4,2.2,2.2,0,0,0-1.5-2h-1.2a2.4,2.4,0,0,0-2,1.7v1.3a2.1,2.1,0,0,0,1.1,1.9M102,65.2a2,2,0,0,0-1.7,1.6,7.6,7.6,0,0,0-.1,1.5,2.1,2.1,0,0,0,1.6,1.8,2,2,0,0,0,1.1.1,2,2,0,0,0,2-1.6,7.6,7.6,0,0,0,.1-1.5,2.1,2.1,0,0,0-2-1.9,3.3,3.3,0,0,0-1,0M70.1,69.8v.4h2.3a2,2,0,0,0,1.8-1.5,6.7,6.7,0,0,0,0-2,1.9,1.9,0,0,0-1.9-1.5H70.1v4.6m-9.3-4.6h-.6v5h2.3a1.8,1.8,0,0,0,1.7-1.5,3.1,3.1,0,0,0,0-1.9,1.8,1.8,0,0,0-1.9-1.6H60.8m84.4,0h-2.1a41.4,41.4,0,0,0,0,5h2.1a2,2,0,0,0,1.9-1.5,3.8,3.8,0,0,0,0-1.5,1.9,1.9,0,0,0-1.9-2m6,4.1H149V68h2.5v-.9h-2.4v-1h2.6v-.8H148v5h3.8v-.9h-.6m-63,0H86.8c.1-.4,0-.9.1-1.3h2.4v-.9H86.9V66h2.6v-.8H85.9v5h3.7v-.9H88.2M55.7,66c.3,0,.5.3.6.7h1a1.3,1.3,0,0,0-.9-1.3,2.5,2.5,0,0,0-1.9,0,1.1,1.1,0,0,0-.9,1.1,1.4,1.4,0,0,0,.7,1.3l.8.3.9.2c.2.1.4.2.4.5a.6.6,0,0,1-.4.6,1.2,1.2,0,0,1-1.6-.6v-.2h-1a1.6,1.6,0,0,0,1.2,1.5,3.1,3.1,0,0,0,1.9,0,1.3,1.3,0,0,0,.9-1.3,1.2,1.2,0,0,0-.9-1.4l-1-.4-.6-.2c-.2,0-.3-.2-.3-.4a.3.3,0,0,1,.3-.3h.8m19.4,2.5v1.7h3.8v-.9H76.2V68h2.4v-.9H76.2V66h2.6v-.8H75.1v3.3m64.9.8h-.5V68h2.4v-.9h-2.4V66h2.6v-.8h-3.6v5h3.7v-.9H140m-94.1.9h1.9v-.9H45.1V68h2.5v-.9H45.1V66h2.6v-.8H44.1v5h1.8m-14.5-.8a2.5,2.5,0,0,0,.2-1.2V65.5a.4.4,0,0,0-.1-.3h-.9V68c0,.2-.1.5-.1.8a.7.7,0,0,1-.4.5c-.6.2-1.5.1-1.5-.9a26.2,26.2,0,0,0,0-2.8v-.4h-1v1.7a12.8,12.8,0,0,0,.1,1.9A1.3,1.3,0,0,0,29,70.2h1a1.7,1.7,0,0,0,1.4-.9M184.9,69a4.3,4.3,0,0,0-.5,1.2h1.1l.4-1.1h1.9l.5,1.1h1.1c-.7-1.7-1.4-3.4-2-5h-1.1L184.9,69m22.9-2.5-.5-1.3h-1.1c-.6,1.7-1.2,3.3-1.9,5h1.1l.4-1.1h2l.4,1.1h1.1l-1.5-3.7m-79.3,0-1.4,3.7h1.1l.4-1.1h1.9l.5,1.1h1c-.6-1.7-1.3-3.3-1.9-5H129c-.2.4-.3.8-.5,1.3M69.2,69.2l-1.5-4H66.6l-1.9,5h1l.4-1.1h2l.4,1.1h1.1a3,3,0,0,0-.4-1m114.6-1.1a1.6,1.6,0,0,0,.8-1.8,1.3,1.3,0,0,0-1.2-1h-2.5a41.6,41.6,0,0,0,0,5h.9V68.3h.8l1.2-.2m-58.1-1.5v.2l.9-.2a1.5,1.5,0,0,0-.8-1.2,2.3,2.3,0,0,0-3.3,1.2,2.9,2.9,0,0,0-.1,1.6,2.2,2.2,0,0,0,3,1.9,1.6,1.6,0,0,0,1.2-1.4l-.9-.4a.8.8,0,0,0-.1.4,1.1,1.1,0,0,1-1.1.7,1.1,1.1,0,0,1-1-.8,2.8,2.8,0,0,1,0-1.8,1.1,1.1,0,0,1,.9-.8,1.1,1.1,0,0,1,1.2.6M91,69.7a2.3,2.3,0,0,0,1.8.6,1.8,1.8,0,0,0,1.7-1.7l-.9-.3c0,.2-.1.3-.1.4a1,1,0,0,1-1,.7,1.2,1.2,0,0,1-1.1-.8,4.5,4.5,0,0,1-.1-1.1,1.9,1.9,0,0,1,.2-.8,1,1,0,0,1,1-.7,1,1,0,0,1,1,.6.3.3,0,0,0,.1.2l.8-.2h.1a1.9,1.9,0,0,0-.7-1.2,2.4,2.4,0,0,0-3,.5,3.1,3.1,0,0,0-.5,1.2,3.2,3.2,0,0,0,.7,2.6M41.5,68.3v.4h-.1l-1.2-3.5H39l1.8,5h1l1.8-5H42.5c-.3,1-.6,2-1,3.1m95.9-2.2h.2v-.8h-3.4v5h1V68.1h2.1v-.9h-2V66.1h2.1m-54.7.7c0,1.1.1,2.2.1,3.3h1V66h1.4v-.8H81.3v.8h1.4v.7M109.3,70v-.7h-2.5v-4h-1v4.9h3.3c.1,0,.1-.1.2-.2m55.9-.7h-1.6v-4h-1v4.9H166v-.9h-.8M59,70.2h.2v-5h-.9v5H59M121.7,69V65.2h-1v5h1V69m-83.1-.4V65.2h-1v5h1V68.6m168.1-4.7c-.3.3-.3.7-.5,1.1h.6l.9-1h-1m-94,.4.4-.4H112l-.4,1a.6.6,0,0,0,.8-.3Z" transform="translate(-26 -0.2)"/><path class="cls-2" d="M39.3,60.2a17.3,17.3,0,0,1-5.9-3.7,16.8,16.8,0,0,1-4.3-6.8A22.9,22.9,0,0,1,28,44.5a29.7,29.7,0,0,1-.3-4.2V3.9H39.2V37.3a28.8,28.8,0,0,0,.7,6.5,14.9,14.9,0,0,0,1.7,4.4,9.4,9.4,0,0,0,5.9,4.4,15,15,0,0,0,7.3,0,9.5,9.5,0,0,0,6-4.9A14.5,14.5,0,0,0,62.4,43a28.8,28.8,0,0,0,.6-5.9V3.9h81.8v9H99.2V61H87.7V12.9H74.4V40a36.4,36.4,0,0,1-.4,5.7,19.6,19.6,0,0,1-2,6.5,16.2,16.2,0,0,1-8.3,7.6,22.8,22.8,0,0,1-5.8,1.7,38.2,38.2,0,0,1-8.3.5,37.6,37.6,0,0,1-8.1-1.1Z" transform="translate(-26 -0.2)"/><path class="cls-3" d="M139.8,24.3H113.2V61.1H101.8V15.3h42.9v9Z" transform="translate(-26 -0.2)"/><path class="cls-2" d="M207,61h-6.7l-2.7-4-4.7-6.9a13.4,13.4,0,0,0-1.1-1.4,5.2,5.2,0,0,0-3-1.8h-4V60.9h-6.9v-34h15.2a25.8,25.8,0,0,1,4.8.3,10.1,10.1,0,0,1,3.7,1.2,8.2,8.2,0,0,1,3.5,4.3,10.2,10.2,0,0,1,.1,7.1,8.2,8.2,0,0,1-4.9,5.2,20.2,20.2,0,0,1-3.3.9h-.2l.3.2a15.8,15.8,0,0,1,4.8,4.5c1.1,1.6,2.1,3.2,3.1,4.8l3.3,5.2c0,.1.1.2.2.4H207M193.3,32.7h-8.5v8.6h5.9a34,34,0,0,0,4.5-.3,3.5,3.5,0,0,0,3.2-2.6,4.9,4.9,0,0,0,.2-2.4,3.6,3.6,0,0,0-1.6-2.5,3.3,3.3,0,0,0-1.6-.7Z" transform="translate(-26 -0.2)"/><path class="cls-2" d="M115.8,40V27h28.9v9H126.6V61.1H115.8Z" transform="translate(-26 -0.2)"/><path class="cls-2" d="M169.9,47.1a9.5,9.5,0,0,1-2.9.7,56.3,56.3,0,0,1-5.8.3h-4.6V61h-6.9V26.9h12.2l4.9.2a8.3,8.3,0,0,1,4.4,1.2,9.3,9.3,0,0,1,4.2,5.5,13.1,13.1,0,0,1,0,6.8,9,9,0,0,1-5.3,6.4h-.2m-8.4-14.4h-4.9v9.6h3.7a25.5,25.5,0,0,0,3.9-.2,5.1,5.1,0,0,0,2.7-.9,5,5,0,0,0,1.7-5,4.4,4.4,0,0,0-3.7-3.3A18.8,18.8,0,0,0,161.5,32.7Z" transform="translate(-26 -0.2)"/><path class="cls-4" d="M36.5,67.4v2.8h-1l-1.9-3.1h0v3.1h-1v-5h1l1.9,3.2h.1V65.2h.9Z" transform="translate(-26 -0.2)"/><path class="cls-5" d="M51.8,70l-.9-1.4a1.1,1.1,0,0,0-1.2-.5v2.1h-.9c-.1-.3-.1-4.3-.1-5h3a1.1,1.1,0,0,1,1,1.1,1.2,1.2,0,0,1-.7,1.4l-.5.2a6.5,6.5,0,0,1,1.6,2.2h-1l-.3-.2m-.1-3.3c0-.4-.2-.6-.5-.6H49.7v1.2h1.5C51.5,67.3,51.6,67.1,51.7,66.7Z" transform="translate(-26 -0.2)"/><path class="cls-5" d="M152.6,68.7V65.2h3a1.3,1.3,0,0,1,1.1,1.1,1.5,1.5,0,0,1-.8,1.4l-.5.2a9.2,9.2,0,0,1,1.7,2.2h-1.3l-1-1.6a1.1,1.1,0,0,0-1.2-.5v2.1h-1V68.7m1-1.6c0,.2.1.2.2.2h1.3a.6.6,0,0,0,.5-.6.5.5,0,0,0-.4-.6h-1.6Z" transform="translate(-26 -0.2)"/><path class="cls-4" d="M193.1,70.1l-.6-.8a4.3,4.3,0,0,1-.4-.7,1.1,1.1,0,0,0-1.2-.5v2.1h-1v-5h2.9a1.3,1.3,0,0,1,1.1,1.1,1.2,1.2,0,0,1-.7,1.4l-.5.2a5.9,5.9,0,0,1,1.5,2h-1.1m-1.3-2.8h.5q.6-.1.6-.6a.5.5,0,0,0-.6-.6h-1.4v1.2Z" transform="translate(-26 -0.2)"/><path class="cls-6" d="M199.8,68.7V65.2h1l2,3.2h0V65.2h.9v5h-.9c-.7-1-1.3-2.1-2-3.2a4,4,0,0,0,0,1.1v2.1h-.9C199.8,69.7,199.9,69.2,199.8,68.7Z" transform="translate(-26 -0.2)"/><path class="cls-4" d="M119.2,66.7h-.5a1.1,1.1,0,0,0-1.2-.7,1.4,1.4,0,0,0-1.2.8,2.3,2.3,0,0,0,.1,1.8,1.2,1.2,0,0,0,1.4.8h.3c.6-.2.7-.2.6-.9h-1v-.9h2.1v1.8a.5.5,0,0,1-.2.4,3.5,3.5,0,0,1-2.8.4,1.9,1.9,0,0,1-1.5-1.5,3.1,3.1,0,0,1,0-1.9,2.3,2.3,0,0,1,2-1.6h1a1.6,1.6,0,0,1,1.4,1.4Z" transform="translate(-26 -0.2)"/><path class="cls-7" d="M95.4,67.2v-2h1l1.9,3.2h.1V65.2h1v5h-.9c-.2,0-.2-.1-.3-.3l-1.4-2.2-.3-.6h-.1v3.1h-1v-3Z" transform="translate(-26 -0.2)"/><path class="cls-6" d="M168.6,70V65.2h2a1.8,1.8,0,0,1,2,1.7,3.3,3.3,0,0,1,0,1.7,1.8,1.8,0,0,1-1.8,1.6h-2.1c-.1,0-.1,0-.1-.2m1-.7h1.1a.9.9,0,0,0,.9-.7,4.8,4.8,0,0,0,0-1.7.9.9,0,0,0-.9-.8h-1.1Z" transform="translate(-26 -0.2)"/><path class="cls-8" d="M114.6,67.4c-.1.4,0,.7-.1,1.1a2.3,2.3,0,0,1-1.8,1.7h-1.4a2.3,2.3,0,0,1-1.4-1.5,3.1,3.1,0,0,1,0-1.9,2,2,0,0,1,1.9-1.7H113a2.2,2.2,0,0,1,1.5,1.8.6.6,0,0,0,.1.4M113,66.3a1.2,1.2,0,0,0-2,.5,1.9,1.9,0,0,0,0,1.8,1.3,1.3,0,0,0,1.5.8,1.6,1.6,0,0,0,.8-.6A2.5,2.5,0,0,0,113,66.3Z" transform="translate(-26 -0.2)"/><path class="cls-4" d="M174.5,70a2.1,2.1,0,0,1-1.1-1.9V66.8a2.4,2.4,0,0,1,2-1.7h1.2a2.2,2.2,0,0,1,1.5,2,2.3,2.3,0,0,1-.1,1.4,2,2,0,0,1-1.9,1.7,4.1,4.1,0,0,1-1.6-.3m2.5-1.7a2.9,2.9,0,0,0,0-1.3,1.2,1.2,0,0,0-1.2-1,1.2,1.2,0,0,0-1.3.9,1.9,1.9,0,0,0,0,1.5,1.3,1.3,0,0,0,.9,1A1.3,1.3,0,0,0,177,68.3Z" transform="translate(-26 -0.2)"/><path class="cls-4" d="M102,65.2a3.3,3.3,0,0,1,1,0,2.1,2.1,0,0,1,2,1.9,7.6,7.6,0,0,1-.1,1.5,2,2,0,0,1-2,1.6,2,2,0,0,1-1.1-.1,2.1,2.1,0,0,1-1.6-1.8,7.6,7.6,0,0,1,.1-1.5,2,2,0,0,1,1.7-1.6m.4,4.2a1.3,1.3,0,0,0,1.5-1,3.8,3.8,0,0,0,0-1.5,1.4,1.4,0,0,0-2.6,0,3.8,3.8,0,0,0,0,1.5A1.4,1.4,0,0,0,102.4,69.4Z" transform="translate(-26 -0.2)"/><path class="cls-4" d="M70.1,69.7V65.2h2.2a1.9,1.9,0,0,1,1.9,1.5,6.7,6.7,0,0,1,0,2,2,2,0,0,1-1.8,1.5H70.1v-.5m2.2-.4a.9.9,0,0,0,.9-.8,4.3,4.3,0,0,0,0-1.6,1,1,0,0,0-.7-.8H71.2v3.2Z" transform="translate(-26 -0.2)"/><path class="cls-9" d="M60.8,65.2h1.5a1.8,1.8,0,0,1,1.9,1.6,3.1,3.1,0,0,1,0,1.9,1.8,1.8,0,0,1-1.7,1.5H60.2v-5h.6m1.7,4.1a1.1,1.1,0,0,0,.7-.6,6.1,6.1,0,0,0,0-1.9.8.8,0,0,0-.8-.7H61.2v3.3Z" transform="translate(-26 -0.2)"/><path class="cls-9" d="M145.2,65.2a1.9,1.9,0,0,1,1.9,2,3.8,3.8,0,0,1,0,1.5,2,2,0,0,1-1.9,1.5h-2.1a41.4,41.4,0,0,1,0-5h2.1m-.9.9h-.2v3.2h1.1a.8.8,0,0,0,.8-.7,2.8,2.8,0,0,0,0-1.8.8.8,0,0,0-.8-.7Z" transform="translate(-26 -0.2)"/><path class="cls-10" d="M151.2,69.3h.6v.9H148v-5h3.7V66h-2.6v1h2.4V68H149v1.3Z" transform="translate(-26 -0.2)"/><path class="cls-10" d="M88.3,69.3h1.3v.9H85.9v-5h3.6V66H86.9v1.1h2.4V68H86.9c-.1.4,0,.9-.1,1.3Z" transform="translate(-26 -0.2)"/><path class="cls-4" d="M55.6,66h-.7a.3.3,0,0,0-.3.3c0,.2.1.4.3.4l.6.2,1,.4a1.2,1.2,0,0,1,.9,1.4,1.3,1.3,0,0,1-.9,1.3,3.1,3.1,0,0,1-1.9,0,1.6,1.6,0,0,1-1.2-1.5h1v.2a1.2,1.2,0,0,0,1.6.6.6.6,0,0,0,.4-.6c0-.3-.2-.4-.4-.5l-.9-.2-.8-.3a1.4,1.4,0,0,1-.7-1.3,1.1,1.1,0,0,1,.9-1.1,2.5,2.5,0,0,1,1.9,0,1.3,1.3,0,0,1,.9,1.3h-1C56.2,66.3,56,66,55.6,66Z" transform="translate(-26 -0.2)"/><path class="cls-11" d="M75.1,68.5V65.2h3.7V66H76.2v1.1h2.4V68H76.2v1.3h2.7v.9H75.1V68.5Z" transform="translate(-26 -0.2)"/><path class="cls-12" d="M140,69.3h2.2v.9h-3.7v-5h3.6V66h-2.6v1.1h2.4V68h-2.4v1.3Z" transform="translate(-26 -0.2)"/><path class="cls-12" d="M45.9,70.2H44.1v-5h3.6V66H45.1v1.1h2.5V68H45.1v1.3h2.7v.9Z" transform="translate(-26 -0.2)"/><path class="cls-4" d="M193.2,70.2h1.2c.6-1.7,1.2-3.3,1.9-5h1.1c.6,1.7,1.3,3.3,1.9,5h-1.1l-.4-1.1h-2l-.4,1.1h-2.2m3-2.3v.3h1.3l-.7-1.8Z" transform="translate(-26 -0.2)"/><path class="cls-8" d="M31.4,69.4a1.7,1.7,0,0,1-1.4.9H29a1.3,1.3,0,0,1-1.3-1.4,12.8,12.8,0,0,1-.1-1.9V65.2h1v.4a26.2,26.2,0,0,1,0,2.8c0,1,.9,1.1,1.5.9a.7.7,0,0,0,.4-.5c0-.3.1-.6.1-.8V65.2h.9a.4.4,0,0,1,.1.3v2.7A2.5,2.5,0,0,1,31.4,69.4Z" transform="translate(-26 -0.2)"/><path class="cls-4" d="M184.9,68.9c.5-1.2.9-2.4,1.4-3.7h1.1c.6,1.6,1.3,3.3,2,5h-1.1l-.5-1.1h-1.9l-.4,1.1h-1.1a6.9,6.9,0,0,1,.5-1.3m2.3-.7h.3l-.6-1.8-.7,1.8Z" transform="translate(-26 -0.2)"/><path class="cls-4" d="M207.8,66.5l1.5,3.7h-1.1l-.4-1.1h-2l-.4,1.1h-1.1c.7-1.7,1.3-3.3,1.9-5h1.1c.2.4.3.9.5,1.3m-1,1.7h.6l-.6-1.7h-.1l-.6,1.7Z" transform="translate(-26 -0.2)"/><path class="cls-4" d="M128.5,66.5c.2-.5.3-.9.5-1.3h1.1c.6,1.7,1.3,3.3,1.9,5h-1l-.5-1.1h-1.9l-.4,1.1h-1.1c.5-1.3.9-2.5,1.4-3.7m1.5,1.2-.4-1.2h-.1l-.6,1.7h1.3Z" transform="translate(-26 -0.2)"/><path class="cls-4" d="M69.3,69.2l.3,1H68.5l-.4-1.1h-2l-.4,1.1h-1l1.9-5h1.1c.5,1.3,1,2.7,1.6,4m-2.4-2.1-.4,1.1h1.3c-.3-.6-.4-1.2-.7-1.8A1.9,1.9,0,0,0,66.9,67.1Z" transform="translate(-26 -0.2)"/><path class="cls-4" d="M157.2,69.9l.6-1.6,1.1-2.7c0-.2.1-.3.1-.4h1.1l1.9,5h-1l-.5-1.1h-1.9l-.5,1h-.7c-.1,0-.2,0-.2-.2m2.7-2.5-.3-.9h-.1l-.6,1.7h1.3Z" transform="translate(-26 -0.2)"/><path class="cls-9" d="M183.8,68.2h-2v1.9h-.9a41.6,41.6,0,0,1,0-5h2.5a1.3,1.3,0,0,1,1.2,1,1.8,1.8,0,0,1-.8,1.9m-1.6-.8h.8a.6.6,0,0,0,.6-.6.7.7,0,0,0-.6-.7h-1.1v1.3Z" transform="translate(-26 -0.2)"/><path class="cls-5" d="M125.6,66.6a.9.9,0,0,0-1.1-.6,1.1,1.1,0,0,0-.9.8,2.8,2.8,0,0,0,0,1.8,1.1,1.1,0,0,0,1,.8,1.1,1.1,0,0,0,1.1-.7.8.8,0,0,1,.1-.4l.9.4a1.6,1.6,0,0,1-1.2,1.4,2.2,2.2,0,0,1-3-1.9,2.9,2.9,0,0,1,.1-1.6,2.3,2.3,0,0,1,3.3-1.2,1.5,1.5,0,0,1,.8,1.2l-.9.2Z" transform="translate(-26 -0.2)"/><path class="cls-8" d="M91,69.7a3.2,3.2,0,0,1-.7-2.6,3.1,3.1,0,0,1,.5-1.2,2.4,2.4,0,0,1,3-.5,1.9,1.9,0,0,1,.7,1.2h-.1l-.8.2a.3.3,0,0,1-.1-.2,1,1,0,0,0-1-.6,1,1,0,0,0-1,.7,1.9,1.9,0,0,0-.2.8,4.5,4.5,0,0,0,.1,1.1,1.2,1.2,0,0,0,1.1.8,1,1,0,0,0,1-.7c0-.1.1-.2.1-.4l.9.3a1.8,1.8,0,0,1-1.7,1.7A2.3,2.3,0,0,1,91,69.7Z" transform="translate(-26 -0.2)"/><path class="cls-8" d="M41.5,68.3c.4-1.1.7-2.1,1-3.1h1.1l-1.8,5h-1l-1.8-5h1.1l1.2,3.5h.1C41.4,68.6,41.5,68.5,41.5,68.3Z" transform="translate(-26 -0.2)"/><path class="cls-11" d="M137.4,66.1h-2.1v1.1h2v.9h-2.1v2.1h-1v-5h3.4V66Z" transform="translate(-26 -0.2)"/><path class="cls-13" d="M82.7,66.7v-.6H81.3v-.8h3.9V66H83.8v4.2h-1C82.8,69,82.7,67.9,82.7,66.7Z" transform="translate(-26 -0.2)"/><path class="cls-14" d="M109.3,70c-.1.1-.1.2-.2.2h-3.3V65.3h1v4h2.5Z" transform="translate(-26 -0.2)"/><path class="cls-7" d="M165.2,69.3h.8v.9h-3.4V65.3h1v4Z" transform="translate(-26 -0.2)"/><path class="cls-15" d="M59,70.2h-.7v-5h.9v5Z" transform="translate(-26 -0.2)"/><path class="cls-9" d="M121.7,69v1.2h-1v-5h1Z" transform="translate(-26 -0.2)"/><path class="cls-4" d="M38.6,68.7v1.5h-1v-5h1Z" transform="translate(-26 -0.2)"/><path class="cls-15" d="M206.7,63.9h1l-.9,1h-.6C206.4,64.6,206.4,64.2,206.7,63.9Z" transform="translate(-26 -0.2)"/><path class="cls-15" d="M112.7,64.3l-.3.3a.6.6,0,0,1-.8.3l.4-1h1.1Z" transform="translate(-26 -0.2)"/><path class="cls-5" d="M157.2,69.9c0,.2.1.2.2.2h-.3C157.1,70.1,157.2,70,157.2,69.9Z" transform="translate(-26 -0.2)"/><path class="cls-16" d="M193.3,32.7h2.1a3.3,3.3,0,0,1,1.6.7,3.6,3.6,0,0,1,1.6,2.5,4.9,4.9,0,0,1-.2,2.4,3.5,3.5,0,0,1-3.2,2.6,34,34,0,0,1-4.5.3h-5.9V32.7Z" transform="translate(-26 -0.2)"/><path class="cls-16" d="M161.5,32.7a18.8,18.8,0,0,1,3.4.2,4.4,4.4,0,0,1,3.7,3.3,5,5,0,0,1-1.7,5,5.1,5.1,0,0,1-2.7.9,25.5,25.5,0,0,1-3.9.2h-3.7V32.7Z" transform="translate(-26 -0.2)"/><path class="cls-17" d="M51.7,66.8c-.1.3-.2.5-.5.5H49.7V66.1h1.5C51.5,66.1,51.7,66.3,51.7,66.8Z" transform="translate(-26 -0.2)"/><path class="cls-18" d="M153.6,67.1v-1h1.6a.5.5,0,0,1,.4.6.6.6,0,0,1-.5.6h-1.3C153.7,67.3,153.6,67.3,153.6,67.1Z" transform="translate(-26 -0.2)"/><path class="cls-17" d="M191.8,67.3h-.9V66.1h1.4a.5.5,0,0,1,.6.6q0,.5-.6.6Z" transform="translate(-26 -0.2)"/><path class="cls-19" d="M169.6,69.3V66h1.1a.9.9,0,0,1,.9.8,4.8,4.8,0,0,1,0,1.7.9.9,0,0,1-.9.7Z" transform="translate(-26 -0.2)"/><path class="cls-19" d="M113,66.3a2.5,2.5,0,0,1,.3,2.5,1.6,1.6,0,0,1-.8.6,1.3,1.3,0,0,1-1.5-.8,1.9,1.9,0,0,1,0-1.8A1.2,1.2,0,0,1,113,66.3Z" transform="translate(-26 -0.2)"/><path class="cls-19" d="M177,68.4a1.3,1.3,0,0,1-1.6,1,1.3,1.3,0,0,1-.9-1,1.9,1.9,0,0,1,0-1.5,1.2,1.2,0,0,1,1.3-.9,1.2,1.2,0,0,1,1.2,1A3.3,3.3,0,0,1,177,68.4Z" transform="translate(-26 -0.2)"/><path class="cls-19" d="M102.3,69.4a1.4,1.4,0,0,1-1-1,3.8,3.8,0,0,1,0-1.5,1.4,1.4,0,0,1,2.6,0,3.8,3.8,0,0,1,0,1.5A1.4,1.4,0,0,1,102.3,69.4Z" transform="translate(-26 -0.2)"/><path class="cls-17" d="M72.2,69.3h-1V66.1h1.3a1,1,0,0,1,.7.8,4.3,4.3,0,0,1,0,1.6A.9.9,0,0,1,72.2,69.3Z" transform="translate(-26 -0.2)"/><path class="cls-19" d="M62.4,69.3H61.2V66h1.2a.8.8,0,0,1,.8.7,6.1,6.1,0,0,1,0,1.9A1,1,0,0,1,62.4,69.3Z" transform="translate(-26 -0.2)"/><path class="cls-19" d="M144.4,66.1h.8a.8.8,0,0,1,.8.7,2.8,2.8,0,0,1,0,1.8.8.8,0,0,1-.8.7h-1.1V66.1Z" transform="translate(-26 -0.2)"/><path class="cls-18" d="M196.3,67.9a8.8,8.8,0,0,1,.5-1.5l.7,1.8h-1.3A.4.4,0,0,1,196.3,67.9Z" transform="translate(-26 -0.2)"/><path class="cls-18" d="M187.1,68.2h-.9l.7-1.8.6,1.8Z" transform="translate(-26 -0.2)"/><path class="cls-18" d="M206.8,68.2h-.7l.6-1.7h.1l.6,1.7Z" transform="translate(-26 -0.2)"/><path class="cls-18" d="M130,67.7l.2.5h-1.3l.6-1.7h.1C129.7,66.9,129.9,67.3,130,67.7Z" transform="translate(-26 -0.2)"/><path class="cls-18" d="M66.9,67c0-.2.1-.3.2-.6s.4,1.2.7,1.8H66.5A5.6,5.6,0,0,1,66.9,67Z" transform="translate(-26 -0.2)"/><path class="cls-18" d="M159.9,67.4l.3.8h-1.3l.6-1.7h.1Z" transform="translate(-26 -0.2)"/><path class="cls-17" d="M182.1,67.4h-.2V66.1H183a.7.7,0,0,1,.6.7.6.6,0,0,1-.6.6Z" transform="translate(-26 -0.2)"/></svg>